<?xml version="1.0" encoding="UTF-8"?>
<!DOCTYPE svg PUBLIC "-//W3C//DTD SVG 1.1//EN" "http://www.w3.org/Graphics/SVG/1.1/DTD/svg11.dtd">
<svg xmlns="http://www.w3.org/2000/svg" version="1.1" width="500px" height="500px" style="shape-rendering:geometricPrecision; text-rendering:geometricPrecision; image-rendering:optimizeQuality; fill-rule:evenodd; clip-rule:evenodd" xmlns:xlink="http://www.w3.org/1999/xlink">
<g><path style="opacity:1" fill="#0a0808" d="M 277.5,35.5 C 332.672,46.1767 370.839,77.51 392,129.5C 394.43,136.316 396.097,143.316 397,150.5C 397.333,147.5 397.667,144.5 398,141.5C 398.5,140.333 399.333,139.5 400.5,139C 406.5,138.333 412.5,138.333 418.5,139C 419.126,139.75 419.626,140.584 420,141.5C 420.667,161.5 420.667,181.5 420,201.5C 416.247,222.253 404.08,234.753 383.5,239C 368.167,267.667 346.167,289.667 317.5,305C 333.804,316.302 346.971,330.469 357,347.5C 363.247,366.007 357.081,378.007 338.5,383.5C 338.167,384.333 337.833,385.167 337.5,386C 342.873,409.11 340.373,431.277 330,452.5C 318.707,465.117 304.874,468.951 288.5,464C 278.925,460.223 271.925,453.723 267.5,444.5C 266.667,444.167 265.833,443.833 265,443.5C 260.103,444.906 255.103,445.573 250,445.5C 244.091,445.245 238.258,444.745 232.5,444C 217.896,467.122 198.562,472.122 174.5,459C 168.45,453.74 164.284,447.24 162,439.5C 157.886,421.164 158.053,402.831 162.5,384.5C 145.225,381.29 137.725,370.956 140,353.5C 142.447,345.269 146.447,337.936 152,331.5C 160.939,321.556 170.772,312.722 181.5,305C 153,289.833 131.167,268 116,239.5C 96.2293,234.729 84.2293,222.396 80,202.5C 79.3333,182.167 79.3333,161.833 80,141.5C 80.3742,140.584 80.8742,139.75 81.5,139C 87.5,138.333 93.5,138.333 99.5,139C 100.381,139.708 101.047,140.542 101.5,141.5C 101.337,143.857 101.503,146.19 102,148.5C 103.039,147.756 103.539,146.756 103.5,145.5C 111.828,108.337 131.828,79.1705 163.5,58C 181.26,46.4684 200.593,38.9684 221.5,35.5C 230.808,34.5517 240.141,33.885 249.5,33.5C 258.862,33.8372 268.196,34.5039 277.5,35.5 Z"/></g>
<g><path style="opacity:0.912" fill="#414141" d="M 277.5,35.5 C 268.196,34.5039 258.862,33.8372 249.5,33.5C 240.141,33.885 230.808,34.5517 221.5,35.5C 240.167,31.5 258.833,31.5 277.5,35.5 Z"/></g>
<g><path style="opacity:1" fill="#eb1b24" d="M 383.5,159.5 C 383.5,163.833 383.5,168.167 383.5,172.5C 380.477,172.105 379.477,173.105 380.5,175.5C 379.167,176.5 377.833,177.5 376.5,178.5C 375.585,177.672 374.919,176.672 374.5,175.5C 375.853,174.476 376.52,173.143 376.5,171.5C 377.873,171.657 379.207,171.49 380.5,171C 380.043,170.586 379.709,170.086 379.5,169.5C 383.444,167.596 383.11,166.596 378.5,166.5C 378.657,165.127 378.49,163.793 378,162.5C 376.604,164.527 374.938,164.86 373,163.5C 372.814,165.9 372.314,168.234 371.5,170.5C 370.167,169.167 368.833,167.833 367.5,166.5C 367.167,166.833 366.833,167.167 366.5,167.5C 369.547,172.296 373.047,176.63 377,180.5C 379.192,179.07 381.192,177.403 383,175.5C 383.499,179.486 383.666,183.486 383.5,187.5C 382.294,199.492 379.294,210.992 374.5,222C 291.167,222.667 207.833,222.667 124.5,222C 119.976,210.922 116.976,199.422 115.5,187.5C 115.373,176.148 115.706,164.815 116.5,153.5C 127.734,103.77 157.4,70.6034 205.5,54C 252.933,40.6272 296.6,48.2939 336.5,77C 362.912,98.3175 378.578,125.818 383.5,159.5 Z"/></g>
<g><path style="opacity:0.131" fill="#878787" d="M 101.5,141.5 C 102.167,142.833 102.833,144.167 103.5,145.5C 103.539,146.756 103.039,147.756 102,148.5C 101.503,146.19 101.337,143.857 101.5,141.5 Z"/></g>
<g><path style="opacity:1" fill="#c1b12a" d="M 89.5,148.5 C 90.209,147.596 91.209,147.263 92.5,147.5C 92.5,159.167 92.5,170.833 92.5,182.5C 92.159,170.963 91.159,159.63 89.5,148.5 Z"/></g>
<g><path style="opacity:1" fill="#e63137" d="M 189.5,169.5 C 188.209,169.737 187.209,169.404 186.5,168.5C 187.239,168.631 187.906,168.464 188.5,168C 185.83,165.522 183.496,162.689 181.5,159.5C 180.36,157.922 179.86,156.256 180,154.5C 184.066,151.16 188.566,148.993 193.5,148C 197.055,151.612 199.721,155.778 201.5,160.5C 200.027,164.548 198.693,164.381 197.5,160C 196.552,159.517 195.552,159.351 194.5,159.5C 194.895,162.523 193.895,163.523 191.5,162.5C 190.77,163.934 189.77,165.1 188.5,166C 190.373,166.953 190.706,168.12 189.5,169.5 Z"/></g>
<g><path style="opacity:1" fill="#c8be27" d="M 409.5,202.5 C 409.667,184.497 409.5,166.497 409,148.5C 409.15,160.543 408.316,172.21 406.5,183.5C 407.479,171.58 407.812,159.58 407.5,147.5C 408.5,147.5 409.5,147.5 410.5,147.5C 410.83,166.008 410.497,184.341 409.5,202.5 Z"/></g>
<g><path style="opacity:1" fill="#0f0b0b" d="M 186.5,168.5 C 187.209,169.404 188.209,169.737 189.5,169.5C 198.904,173.109 208.571,176.276 218.5,179C 216.857,193.83 208.857,204.163 194.5,210C 171.928,216.127 155.095,208.96 144,188.5C 139.792,177.958 139.458,167.291 143,156.5C 143.414,156.043 143.914,155.709 144.5,155.5C 158.327,160.456 172.327,164.789 186.5,168.5 Z"/></g>
<g><path style="opacity:1" fill="#0f0a09" d="M 353.5,155.5 C 354.496,155.414 355.329,155.748 356,156.5C 362.031,175.067 357.864,190.9 343.5,204C 322.889,217.082 304.056,214.915 287,197.5C 283.672,192.513 281.172,187.18 279.5,181.5C 279.59,179.575 280.59,178.408 282.5,178C 306.31,170.637 329.976,163.137 353.5,155.5 Z"/></g>
<g><path style="opacity:1" fill="#a5242b" d="M 116.5,153.5 C 115.706,164.815 115.373,176.148 115.5,187.5C 114.834,183.18 114.501,178.68 114.5,174C 114.339,166.936 115.006,160.103 116.5,153.5 Z"/></g>
<g><path style="opacity:1" fill="#f8f8f8" d="M 344.5,168.5 C 345.833,168.5 347.167,168.5 348.5,168.5C 348.732,189.104 338.565,200.437 318,202.5C 306.293,201.898 297.46,196.564 291.5,186.5C 292.665,185.416 293.998,184.583 295.5,184C 312.14,179.386 328.473,174.219 344.5,168.5 Z"/></g>
<g><path style="opacity:1" fill="#f8f8f8" d="M 150.5,168.5 C 169.669,174.113 188.669,180.113 207.5,186.5C 196.462,202.542 182.129,206.376 164.5,198C 153.789,191.076 149.122,181.243 150.5,168.5 Z"/></g>
<g><path style="opacity:1" fill="#da3035" d="M 383.5,159.5 C 384.833,168.833 384.833,178.167 383.5,187.5C 383.666,183.486 383.499,179.486 383,175.5C 381.192,177.403 379.192,179.07 377,180.5C 373.047,176.63 369.547,172.296 366.5,167.5C 366.833,167.167 367.167,166.833 367.5,166.5C 368.833,167.833 370.167,169.167 371.5,170.5C 372.314,168.234 372.814,165.9 373,163.5C 374.938,164.86 376.604,164.527 378,162.5C 378.49,163.793 378.657,165.127 378.5,166.5C 383.11,166.596 383.444,167.596 379.5,169.5C 379.709,170.086 380.043,170.586 380.5,171C 379.207,171.49 377.873,171.657 376.5,171.5C 376.52,173.143 375.853,174.476 374.5,175.5C 374.919,176.672 375.585,177.672 376.5,178.5C 377.833,177.5 379.167,176.5 380.5,175.5C 379.477,173.105 380.477,172.105 383.5,172.5C 383.5,168.167 383.5,163.833 383.5,159.5 Z"/></g>
<g><path style="opacity:1" fill="#544e1a" d="M 400.5,184.5 C 398.972,185.802 397.972,187.469 397.5,189.5C 397.5,187.5 397.5,185.5 397.5,183.5C 398.791,183.263 399.791,183.596 400.5,184.5 Z"/></g>
<g><path style="opacity:1" fill="#f3e823" d="M 89.5,148.5 C 91.159,159.63 92.159,170.963 92.5,182.5C 93.2233,184.213 94.5567,185.213 96.5,185.5C 98.1347,184.954 99.8014,184.62 101.5,184.5C 101.929,198.938 104.929,212.771 110.5,226C 110.167,226.5 109.833,227 109.5,227.5C 98.1841,222.012 91.6841,213.012 90,200.5C 89.5001,183.17 89.3334,165.837 89.5,148.5 Z"/></g>
<g><path style="opacity:1" fill="#f3e822" d="M 409.5,202.5 C 407.283,214.385 400.616,222.718 389.5,227.5C 389.167,227 388.833,226.5 388.5,226C 393.024,214.252 396.024,202.085 397.5,189.5C 397.972,187.469 398.972,185.802 400.5,184.5C 401.097,185.139 401.93,185.472 403,185.5C 404.699,185.613 405.866,184.947 406.5,183.5C 408.316,172.21 409.15,160.543 409,148.5C 409.5,166.497 409.667,184.497 409.5,202.5 Z"/></g>
<g><path style="opacity:1" fill="#c2b4a8" d="M 366.5,238.5 C 288.5,237.167 210.5,237.167 132.5,238.5C 131.957,238.44 131.624,238.107 131.5,237.5C 210.167,236.167 288.833,236.167 367.5,237.5C 367.376,238.107 367.043,238.44 366.5,238.5 Z"/></g>
<g><path style="opacity:1" fill="#fdecd8" d="M 366.5,238.5 C 332.092,292.359 283.092,314.192 219.5,304C 181.626,293.752 152.626,271.919 132.5,238.5C 210.5,237.167 288.5,237.167 366.5,238.5 Z"/></g>
<g><path style="opacity:1" fill="#ea1c24" d="M 194.5,312.5 C 196.857,312.337 199.19,312.503 201.5,313C 233.186,324.257 264.852,324.257 296.5,313C 298.833,312.333 301.167,312.333 303.5,313C 317.919,322.751 330.419,334.584 341,348.5C 344.174,353.06 345.174,358.06 344,363.5C 340.96,366.966 337.126,368.3 332.5,367.5C 331.492,360.638 329.659,353.971 327,347.5C 318.278,341.898 314.278,344.232 315,354.5C 319.3,369.565 322.133,384.899 323.5,400.5C 274.167,400.5 224.833,400.5 175.5,400.5C 176.504,385.474 179.338,370.807 184,356.5C 186.56,347.736 183.393,343.902 174.5,345C 173.333,346.167 172.167,347.333 171,348.5C 168.549,354.969 167.049,361.635 166.5,368.5C 155.999,368.88 152.166,363.88 155,353.5C 157.753,348.992 160.753,344.659 164,340.5C 173.463,330.195 183.63,320.862 194.5,312.5 Z"/></g>
<g><path style="opacity:1" fill="#130e0d" d="M 254.5,326.5 C 256.582,326.472 258.416,327.139 260,328.5C 260.684,331.38 260.517,334.213 259.5,337C 273.284,346.582 276.117,358.749 268,373.5C 263.028,379.736 256.528,382.902 248.5,383C 246.539,385.963 244.206,388.629 241.5,391C 236.721,392.394 234.387,390.56 234.5,385.5C 234.594,383.311 235.261,381.311 236.5,379.5C 225.416,370.421 222.916,359.421 229,346.5C 233.961,340.605 240.128,336.605 247.5,334.5C 249.861,331.721 252.194,329.054 254.5,326.5 Z"/></g>
<g><path style="opacity:1" fill="#e0e0e0" d="M 257.5,342.5 C 269.885,350.397 271.719,360.397 263,372.5C 260.307,374.942 257.473,376.275 254.5,376.5C 257.484,373.015 260.651,369.682 264,366.5C 265.822,361.171 263.989,358.504 258.5,358.5C 259.089,355.496 260.089,352.663 261.5,350C 260.316,347.344 258.983,344.844 257.5,342.5 Z"/></g>
<g><path style="opacity:1" fill="#e2e2e1" d="M 239.5,342.5 C 240.239,342.369 240.906,342.536 241.5,343C 238.266,345.989 235.932,349.489 234.5,353.5C 234.813,355.981 235.813,358.147 237.5,360C 236.694,363.123 235.027,365.623 232.5,367.5C 229.286,360.02 230.119,353.02 235,346.5C 236.992,345.672 238.492,344.339 239.5,342.5 Z"/></g>
<g><path style="opacity:1" fill="#f2f209" d="M 255.5,331.5 C 256.043,331.56 256.376,331.893 256.5,332.5C 254.303,337.756 252.303,343.089 250.5,348.5C 252.5,349.167 254.5,349.833 256.5,350.5C 254.5,354.5 252.5,358.5 250.5,362.5C 253.447,363.321 256.447,363.821 259.5,364C 253,371.167 246.5,378.333 240,385.5C 240.758,380.046 242.258,374.712 244.5,369.5C 242.955,368.548 241.288,368.215 239.5,368.5C 241.4,363.532 243.733,358.699 246.5,354C 244.1,353.814 241.766,353.314 239.5,352.5C 245.085,345.65 250.418,338.65 255.5,331.5 Z"/></g>
<g><path style="opacity:1" fill="#958721" d="M 309.5,411.5 C 269.5,410.167 229.5,410.167 189.5,411.5C 188.711,411.217 188.044,410.717 187.5,410C 228.833,409.333 270.167,409.333 311.5,410C 310.956,410.717 310.289,411.217 309.5,411.5 Z"/></g>
<g><path style="opacity:1" fill="#f8eb21" d="M 189.5,411.5 C 229.5,410.167 269.5,410.167 309.5,411.5C 292.744,420.044 275.411,427.211 257.5,433C 249.337,434.05 241.337,433.383 233.5,431C 218.454,425.309 203.787,418.809 189.5,411.5 Z"/></g>
<g><path style="opacity:1" fill="#ea1c24" d="M 174.5,418.5 C 189.002,425.251 203.335,432.251 217.5,439.5C 209.692,450.73 199.358,453.897 186.5,449C 179.897,444.252 176.063,437.752 175,429.5C 174.501,425.848 174.335,422.182 174.5,418.5 Z"/></g>
<g><path style="opacity:1" fill="#ea1c24" d="M 323.5,418.5 C 324.693,418.97 325.36,419.97 325.5,421.5C 324.571,429.221 322.404,436.554 319,443.5C 305.634,454.977 293.301,453.977 282,440.5C 281.383,439.551 281.549,438.718 282.5,438C 296.363,431.775 310.03,425.275 323.5,418.5 Z"/></g>
</svg>
