<svg xmlns="http://www.w3.org/2000/svg" width="24" height="24" viewBox="0 0 24 24" fill="none"><path d="M3.673 3.063C3.31 3.175 3 3.606 3 4c0 .405.309.826.69.939C3.87 4.993 4.86 5 12 5c7.14 0 8.13-.007 8.31-.061.378-.112.69-.537.69-.939 0-.402-.312-.827-.69-.939-.18-.054-1.166-.061-8.327-.058-6.953.002-8.15.011-8.31.06m0 5C3.31 8.175 3 8.606 3 9c0 .405.309.826.69.939.18.054 1.17.061 8.31.061 7.14 0 8.13-.007 8.31-.061.378-.112.69-.537.69-.939 0-.402-.312-.827-.69-.939-.18-.054-1.166-.061-8.327-.058-6.953.002-8.15.011-8.31.06m0 5C3.31 13.175 3 13.606 3 14c0 .405.309.826.69.939.18.054 1.17.061 8.31.061 7.14 0 8.13-.007 8.31-.061.378-.112.69-.537.69-.939 0-.402-.312-.827-.69-.939-.18-.054-1.166-.061-8.327-.058-6.953.002-8.15.011-8.31.06m0 5C3.31 18.175 3 18.606 3 19c0 .405.309.826.69.939.18.054 1.17.061 8.31.061 7.14 0 8.13-.007 8.31-.061.378-.112.69-.537.69-.939 0-.402-.312-.827-.69-.939-.18-.054-1.166-.061-8.327-.058-6.953.002-8.15.011-8.31.06" fill="#10161F" fill-rule="evenodd"/></svg>