<svg xmlns="http://www.w3.org/2000/svg" width="24" height="24" viewBox="0 0 24 24" fill="none"><path d="M13.2 1.414a3.191 3.191 0 0 0-1.938 1.588c-.421.811-.447 1.441-.076 1.874.425.497 1.035.532 1.914.11a3.193 3.193 0 0 0 1.699-2.033c.158-.571.082-.957-.256-1.296-.344-.344-.757-.418-1.343-.243m-5.38 4.29c-1.38.205-2.527.76-3.422 1.654-1.676 1.676-2.268 4.366-1.637 7.448.368 1.795 1.129 3.613 2.102 5.018.776 1.12 1.73 2.019 2.637 2.483.501.257.745.33 1.2.358.466.03.944-.049 1.739-.286 1.438-.429 1.666-.43 3.101-.018.92.264 1.378.34 1.839.305.423-.033.676-.111 1.151-.354 1.335-.684 2.595-2.124 3.571-4.083.737-1.479.64-1.943-.73-3.493-.177-.2-.388-.45-.469-.557-.581-.76-.708-1.771-.34-2.704.043-.109.246-.463.451-.786.886-1.396 1.015-1.709.98-2.382-.042-.791-.534-1.342-1.753-1.964-.996-.509-2.079-.74-2.931-.627-.479.064-.926.199-1.729.521-.818.329-1.07.404-1.439.431-.406.029-.736-.056-1.683-.429-1.043-.411-1.453-.518-2.058-.538a5.57 5.57 0 0 0-.58.003" fill="#10161F" fill-rule="evenodd"/></svg>