<svg width="24" height="24" viewBox="0 0 24 24" fill="none" xmlns="http://www.w3.org/2000/svg"><path d="M9.756 5.374c-.294.081-1.342.776-2.195 1.456a17.39 17.39 0 0 0-3.594 3.923c-.347.529-.42.738-.423 1.227-.003.476.054.67.334 1.137.22.366 1.068 1.505 1.566 2.103.468.563 1.457 1.541 1.97 1.95.8.636 2.014 1.382 2.384 1.465a.977.977 0 0 0 .91-.282c.348-.364.384-.91.085-1.314-.051-.069-.281-.243-.513-.387a15.302 15.302 0 0 1-3.082-2.535c-.437-.473-.918-1.044-.918-1.09 0-.015 3.136-.027 6.97-.028 6.659-.001 6.977-.004 7.13-.074.389-.177.62-.522.619-.925a.978.978 0 0 0-.579-.905l-.2-.094L13.307 11c-4.226 0-6.908-.014-6.9-.037.036-.102.883-1.051 1.413-1.584a14.732 14.732 0 0 1 2.275-1.894c.638-.432.736-.527.852-.825.122-.312.006-.79-.252-1.038a1.033 1.033 0 0 0-.939-.248" fill="#10161F" fill-rule="evenodd"/></svg>