<svg width="24" height="24" viewBox="0 0 24 24" fill="none" xmlns="http://www.w3.org/2000/svg"><path d="M11.74 5.182c-1.152.116-2.563.394-2.847.56-.388.227-.569.745-.416 1.193.065.192.291.447.48.543.265.134.425.134 1.044.003 1.305-.278 2.145-.37 3.379-.373.765-.002 1.884.066 1.938.118.01.009-2.197 2.235-4.905 4.945-5.451 5.457-5.079 5.047-5.046 5.563.032.509.39.867.899.899.516.033.107.404 5.554-5.038 2.707-2.703 4.931-4.915 4.944-4.915.054 0 .131 1.16.13 1.96-.001 1.199-.104 2.126-.377 3.376-.128.59-.125.779.02 1.059.166.32.638.558 1.001.503.262-.039.578-.243.709-.458.116-.191.25-.724.396-1.575.163-.951.201-1.406.224-2.625.024-1.335-.018-1.965-.209-3.16-.121-.753-.183-.98-.366-1.328-.268-.513-.77-.845-1.497-.992a21.112 21.112 0 0 0-1.975-.278c-.65-.056-2.441-.044-3.08.02" fill="#10161F" fill-rule="evenodd"/></svg>