<svg xmlns="http://www.w3.org/2000/svg" width="24" height="24" viewBox="0 0 24 24" fill="none"><path d="M7.47 3.041c-.243.061-.541.23-.717.406-.397.397-1.509 3.125-2.198 5.393-.28.921-.555 2.011-.553 2.19.004.335.236.704.534.848.41.199.842.133 1.161-.177.194-.188.217-.249.466-1.211L6.29 10h3.42l.127.49c.249.961.272 1.023.465 1.21.184.179.457.3.678.3.591 0 1.073-.526 1.005-1.098-.037-.321-.502-1.98-.835-2.982-.454-1.368-1.004-2.76-1.508-3.823-.271-.569-.443-.766-.835-.949-.242-.113-.306-.125-.726-.134-.254-.006-.529.006-.611.027m9.336 1.164c-.192.036-.469.181-.926.488a8.028 8.028 0 0 0-2.238 2.267c-.464.705-.534.921-.424 1.3.151.517.727.852 1.206.701.309-.098.447-.226.762-.711.167-.257.414-.603.549-.768l.245-.3.02 6.539c.022 7.329-.008 6.676.321 6.996.169.163.456.283.679.283.223 0 .51-.12.679-.283.329-.32.299.333.321-6.997l.02-6.54.281.348c.154.191.388.522.52.735.269.435.427.587.713.682.516.171 1.091-.144 1.248-.685.083-.287.051-.485-.132-.82a8.02 8.02 0 0 0-2.6-2.791c-.636-.418-.892-.509-1.244-.444M8.254 5.89c.238.565.504 1.242.7 1.78l.12.33H6.926l.113-.31c.401-1.097.909-2.33.96-2.33.017 0 .132.239.255.53m-3.581 7.173C4.309 13.176 4 13.606 4 14c0 .233.114.504.287.682.298.308.199.296 2.57.318l2.117.02-2.217 1.663c-1.219.915-2.278 1.725-2.352 1.8a1.83 1.83 0 0 0-.26.397c-.111.232-.125.299-.124.62 0 .305.016.395.107.589.148.319.429.605.747.761l.263.13 2.977.011c3.391.013 3.264.023 3.581-.294.184-.183.304-.459.304-.697 0-.223-.12-.51-.283-.679-.303-.311-.201-.299-2.574-.321l-2.117-.02 2.217-1.663c1.219-.915 2.278-1.725 2.352-1.8a1.83 1.83 0 0 0 .26-.397c.111-.232.125-.299.124-.62 0-.305-.016-.395-.107-.589a1.654 1.654 0 0 0-.747-.761l-.263-.13-3.001-.008c-2.531-.006-3.03.001-3.188.051" fill="#10161F" fill-rule="evenodd"/></svg>