<svg width="24" height="24" viewBox="0 0 24 24" fill="none" xmlns="http://www.w3.org/2000/svg"><path d="M11.64 6.04c-1.948.202-3.634.888-5.12 2.084-.657.529-1.499 1.454-1.965 2.158l-.064.097-.045-.209c-.136-.633-.175-1.191-.156-2.23.015-.802.007-1.075-.034-1.191-.237-.672-1.124-.87-1.631-.364-.297.298-.366.746-.332 2.175.031 1.356.232 2.467.656 3.64.389 1.074.624 1.436 1.077 1.658.292.142.586.179 1.454.181 1.732.003 3.292-.321 4.81-.998.558-.249.715-.36.841-.593.268-.495.112-1.078-.362-1.357-.162-.095-.231-.111-.489-.109-.266.001-.341.02-.666.17-1.051.485-2.274.803-3.353.873l-.43.027.051-.096c.626-1.18 1.711-2.287 2.919-2.977 1.584-.904 3.423-1.188 5.255-.813 2.506.514 4.642 2.384 5.503 4.817.263.744.387 1.388.438 2.272.034.594.093.76.348.984.205.18.37.241.655.241.285 0 .45-.061.655-.241.281-.247.326-.385.321-.999-.015-2.271-.973-4.579-2.608-6.285a9.444 9.444 0 0 0-5.544-2.858c-.497-.072-1.724-.104-2.184-.057" fill="#10161F" fill-rule="evenodd"/></svg>