<svg xmlns="http://www.w3.org/2000/svg" width="24" height="24" viewBox="0 0 24 24" fill="none"><path d="M17.221 2.082a1.064 1.064 0 0 0-.473.458c-.114.213-.12.657-.011.859.041.077.393.455.781.84.703.699 1.015 1.085 1.372 1.701.089.154.222.373.295.488.548.856 1.886.4 1.805-.615-.017-.209-.058-.315-.25-.659a9.53 9.53 0 0 0-.935-1.394c-.585-.734-1.408-1.515-1.769-1.678-.234-.107-.601-.106-.815 0M5.898 2.12c-.197.098-.781.604-1.15.996A10.507 10.507 0 0 0 3.197 5.27c-.152.292-.172.36-.17.585a.974.974 0 0 0 1.393.89c.256-.122.364-.241.626-.695.415-.718.706-1.085 1.436-1.812.557-.555.72-.742.777-.889.176-.461-.061-1.025-.519-1.234-.223-.102-.63-.1-.842.005m5.306.926a7.548 7.548 0 0 0-4.612 2.269C5.598 6.359 4.907 7.677 4.66 9a7.694 7.694 0 0 1-.087.42c-.012.044-.037.908-.054 1.92-.04 2.402-.054 2.469-.796 3.983-.481.981-.554 1.314-.423 1.937a2.225 2.225 0 0 0 1.457 1.628c.246.081.364.088 1.815.109l1.552.023.091.26c.287.813.844 1.556 1.5 1.998.373.252.939.507 1.347.609.509.126 1.367.126 1.876 0a4.848 4.848 0 0 0 1.347-.609c.656-.442 1.213-1.185 1.5-1.998l.091-.26 1.552-.023c1.451-.021 1.569-.028 1.815-.109A2.225 2.225 0 0 0 20.7 17.26c.133-.632.064-.928-.474-2.049-.704-1.466-.704-1.47-.747-3.871-.025-1.397-.047-1.916-.095-2.157-.191-.972-.488-1.76-.948-2.524a7.516 7.516 0 0 0-7.232-3.613m2.006 2.089a5.367 5.367 0 0 1 2.585 1.403 5.458 5.458 0 0 1 1.629 3.042c.051.279.073.764.096 2.16.029 1.727.035 1.82.134 2.284.144.67.292 1.071.729 1.976.208.429.377.797.377.817 0 .02-.03.07-.066.11-.064.07-.324.073-6.687.073-6.105 0-6.626-.005-6.694-.066-.04-.037-.073-.089-.073-.116 0-.027.17-.397.379-.821.397-.811.607-1.39.746-2.057.074-.354.087-.609.114-2.2.035-1.99.058-2.218.306-2.977.271-.83.728-1.55 1.392-2.196.869-.845 1.853-1.33 3.092-1.526.127-.02.519-.03.871-.021.503.011.732.036 1.07.115m.442 13.989c-.119.205-.516.544-.782.67-.764.36-1.612.233-2.22-.332a2.122 2.122 0 0 1-.302-.338L10.275 19h3.45l-.073.124" fill="#10161F" fill-rule="evenodd"/></svg>