<svg xmlns="http://www.w3.org/2000/svg" width="24" height="24" viewBox="0 0 24 24" fill="none"><path d="M11.76 3.343c-.716.12-1.23.374-1.88.931a45.53 45.53 0 0 0-1.3 1.249L7.54 6.549l-.375.027c-.998.073-1.798.333-2.528.824-.377.254-1.03.923-1.289 1.322-.393.604-.589 1.143-.734 2.018-.055.332-.069.817-.084 2.86-.025 3.489.047 4.191.528 5.163.256.517.473.815.918 1.261.923.922 1.802 1.292 3.36 1.415.686.054 8.642.054 9.328 0 1.193-.094 1.932-.324 2.699-.839.331-.222 1.015-.906 1.237-1.237.515-.767.745-1.506.839-2.699.053-.669.053-4.659 0-5.328-.094-1.193-.324-1.932-.839-2.699-.222-.331-.906-1.015-1.237-1.237-.73-.491-1.53-.751-2.528-.824l-.375-.027-1.04-1.026c-1.114-1.1-1.419-1.376-1.806-1.638-.288-.195-.758-.416-1.014-.477-.214-.051-.699-.088-.84-.065m.549 2.088c.242.126.641.453 1.01.827l.259.262h-3.156l.279-.282c.544-.551 1.061-.916 1.299-.916.055 0 .194.049.309.109m4.411 3.127c.894.106 1.388.322 1.894.828.346.346.596.765.701 1.175.151.591.179 1.118.179 3.439 0 2.321-.028 2.848-.179 3.439-.217.849-1.027 1.659-1.876 1.876-.675.173-.999.184-5.439.184s-4.764-.011-5.439-.184c-.849-.217-1.659-1.027-1.876-1.876-.151-.591-.179-1.118-.179-3.439 0-2.881.053-3.385.423-4.031.298-.52.908-1.045 1.43-1.229.347-.122.871-.188 1.741-.22 1.298-.047 8.155-.017 8.62.038m-9.047 2.505C7.31 11.175 7 11.606 7 12c0 .405.309.826.69.939.307.091 6.313.091 6.62 0 .378-.112.69-.537.69-.939 0-.402-.312-.827-.69-.939-.297-.089-6.349-.086-6.637.002m0 4C7.31 15.175 7 15.606 7 16c0 .405.309.826.69.939.297.088 2.323.088 2.62 0 .378-.112.69-.537.69-.939 0-.402-.312-.827-.69-.939-.287-.086-2.358-.084-2.637.002" fill="#10161F" fill-rule="evenodd"/></svg>