<svg xmlns="http://www.w3.org/2000/svg" width="24" height="24" viewBox="0 0 24 24" fill="none"><path d="M11.66 3.358c-.517.083-.977.294-1.504.689-.185.138-.849.757-1.476 1.376L7.54 6.548l-.4.028a6.083 6.083 0 0 0-1.469.289c-1.223.436-2.37 1.583-2.806 2.806-.288.808-.345 1.519-.345 4.329 0 2.81.057 3.521.345 4.329.47 1.321 1.725 2.503 3.064 2.888.85.244.831.243 6.071.243s5.221.001 6.071-.243c1.435-.412 2.736-1.713 3.146-3.145.214-.748.232-1.016.252-3.67.023-3.142-.028-3.874-.334-4.731-.436-1.223-1.583-2.37-2.806-2.806a6.083 6.083 0 0 0-1.469-.289l-.4-.028-1.14-1.125c-1.192-1.176-1.606-1.525-2.119-1.783-.495-.249-1.081-.356-1.541-.282m.6 2.037c.088.04.27.161.404.269.278.223.896.798.896.833 0 .013-.703.023-1.563.023-.906 0-1.558-.015-1.55-.036.018-.05.653-.635.915-.843.249-.197.492-.319.638-.319.055 0 .172.033.26.073m2.08 5.671c.369.126.66.538.66.934 0 .242-.119.521-.299.701-.311.312-.156.299-3.703.299-3.42 0-3.326.006-3.624-.222a1.19 1.19 0 0 1-.243-.289c-.095-.161-.111-.233-.111-.489s.016-.328.111-.489c.125-.213.318-.375.539-.454.12-.043.775-.054 3.313-.055 2.842-.002 3.182.005 3.357.064m-4 4c.369.126.66.538.66.934s-.291.808-.66.934c-.276.094-2.399.098-2.662.005a.986.986 0 0 1-.547-.45c-.095-.161-.111-.233-.111-.489s.016-.328.111-.489c.061-.103.173-.236.25-.294.264-.202.352-.213 1.602-.215.981-.002 1.193.008 1.357.064" fill="#10161F" fill-rule="evenodd"/></svg>