<svg xmlns="http://www.w3.org/2000/svg" width="24" height="24" viewBox="0 0 24 24" fill="none"><path d="M11.363 3.043a5.056 5.056 0 0 0-3.367 1.972c-.332.447-.437.676-.441.968-.006.399.184.715.545.911l.16.086h7.48l.16-.086c.363-.197.54-.494.54-.909 0-.303-.104-.53-.459-1.002-1.057-1.404-2.87-2.166-4.618-1.94M3.667 6.065c-.413.127-.711.608-.652 1.051.051.379.488 1.038 1.001 1.509a7.97 7.97 0 0 0 1.435.981c.204.1.264.147.243.193-.128.286-.396 1.195-.485 1.646L5.1 12H3.997c-1.296 0-1.411.02-1.691.3a.96.96 0 0 0 0 1.4c.279.279.398.3 1.661.3H5.04v.192c0 .716.326 2.215.641 2.951l.076.176-.173.118c-.872.6-1.467 1.851-1.569 3.297-.033.48.036.71.291.965.18.181.458.301.694.301.355 0 .775-.274.908-.593.034-.081.075-.318.092-.527.017-.209.061-.506.099-.66.119-.483.455-1.1.599-1.1.028 0 .151.131.274.291.313.409 1.059 1.12 1.508 1.438.716.506 1.651.905 2.48 1.057.52.096 1.56.096 2.08 0 .829-.152 1.764-.551 2.48-1.057.449-.318 1.195-1.029 1.508-1.438.123-.16.247-.291.277-.291.075 0 .283.291.415.58.151.329.245.729.279 1.18.015.209.057.446.091.527.138.32.556.593.91.593.238 0 .514-.12.697-.304.25-.249.323-.503.286-.989-.108-1.44-.697-2.665-1.571-3.272l-.169-.116.076-.176c.313-.731.641-2.24.641-2.951V14h1.073c1.266 0 1.382-.021 1.664-.303.183-.183.303-.46.303-.697 0-.237-.12-.514-.303-.697-.283-.283-.395-.303-1.694-.303H18.9l-.109-.555c-.089-.451-.357-1.36-.485-1.646-.021-.046.039-.094.243-.194a8.062 8.062 0 0 0 1.287-.847c.525-.441 1.036-1.143 1.131-1.554.125-.543-.219-1.055-.791-1.175-.445-.094-.789.086-1.11.582-.313.482-.765.875-1.342 1.167-.461.233-.149.221-5.724.221s-5.263.012-5.724-.221c-.573-.29-1.051-.706-1.356-1.181-.213-.333-.338-.445-.602-.538-.208-.073-.4-.071-.651.006m12.616 4.101c.406.796.664 1.907.706 3.039.11 3.004-1.416 5.735-3.664 6.556l-.325.118v-3.552c0-4.023.014-3.826-.303-4.144A1.052 1.052 0 0 0 12 11.88c-.237 0-.514.12-.697.303-.317.318-.303.121-.303 4.144v3.552l-.325-.118c-2.248-.821-3.774-3.551-3.664-6.556a7.743 7.743 0 0 1 .694-3.035l.075-.169L11.989 10h4.209l.085.166" fill="#10161F" fill-rule="evenodd"/></svg>