<svg xmlns="http://www.w3.org/2000/svg" width="24" height="24" viewBox="0 0 24 24" fill="none"><path d="M7.643 3.069a1.118 1.118 0 0 0-.343.229c-.252.252-.3.439-.3 1.164v.608l-.39.049c-2.038.255-3.171 1.347-3.469 3.343-.106.708-.139 1.785-.14 4.498-.001 4.165.071 4.953.536 5.94.526 1.116 1.546 1.779 3.046 1.979.486.065 1.655.119 2.587.12L10 21V19.011l-1.37-.022c-2.17-.036-2.741-.17-3.178-.742-.16-.21-.267-.548-.361-1.137-.064-.408-.071-.791-.071-4.11 0-3.319.007-3.702.071-4.11.201-1.265.511-1.582 1.749-1.796.334-.058.975-.068 5.32-.082 3.558-.012 5.013-.004 5.2.028.784.137 1.454.799 1.597 1.577.023.131.043.495.043.81V10h2l-.001-.51c-.002-1.034-.09-1.532-.379-2.155a3.768 3.768 0 0 0-.797-1.158c-.603-.603-1.493-1.047-2.238-1.117a24.74 24.74 0 0 1-.415-.044L17 4.995v-.57c0-.684-.052-.879-.299-1.126a.984.984 0 0 0-1.402 0c-.247.247-.299.442-.299 1.128V5H9v-.573c0-.686-.052-.881-.299-1.128a.998.998 0 0 0-1.058-.23m0 7C7.291 10.193 7 10.614 7 11c0 .242.119.521.299.701.294.294.33.299 2.201.299s1.907-.005 2.201-.299a.984.984 0 0 0 0-1.402c-.295-.295-.328-.299-2.218-.296-1.398.003-1.691.013-1.84.066m8.697 1.977c-.698.089-1.527.406-2.148.822a5.725 5.725 0 0 0-1.198 1.148c-.311.417-.685 1.18-.814 1.664a4.974 4.974 0 0 0 .337 3.5c.521 1.063 1.297 1.827 2.379 2.344 1.566.747 3.437.594 4.928-.405.405-.271 1.024-.89 1.295-1.295 1.164-1.739 1.164-3.909 0-5.648-.271-.405-.89-1.024-1.295-1.295a5.07 5.07 0 0 0-3.484-.835m-8.697 2.021C7.289 14.196 7 14.615 7 15c0 .405.293.811.677.939.304.101 1.035.073 1.267-.048.19-.1.402-.328.481-.517.071-.169.071-.579 0-.748a1.198 1.198 0 0 0-.481-.517c-.221-.116-1.027-.142-1.301-.042m9.938-.005a3 3 0 0 1 2.357 2.357c.427 2.063-1.456 3.946-3.519 3.519a2.993 2.993 0 0 1-2.357-2.357c-.376-1.817 1.04-3.558 2.91-3.578.171-.002.445.025.609.059m-.964.515c-.182.079-.41.293-.509.479-.083.154-.088.214-.086 1.004.002.786.008.855.096 1.079.128.324.424.618.743.739.184.07.355.095.742.112.619.026.842-.032 1.097-.288a.984.984 0 0 0 .001-1.403c-.155-.156-.455-.299-.623-.299-.059 0-.071-.056-.086-.39-.013-.296-.037-.429-.102-.554a1.196 1.196 0 0 0-.516-.481c-.166-.07-.596-.069-.757.002" fill="#10161F" fill-rule="evenodd"/></svg>