<svg xmlns="http://www.w3.org/2000/svg" width="24" height="24" viewBox="0 0 24 24" fill="none"><path d="M11.406 1.485c-.286.047-.761.241-1.04.424-.124.082-.55.466-.946.855-.396.388-.783.74-.86.781-.123.066-.272.077-1.26.099-.616.013-1.21.045-1.32.071-1.091.252-2.013 1.174-2.265 2.265-.026.11-.058.704-.071 1.32-.022.986-.033 1.137-.099 1.26-.041.077-.384.455-.763.84-.917.932-1.155 1.302-1.289 2.01-.076.397-.052 1.097.048 1.427.183.602.394.902 1.241 1.763.379.385.722.763.763.84.066.123.077.274.099 1.26.013.616.045 1.21.071 1.32.25 1.082 1.156 1.995 2.245 2.263.099.025.693.056 1.32.071 1.003.023 1.157.035 1.28.101.077.041.455.384.84.763.721.709.999.927 1.429 1.116.674.297 1.668.297 2.342 0 .43-.189.708-.407 1.429-1.116.385-.379.763-.722.84-.763.123-.066.274-.077 1.26-.099.616-.013 1.21-.045 1.32-.071 1.082-.25 1.995-1.156 2.263-2.245.025-.099.056-.693.071-1.32.023-1.003.035-1.157.101-1.28.041-.077.384-.455.763-.84.378-.385.746-.786.817-.89a3.028 3.028 0 0 0 .03-3.37c-.087-.132-.468-.555-.847-.94-.379-.385-.722-.763-.763-.84-.066-.123-.077-.274-.099-1.26-.013-.616-.045-1.21-.071-1.32-.252-1.091-1.174-2.013-2.265-2.265-.11-.026-.704-.058-1.32-.071-.986-.022-1.137-.033-1.26-.099-.077-.041-.455-.384-.84-.763-.756-.744-1.038-.959-1.49-1.14-.477-.191-1.134-.252-1.704-.157m.994 2.038c.122.056.406.304.88.772.722.713.889.848 1.303 1.056.463.234.612.256 1.877.284 1.287.028 1.315.033 1.593.312.278.277.283.306.312 1.593.028 1.265.051 1.415.284 1.877.208.414.343.581 1.056 1.303.759.769.853.911.853 1.28s-.094.511-.853 1.28c-.713.722-.848.889-1.056 1.303-.234.463-.256.612-.284 1.877-.028 1.287-.033 1.315-.312 1.593-.278.279-.306.284-1.593.312-1.265.028-1.414.05-1.877.284-.414.208-.581.343-1.303 1.056-.769.759-.911.853-1.28.853s-.511-.094-1.28-.853c-.738-.728-.921-.875-1.34-1.071-.485-.227-.589-.242-1.84-.269-1.287-.028-1.315-.033-1.593-.312-.279-.278-.284-.306-.312-1.593-.028-1.265-.05-1.414-.284-1.877-.208-.414-.343-.581-1.056-1.303-.759-.769-.853-.911-.853-1.28s.094-.511.853-1.28c.713-.722.848-.889 1.056-1.303.234-.463.256-.612.284-1.877.028-1.287.033-1.315.312-1.593.278-.279.306-.284 1.593-.312 1.251-.027 1.355-.042 1.84-.269.414-.194.596-.34 1.38-1.106.514-.503.783-.737.88-.768.232-.073.561-.059.76.031m3.124 5.203c-.162.047-.91.515-1.468.919-1.179.852-2.354 1.998-3.113 3.035l-.197.267a9.67 9.67 0 0 1-.466-.436c-.539-.518-1.263-1.12-1.484-1.233-.486-.248-1.09-.039-1.337.464-.054.11-.077.243-.078.438-.001.396.108.567.63.986.522.418 1.397 1.294 1.832 1.832.411.509.592.622.996.622a.855.855 0 0 0 .461-.103c.172-.088.24-.163.487-.54.756-1.153 1.239-1.758 1.979-2.481.698-.683 1.259-1.12 2.413-1.881.313-.206.374-.266.476-.464a.987.987 0 0 0-.591-1.412c-.224-.067-.343-.069-.54-.013" fill="#10161F" fill-rule="evenodd"/></svg>