<svg xmlns="http://www.w3.org/2000/svg" width="24" height="24" viewBox="0 0 24 24" fill="none"><path d="M11.244 1.482c-.68.178-.987.385-1.909 1.287-.399.39-.777.731-.84.759-.077.033-.49.057-1.255.074-1.06.023-1.163.031-1.465.124a3.072 3.072 0 0 0-2.112 2.322c-.047.23-.063.549-.063 1.256 0 .627-.016 1.002-.049 1.111-.038.131-.197.318-.77.905-.723.742-.942 1.018-1.123 1.414-.346.755-.346 1.777 0 2.532.18.393.396.665 1.122 1.412.572.587.732.776.771.907.032.108.049.476.049 1.08 0 .503.02 1.032.043 1.175a3.056 3.056 0 0 0 2.517 2.517c.143.023.672.043 1.175.043.604 0 .972.017 1.08.049.131.039.32.199.907.771.747.726 1.019.942 1.412 1.122.755.346 1.777.346 2.532 0 .393-.18.665-.396 1.412-1.122.587-.572.776-.732.907-.771.108-.032.476-.049 1.08-.049.503 0 1.032-.02 1.175-.043a3.056 3.056 0 0 0 2.517-2.517c.023-.143.043-.672.043-1.175 0-.604.017-.972.049-1.08.039-.131.199-.32.771-.907.927-.953 1.123-1.245 1.3-1.938a3.39 3.39 0 0 0 0-1.48c-.177-.694-.377-.992-1.301-1.94-.573-.587-.732-.774-.77-.905-.033-.109-.049-.484-.049-1.111 0-1.021-.041-1.35-.221-1.794a3.056 3.056 0 0 0-2.227-1.847c-.23-.047-.549-.063-1.256-.063-.627 0-1.002-.016-1.111-.049-.131-.038-.318-.197-.905-.77-.948-.924-1.246-1.124-1.94-1.301-.419-.107-1.083-.106-1.496.002m4.897 7.225c.428.145.734.623.687 1.073-.043.421-.216.629-.868 1.042-1.662 1.053-3.026 2.417-4.014 4.014-.151.244-.339.506-.418.583-.284.275-.786.344-1.16.157-.168-.083-.289-.202-.623-.61a13.883 13.883 0 0 0-1.797-1.785c-.459-.366-.586-.551-.617-.9-.034-.369.043-.58.307-.843.244-.243.421-.318.75-.318.378 0 .797.29 1.868 1.292l.476.445.104-.137a15.696 15.696 0 0 1 2.524-2.616c.603-.483 1.828-1.315 2.066-1.402.21-.077.481-.075.715.005" fill="#10161F" fill-rule="evenodd"/></svg>