<svg xmlns="http://www.w3.org/2000/svg" width="24" height="24" viewBox="0 0 24 24" fill="none"><path d="M11.28 2.024c-2.109.185-3.979.926-5.561 2.201-1.675 1.351-2.908 3.28-3.416 5.346-.216.881-.277 1.41-.277 2.429s.061 1.548.277 2.429c.886 3.607 3.839 6.502 7.457 7.311.844.189 1.287.236 2.24.236.953 0 1.396-.047 2.24-.236 3.618-.809 6.571-3.704 7.457-7.311.213-.869.276-1.413.278-2.409.001-.976-.043-1.404-.235-2.26-.458-2.049-1.658-4.025-3.26-5.369-1.824-1.531-3.915-2.321-6.26-2.368a15.89 15.89 0 0 0-.94.001m1.54 2.017c2.788.311 5.174 1.99 6.38 4.488a7.95 7.95 0 0 1-.001 6.945A8.02 8.02 0 0 1 12 19.999a8.014 8.014 0 0 1-7.2-4.528 7.948 7.948 0 0 1 0-6.942A7.973 7.973 0 0 1 8.529 4.8c1.323-.64 2.886-.916 4.291-.759m3.134 4.092c-.512.192-1.933 1.128-2.787 1.836-.805.667-1.809 1.764-2.425 2.647l-.261.374-.39-.398c-.717-.73-1.756-1.552-2.067-1.637-.2-.054-.57-.025-.728.057a1.21 1.21 0 0 0-.48.532.995.995 0 0 0-.049.426c.025.392.143.556.703.975.611.457 1.605 1.45 2.078 2.076.444.589.607.699 1.035.699.305 0 .533-.087.706-.27.058-.06.208-.29.334-.51 1.2-2.089 2.801-3.68 4.886-4.856.376-.212.581-.403.676-.63.071-.169.071-.579 0-.748a1.172 1.172 0 0 0-.478-.513c-.204-.104-.56-.132-.753-.06" fill="#10161F" fill-rule="evenodd"/></svg>