<svg xmlns="http://www.w3.org/2000/svg" width="24" height="24" viewBox="0 0 24 24" fill="none"><path d="M16.52 2.278c-.679.146-1.118.389-1.77.981-.587.534-1.302 1.304-1.514 1.632-.196.303-.38.752-.459 1.116-.076.351-.085 1.082-.018 1.414a3.8 3.8 0 0 0 .633 1.419c.167.223 1.362 1.426 1.649 1.66.67.549 1.351.791 2.218.788.7-.003 1.314-.176 1.85-.525.603-.392 1.969-1.793 2.238-2.297.223-.416.293-.603.377-1.006.203-.973-.032-2.047-.608-2.782-.237-.302-1.143-1.225-1.574-1.603a3.424 3.424 0 0 0-3.022-.797m-11.1.28a3.561 3.561 0 0 0-2.119 1.23c-.27.327-.541.844-.667 1.272-.091.309-.094.368-.094 1.7 0 1.338.003 1.389.094 1.68.328 1.045.95 1.773 1.898 2.222.516.245.82.299 1.828.325 1.005.025 1.766-.025 2.14-.141A3.53 3.53 0 0 0 10.846 8.5c.183-.588.205-2.699.035-3.36-.258-1.003-.989-1.89-1.896-2.3-.628-.284-.681-.292-2.085-.304-.704-.005-1.37.004-1.48.022m12.474 1.783c.181.09.396.278.942.823.882.883.944.986.944 1.576 0 .597-.061.704-.864 1.52-.356.362-.739.721-.851.798a1.44 1.44 0 0 1-1.448.101c-.21-.101-.378-.245-.953-.819-.774-.773-.921-.993-.969-1.447-.03-.285.062-.681.211-.913.145-.225 1.445-1.514 1.614-1.601.273-.141.454-.178.8-.166.279.01.382.033.574.128M7.52 4.515c.768.062 1.248.441 1.423 1.125.051.199.061.434.05 1.233-.013.986-.013.987-.126 1.231a1.698 1.698 0 0 1-.767.764l-.24.112h-1.1c-1.056 0-1.109-.004-1.328-.092a1.5 1.5 0 0 1-.757-.713c-.163-.33-.211-.823-.177-1.807.03-.842.081-1.014.408-1.368.293-.316.569-.45.993-.483a12.354 12.354 0 0 1 1.621-.002m-1.9 8.527a3.38 3.38 0 0 0-2.098 1.005c-.43.432-.686.868-.888 1.513-.091.291-.094.342-.094 1.68 0 1.332.003 1.391.094 1.7a3.57 3.57 0 0 0 2.426 2.426c.308.09.37.094 1.66.094 1.444 0 1.526-.009 2.079-.222.938-.362 1.681-1.16 2.028-2.178.217-.638.236-2.816.03-3.525a3.484 3.484 0 0 0-.894-1.498c-.609-.609-1.279-.921-2.139-.997a17.814 17.814 0 0 0-2.204.002m10.5 0c-.99.088-1.94.656-2.507 1.498-.521.773-.643 1.407-.6 3.1.026 1.008.08 1.312.325 1.828.449.948 1.177 1.57 2.222 1.898.291.091.342.094 1.68.094 1.332 0 1.391-.003 1.7-.094a3.57 3.57 0 0 0 2.426-2.426c.09-.308.094-.37.094-1.66 0-1.444-.009-1.526-.222-2.079-.294-.763-.912-1.434-1.678-1.821a3.12 3.12 0 0 0-1.24-.34 18.138 18.138 0 0 0-2.2.002m-8.016 2.091c.309.143.617.452.764.767l.112.24v1.1c0 1.056-.004 1.109-.092 1.328a1.505 1.505 0 0 1-.717.76c-.243.119-.311.133-.834.167-.35.023-.8.023-1.165 0-.693-.043-.9-.118-1.225-.442-.323-.324-.4-.535-.443-1.22-.053-.849.006-1.661.143-1.958.124-.269.346-.524.571-.656.329-.193.52-.217 1.622-.208l1.02.009.244.113m10.35-.052c.443.137.771.45.95.908.085.219.09.286.089 1.271 0 1.27-.022 1.356-.449 1.784-.377.377-.526.425-1.41.456-.985.036-1.479-.012-1.809-.175a1.5 1.5 0 0 1-.713-.757c-.088-.219-.092-.272-.092-1.328v-1.1l.112-.24c.193-.414.603-.759 1.018-.857.082-.019.576-.037 1.096-.039.844-.004.974.005 1.208.077" fill="#10161F" fill-rule="evenodd"/></svg>