<svg xmlns="http://www.w3.org/2000/svg" width="24" height="24" viewBox="0 0 24 24" fill="none"><path d="M11.52 1.563c-1.659.105-2.724.541-3.622 1.481a6.026 6.026 0 0 0-.471.562c-.224.316-.57 1.028-.521 1.073.019.017.444.167.944.333l.911.302.103-.219c.2-.422.667-.917 1.091-1.156.226-.128.616-.247 1.044-.32.586-.1 3.266-.156 5.065-.106 1.601.045 2.025.086 2.546.247.45.139.839.409 1.185.823.328.392.473.745.588 1.435.159.955.159 6.01 0 6.964-.074.444-.193.837-.32 1.061-.235.413-.69.848-1.119 1.069l-.257.132.302.908c.166.499.315.923.332.942.017.018.187-.039.377-.129 1.197-.56 2.127-1.63 2.476-2.845.254-.888.306-1.665.306-4.62 0-2.315-.035-3.247-.145-3.9-.18-1.068-.547-1.836-1.213-2.534-.943-.988-1.95-1.393-3.742-1.505-.737-.047-5.115-.045-5.86.002m-5 5c-1.574.1-2.578.482-3.456 1.316-.983.934-1.391 1.948-1.503 3.741-.053.829-.053 4.931 0 5.76.112 1.789.522 2.809 1.503 3.741.902.857 1.859 1.212 3.556 1.318.829.053 4.931.053 5.76 0 1.694-.106 2.633-.453 3.54-1.307.994-.934 1.406-1.952 1.519-3.752.053-.829.053-4.931 0-5.76-.106-1.694-.453-2.633-1.307-3.54-.934-.994-1.952-1.406-3.752-1.519-.737-.047-5.115-.045-5.86.002M11.4 8.52c1.875.057 2.412.179 3.017.685.57.476.821.947.966 1.813.159.955.159 6.01 0 6.964-.145.866-.396 1.337-.966 1.813-.392.328-.745.472-1.435.588-.954.159-6.009.159-6.964 0-.698-.117-1.06-.267-1.453-.602-.408-.349-.668-.725-.804-1.168-.162-.524-.203-.945-.248-2.549-.05-1.799.006-4.479.106-5.065.146-.859.415-1.354.981-1.808.412-.332.733-.46 1.438-.577.677-.111 3.285-.157 5.362-.094" fill="#10161F" fill-rule="evenodd"/></svg>