<svg xmlns="http://www.w3.org/2000/svg" width="24" height="24" viewBox="0 0 24 24" fill="none"><path d="M10.631 1.58c-1.79.301-3.311 1.632-3.891 3.404a3.8 3.8 0 0 0-.127.482l-.023.166-.245.047c-1.316.254-2.54 1.171-3.219 2.413-.319.583-.49 1.247-.564 2.186-.056.713-.056 6.731 0 7.444.074.939.245 1.603.564 2.186.551 1.008 1.531 1.866 2.545 2.227.409.146.98.254 1.607.303.698.055 4.746.055 5.444 0 .939-.074 1.603-.245 2.186-.564 1.242-.679 2.159-1.903 2.413-3.219l.047-.245.166-.023a3.8 3.8 0 0 0 .482-.127 5.046 5.046 0 0 0 3.243-3.239c.217-.67.221-.743.221-4.623 0-3.698-.021-4.342-.163-5.047a4.527 4.527 0 0 0-1.343-2.434c-.904-.868-1.797-1.241-3.252-1.355-.802-.063-5.696-.048-6.091.018m6.129 1.979c.743.087 1.225.271 1.647.63.468.397.763.84.908 1.362.164.593.183 1.079.184 4.809.001 4 .018 3.761-.321 4.46a2.938 2.938 0 0 1-.777.991c-.209.178-.634.427-.831.487l-.09.027v-2.754c0-3.422-.045-4.058-.345-4.9-.436-1.223-1.583-2.37-2.806-2.806-.778-.277-1.542-.345-3.9-.345H8.675l.027-.09c.06-.197.309-.622.488-.833a3.078 3.078 0 0 1 1.962-1.078c.381-.048 5.142-.014 5.608.04m-4 4.002c.943.106 1.501.386 2.047 1.028.382.45.552.913.64 1.742.074.696.074 6.646.001 7.338-.089.831-.265 1.309-.643 1.741-.589.676-1.107.928-2.125 1.036-.634.068-4.73.068-5.36.001-1.018-.109-1.565-.376-2.127-1.036-.364-.428-.546-.904-.634-1.651-.066-.571-.097-5.285-.042-6.56.048-1.121.073-1.343.201-1.76.228-.745.97-1.489 1.716-1.721.387-.12.718-.163 1.526-.2.957-.042 4.308-.013 4.8.042m-5.714 3.063c-.366.183-.547.516-.519.956a.929.929 0 0 0 .451.759l.196.121h4.652l.196-.121c.121-.075.242-.196.317-.317.109-.176.121-.229.121-.522 0-.293-.012-.346-.121-.522a1.042 1.042 0 0 0-.317-.317l-.196-.121-2.283-.011-2.284-.011-.213.106m0 5c-.366.183-.547.516-.519.956a.929.929 0 0 0 .451.759l.196.121h2.652l.196-.121c.121-.075.242-.196.317-.317.109-.176.121-.229.121-.522 0-.293-.012-.346-.121-.522a1.042 1.042 0 0 0-.317-.317l-.196-.121-1.283-.011-1.283-.012-.214.107" fill="#10161F" fill-rule="evenodd"/></svg>