<svg xmlns="http://www.w3.org/2000/svg" width="24" height="24" viewBox="0 0 24 24" fill="none"><path d="M9.58 1.565c-.815.102-1.522.486-1.935 1.051-.29.395-.47.779-.811 1.724l-.057.16-1.802.02-1.801.02-.196.121a1.042 1.042 0 0 0-.317.317c-.109.176-.121.229-.121.522 0 .293.012.346.121.522a.965.965 0 0 0 .696.449l.197.019.024.285c.014.157.141 2.166.283 4.465.288 4.645.351 5.564.441 6.376.187 1.672.598 2.625 1.507 3.488.919.874 1.823 1.226 3.422 1.335.763.052 4.775.052 5.538 0 1.599-.109 2.503-.461 3.422-1.335.719-.683 1.103-1.388 1.343-2.466.186-.833.239-1.49.605-7.398.142-2.299.269-4.308.283-4.465l.024-.285.197-.019a.965.965 0 0 0 .696-.449c.109-.176.121-.229.121-.522 0-.293-.012-.346-.121-.522a1.042 1.042 0 0 0-.317-.317l-.196-.121-1.801-.02-1.802-.02-.057-.16c-.407-1.129-.649-1.583-1.066-2-.44-.44-.996-.69-1.739-.779-.41-.05-4.38-.046-4.781.004m4.753 2.009c.145.035.279.1.355.171.117.11.392.618.392.724 0 .041-.606.051-3.08.051s-3.08-.01-3.08-.051c0-.099.27-.61.38-.719.234-.232.689-.269 3.1-.248 1.3.011 1.755.028 1.933.072m4.083 2.939c.016.027-.384 6.69-.536 8.927-.186 2.724-.327 3.378-.867 4.004-.486.565-.898.792-1.693.935-.91.164-5.73.164-6.64 0-.706-.127-1.109-.327-1.542-.765-.582-.59-.767-1.164-.917-2.854-.09-1.015-.662-10.207-.637-10.246.027-.044 12.805-.045 12.832-.001m-8.743 3.55c-.244.075-.523.351-.609.603-.056.165-.064.512-.064 2.834 0 2.994-.011 2.883.306 3.2.18.179.458.3.694.3.237 0 .514-.12.697-.303.311-.311.303-.229.303-3.197s.008-2.886-.303-3.197c-.279-.279-.63-.361-1.024-.24m4 0c-.244.075-.523.351-.609.603-.056.165-.064.512-.064 2.834 0 2.994-.011 2.883.306 3.2.18.179.458.3.694.3.237 0 .514-.12.697-.303.311-.311.303-.229.303-3.197s.008-2.886-.303-3.197c-.279-.279-.63-.361-1.024-.24" fill="#10161F" fill-rule="evenodd"/></svg>