<svg xmlns="http://www.w3.org/2000/svg" width="24" height="24" viewBox="0 0 24 24" fill="none"><path d="M11.499 3.04a3.042 3.042 0 0 0-2.374 2.099c-.083.273-.098.403-.098.861 0 .458.015.588.098.861.238.78.803 1.449 1.545 1.826l.33.168V11h-.582c-1.19 0-1.86.139-2.69.556-1.291.65-2.301 1.955-2.609 3.369-.045.204-.062.229-.183.266-.54.166-1.23.768-1.568 1.368-.255.455-.341.818-.341 1.441 0 .458.015.588.098.861a3.06 3.06 0 0 0 2.014 2.014c.273.083.403.098.861.098.458 0 .588-.015.861-.098a3.06 3.06 0 0 0 2.014-2.014c.083-.273.098-.403.098-.861 0-.458-.015-.588-.098-.861a3.084 3.084 0 0 0-1.468-1.788c-.343-.189-.341-.176-.087-.691.356-.724 1.037-1.296 1.84-1.546l.3-.094h5.08l.3.094c.803.25 1.484.822 1.84 1.546.254.515.256.502-.087.691a3.084 3.084 0 0 0-1.468 1.788c-.083.273-.098.403-.098.861 0 .458.015.588.098.861a3.06 3.06 0 0 0 2.014 2.014c.273.083.403.098.861.098.458 0 .588-.015.861-.098a3.06 3.06 0 0 0 2.014-2.014c.083-.273.098-.403.098-.861 0-.623-.086-.986-.341-1.441-.338-.6-1.028-1.202-1.568-1.368-.121-.037-.138-.062-.183-.266-.302-1.388-1.251-2.635-2.528-3.323-.828-.446-1.545-.602-2.771-.602H13V8.855l.33-.168a3.077 3.077 0 0 0 1.545-1.826c.083-.273.098-.403.098-.861 0-.458-.015-.588-.098-.861-.291-.956-1.071-1.734-2.014-2.01-.361-.106-1.029-.149-1.362-.089m1.013 2.107c.63.387.642 1.299.023 1.692a.998.998 0 0 1-1.394-.336c-.107-.174-.121-.232-.121-.5 0-.259.016-.33.111-.492a.955.955 0 0 1 .941-.496.836.836 0 0 1 .44.132m-6 12c.63.387.642 1.299.023 1.692a.998.998 0 0 1-1.394-.336c-.107-.174-.121-.232-.121-.5 0-.259.016-.33.111-.492a.955.955 0 0 1 .941-.496.836.836 0 0 1 .44.132m12 0c.63.387.642 1.299.023 1.692a.998.998 0 0 1-1.394-.336c-.107-.174-.121-.232-.121-.5 0-.259.016-.33.111-.492a.955.955 0 0 1 .941-.496.836.836 0 0 1 .44.132" fill="#10161F" fill-rule="evenodd"/></svg>