<svg xmlns="http://www.w3.org/2000/svg" width="24" height="24" viewBox="0 0 24 24" fill="none"><path d="M8.96 1.545c-.077.008-.365.033-.64.057-2.04.173-3.391.987-4.15 2.498-.303.604-.476 1.272-.577 2.22-.077.728-.077 10.685 0 11.38.173 1.55.609 2.587 1.418 3.367.808.779 1.805 1.183 3.309 1.341.716.075 6.653.074 7.36-.001 1.513-.16 2.501-.56 3.309-1.34.81-.781 1.254-1.841 1.418-3.387.077-.726.077-10.634 0-11.36-.16-1.506-.565-2.505-1.34-3.309-.765-.794-1.79-1.232-3.307-1.415-.354-.043-6.441-.089-6.8-.051m6.38 6.521c.369.126.66.538.66.934 0 .242-.119.521-.299.701-.311.312-.156.299-3.703.299-3.42 0-3.326.006-3.624-.222a1.19 1.19 0 0 1-.243-.289C8.036 9.328 8.02 9.256 8.02 9s.016-.328.111-.489c.125-.213.318-.375.539-.454.12-.043.775-.054 3.313-.055 2.842-.002 3.182.005 3.357.064m-3 5c.369.126.66.538.66.934s-.291.808-.66.934c-.279.095-3.395.1-3.662.005a.986.986 0 0 1-.547-.45c-.095-.161-.111-.233-.111-.489s.016-.328.111-.489c.061-.103.173-.236.25-.294.274-.209.313-.213 2.102-.215 1.446-.002 1.688.007 1.857.064" fill="#10161F" fill-rule="evenodd"/></svg>