<svg xmlns="http://www.w3.org/2000/svg" width="24" height="24" viewBox="0 0 24 24" fill="none"><path d="M8.825 1.564c-1.86.102-2.934.495-3.85 1.411-.939.939-1.304 1.964-1.413 3.965-.055.998-.055 9.122 0 10.12.109 2.001.474 3.026 1.413 3.965.939.939 1.964 1.304 3.965 1.413.975.053 5.128.054 6.12.001 1.282-.068 2.108-.242 2.84-.6a3.935 3.935 0 0 0 1.208-.892c.866-.912 1.229-1.972 1.331-3.887.053-.988.053-9.132 0-10.12-.068-1.282-.242-2.108-.6-2.84a4.27 4.27 0 0 0-2.13-2.033c-.7-.3-1.425-.439-2.649-.505-.874-.048-5.349-.046-6.235.002M15.2 3.563c.923.064 1.653.244 2.04.503.077.052.254.207.393.344.417.413.647.983.765 1.89.125.969.158 9.358.042 10.9-.07.935-.249 1.656-.506 2.04a2.716 2.716 0 0 1-.9.798c-.637.319-1.158.388-3.344.446-1.792.047-4.726-.001-5.41-.088-.769-.099-1.351-.306-1.705-.607-.586-.497-.845-1.059-.973-2.109-.159-1.298-.159-10.062 0-11.36.097-.799.301-1.383.609-1.745.5-.589 1.059-.846 2.129-.976.913-.111 5.416-.135 6.86-.036m-6.527 4.5C8.31 8.175 8 8.606 8 9c0 .405.309.826.69.939.307.091 6.313.091 6.62 0 .378-.112.69-.537.69-.939 0-.402-.312-.827-.69-.939-.297-.089-6.349-.086-6.637.002m0 5a.94.94 0 0 0-.366.236.96.96 0 0 0-.001 1.401c.294.293.342.3 2.194.3 1.856 0 1.9-.006 2.197-.303.183-.183.303-.46.303-.697 0-.402-.312-.827-.69-.939-.292-.087-3.354-.085-3.637.002" fill="#10161F" fill-rule="evenodd"/></svg>