<svg xmlns="http://www.w3.org/2000/svg" width="24" height="24" viewBox="0 0 24 24" fill="none"><path d="M11.673 2.063c-.261.08-.533.358-.612.627-.053.179-.061.901-.061 5.74v5.535l-.19-.132a7.57 7.57 0 0 1-.652-.593c-.54-.538-.886-1.031-1.308-1.863-.156-.308-.335-.612-.397-.675-.352-.355-1.012-.359-1.385-.007a1.272 1.272 0 0 0-.215.33c-.159.347-.124.565.2 1.224.906 1.848 2.117 3.098 3.867 3.988.86.438 1.3.438 2.16 0 1.755-.893 3.011-2.195 3.891-4.032.298-.621.331-.842.176-1.18a1.272 1.272 0 0 0-.215-.33c-.371-.35-1.002-.352-1.365-.003-.075.072-.258.374-.417.686-.423.832-.769 1.325-1.308 1.862a7.57 7.57 0 0 1-.652.593l-.19.132V8.43c0-6.237.022-5.802-.303-6.127-.279-.279-.63-.361-1.024-.24m-8 12.998c-.273.087-.534.363-.618.651-.056.192-.062.346-.04 1.007.035 1.019.093 1.696.185 2.143.296 1.444 1.057 2.345 2.346 2.776.925.309 1.866.361 6.454.361 5.185.001 5.938-.062 6.98-.581a3.037 3.037 0 0 0 1.412-1.378c.399-.756.531-1.493.593-3.321.022-.661.016-.815-.04-1.007-.152-.525-.759-.839-1.269-.657a1.1 1.1 0 0 0-.547.46c-.105.179-.108.203-.135 1.08-.042 1.403-.114 1.95-.311 2.386-.266.587-.7.821-1.756.948-.615.074-9.239.074-9.854 0-1.552-.187-1.904-.612-2.032-2.449a20.768 20.768 0 0 1-.042-1.12c-.003-.584-.039-.747-.216-.979-.24-.315-.706-.45-1.11-.32" fill="#10161F" fill-rule="evenodd"/></svg>