<svg xmlns="http://www.w3.org/2000/svg" width="24" height="24" viewBox="0 0 24 24" fill="none"><path d="M11.516 1.577a1.707 1.707 0 0 0-.878.803l-.098.2-.01 5.153c-.007 3.261-.025 5.149-.049 5.14-.069-.023-.441-.485-.688-.852a10.1 10.1 0 0 1-.516-.907c-.151-.302-.33-.612-.398-.689-.702-.8-2.024-.607-2.466.36a1.575 1.575 0 0 0-.128.861c.073.463.707 1.654 1.306 2.456.808 1.08 1.836 1.936 3.095 2.579.574.293.824.362 1.314.362.49 0 .74-.069 1.314-.362 1.259-.643 2.287-1.499 3.095-2.579.599-.802 1.233-1.993 1.306-2.456a1.575 1.575 0 0 0-.128-.861c-.442-.967-1.764-1.16-2.466-.36-.068.077-.242.377-.387.667-.145.291-.345.654-.444.808-.207.323-.728.98-.776.98-.018 0-.038-2.317-.043-5.15l-.011-5.15-.098-.2a1.792 1.792 0 0 0-.709-.722c-.198-.1-.282-.117-.611-.126-.253-.007-.431.008-.526.045m-8 13.002a1.692 1.692 0 0 0-.878.801c-.097.197-.098.213-.097 1.26.002 1.488.108 2.342.382 3.095.378 1.037 1.091 1.802 2.077 2.228.654.283 1.275.41 2.32.476.868.054 8.492.054 9.36 0 .716-.045 1.218-.118 1.669-.243 1.576-.436 2.549-1.477 2.913-3.116.144-.649.195-1.285.197-2.44.001-1.045 0-1.063-.097-1.26a1.793 1.793 0 0 0-.711-.723c-.312-.158-.839-.187-1.163-.064a1.575 1.575 0 0 0-.887.876c-.06.157-.082.396-.116 1.292-.083 2.147-.222 2.435-1.267 2.619-.519.091-2.274.138-5.218.138-2.938 0-4.699-.047-5.215-.138-1.048-.184-1.187-.47-1.27-2.619-.034-.896-.056-1.135-.116-1.292a1.575 1.575 0 0 0-.877-.872c-.241-.091-.781-.101-1.006-.018" fill="#10161F" fill-rule="evenodd"/></svg>