<svg xmlns="http://www.w3.org/2000/svg" width="24" height="24" viewBox="0 0 24 24" fill="none"><path d="M8.3 2.546c-2.267.137-3.355.489-4.289 1.388-.827.794-1.235 1.838-1.419 3.626-.074.714-.074 8.166 0 8.88.18 1.748.549 2.725 1.342 3.549.794.827 1.838 1.235 3.626 1.419.714.074 8.166.074 8.88 0 1.748-.18 2.725-.549 3.549-1.342.676-.65 1.107-1.562 1.307-2.766.141-.844.162-1.341.163-3.743l.001-2.383-.121-.196a1.02 1.02 0 0 0-.317-.317c-.176-.109-.229-.121-.522-.121-.293 0-.346.012-.522.121a1.042 1.042 0 0 0-.317.317l-.121.196-.028 2.043c-.039 2.883-.1 3.645-.356 4.446-.117.369-.329.742-.54.953-.473.474-1.268.718-2.696.831-.859.067-6.985.067-7.84 0-1.165-.092-1.902-.27-2.343-.565-.301-.2-.329-.225-.503-.442-.38-.474-.577-1.203-.681-2.52-.068-.86-.068-6.985 0-7.84.166-2.097.582-2.849 1.787-3.236.794-.255 1.565-.317 4.443-.356l2.043-.028.196-.121c.121-.075.242-.196.317-.317.109-.176.121-.229.121-.522 0-.293-.012-.346-.121-.522a1.042 1.042 0 0 0-.317-.317l-.196-.121-2.163-.003c-1.19-.002-2.253.002-2.363.009m11.34.522c-.157.053-.833.714-5.345 5.226-4.753 4.753-5.171 5.182-5.23 5.363A1.353 1.353 0 0 0 9 14c0 .405.309.826.69.939.258.077.362.077.633-.002.212-.062.331-.177 5.384-5.23 5.053-5.053 5.168-5.172 5.23-5.384.079-.271.079-.375.002-.633-.155-.523-.752-.809-1.299-.622" fill="#10161F" fill-rule="evenodd"/></svg>