<svg xmlns="http://www.w3.org/2000/svg" width="24" height="24" viewBox="0 0 24 24" fill="none"><path d="M10.995 2.044C7.799 2.29 5.173 3.742 3.589 6.14c-.297.449-.774 1.425-.968 1.98-.441 1.259-.657 2.799-.606 4.32.065 1.937.382 3.346 1.068 4.746 1.009 2.059 2.727 3.493 5.089 4.248 2.316.741 5.34.741 7.656 0 3.049-.974 5.023-3.087 5.807-6.214.285-1.133.424-2.873.33-4.11-.205-2.691-1.084-4.761-2.704-6.37-1.99-1.977-4.972-2.95-8.266-2.696m2.485 2.055c2.379.366 4.155 1.433 5.29 3.181.986 1.519 1.399 3.62 1.172 5.961-.326 3.358-1.954 5.476-4.882 6.35-1.825.545-4.295.545-6.12 0-2.832-.846-4.432-2.838-4.859-6.051-.083-.624-.095-2.026-.024-2.7.297-2.799 1.634-4.85 3.883-5.959.93-.458 1.823-.696 3.22-.857.328-.038 1.921.013 2.32.075M8.673 7.063c-.244.075-.523.351-.609.603-.094.277-.094 2.391 0 2.668.124.363.549.666.936.666.237 0 .514-.12.697-.303C9.98 10.414 10 10.303 10 9s-.02-1.414-.303-1.697c-.279-.279-.63-.361-1.024-.24m5.967.006c-.144.05-.315.197-.844.727C13.091 8.501 13 8.639 13 9s.091.499.796 1.206c.606.607.683.671.881.73.27.08.374.08.633.003.378-.112.69-.537.69-.939 0-.244-.119-.505-.343-.752L15.433 9l.224-.248c.325-.358.403-.654.282-1.062-.155-.524-.754-.81-1.299-.621m-6.2 4.975c-.486.095-1.013.509-1.244.977-.181.368-.224.732-.163 1.389.026.292.081.656.121.81.624 2.398 2.885 3.99 5.316 3.744.961-.097 1.703-.38 2.502-.955.726-.523 1.415-1.441 1.718-2.289.239-.673.361-1.596.282-2.142-.109-.762-.71-1.4-1.447-1.538-.269-.05-6.827-.046-7.085.004m6.544 2.258c-.108 1.187-.961 2.216-2.144 2.584-.434.135-1.246.135-1.68 0-1.183-.368-2.036-1.397-2.144-2.584L8.989 14h6.022l-.027.302" fill="#10161F" fill-rule="evenodd"/></svg>