<svg xmlns="http://www.w3.org/2000/svg" width="24" height="24" viewBox="0 0 24 24" fill="none"><path d="M9.48 2.565c-1.414.09-2.396.329-3.17.771-1.102.628-1.754 1.609-2.049 3.08-.208 1.041-.26 2.147-.26 5.584s.052 4.543.26 5.584c.447 2.231 1.773 3.415 4.205 3.752.711.099 1.918.151 3.177.137l1.183-.013.196-.121c.284-.175.432-.432.452-.785.013-.237 0-.305-.094-.497a.941.941 0 0 0-.576-.497c-.079-.021-.864-.057-1.744-.079-1.703-.044-2.232-.082-2.787-.202-1.441-.31-1.964-1.003-2.183-2.893-.061-.536-.07-1.043-.07-4.386s.009-3.85.07-4.386c.219-1.89.742-2.583 2.183-2.893.555-.12 1.084-.158 2.787-.202.88-.022 1.665-.058 1.744-.079a.941.941 0 0 0 .576-.497c.094-.192.107-.26.094-.497-.02-.353-.168-.61-.452-.785l-.196-.121-1.403-.005a41.48 41.48 0 0 0-1.943.03m7.749 5.652c-.414.111-.71.511-.708.958a.952.952 0 0 0 .244.666c.052.056.284.23.515.388.231.158.542.395.691.528l.271.241-3.011.011c-3 .011-3.012.011-3.171.097-.359.194-.54.495-.54.894s.181.7.54.894c.159.086.171.086 3.167.097l3.007.011-.187.171a6.835 6.835 0 0 1-.887.685 3.227 3.227 0 0 0-.413.315 1.05 1.05 0 0 0-.132 1.09c.186.4.638.632 1.058.544.762-.159 2.787-2.009 3.27-2.987.162-.328.218-.688.171-1.09-.044-.369-.234-.736-.646-1.25-.768-.957-2.213-2.154-2.748-2.277-.223-.051-.254-.05-.491.014" fill="#10161F" fill-rule="evenodd"/></svg>