<svg xmlns="http://www.w3.org/2000/svg" width="24" height="24" viewBox="0 0 24 24" fill="none"><path d="M9.96 2.04c-2.533.112-3.893.576-4.94 1.683-.832.88-1.256 2.016-1.427 3.817-.076.802-.076 8.118 0 8.92.136 1.435.434 2.434.972 3.26.224.343.864.978 1.216 1.207.777.505 1.659.794 2.851.934.698.081 2.494.15 3.443.132.758-.015.793-.019 1.029-.127.31-.142.617-.45.762-.766.095-.206.111-.292.111-.6s-.016-.394-.111-.6a1.662 1.662 0 0 0-.762-.765l-.244-.111-1.496-.03c-1.659-.033-2.355-.079-2.927-.195-1.354-.274-1.717-.831-1.883-2.883-.069-.856-.069-6.976 0-7.832.166-2.052.529-2.609 1.883-2.883.572-.116 1.268-.162 2.927-.195l1.496-.03.244-.111c.31-.141.617-.449.762-.765.095-.206.111-.292.111-.6s-.016-.394-.111-.6a1.68 1.68 0 0 0-.762-.767l-.244-.113-1.1-.005a46.469 46.469 0 0 0-1.8.025m7.101 5.707c-.252.077-.583.295-.72.475a2.497 2.497 0 0 0-.213.369c-.092.195-.108.279-.105.569.005.497.111.744.466 1.09l.277.27-2.293.001-2.293.001-.227.093a1.48 1.48 0 0 0-.914 1.672c.087.488.428.898.914 1.098l.227.093 2.293.001 2.293.001-.277.27c-.356.346-.461.593-.466 1.09-.003.364.062.568.285.891.32.464 1.056.702 1.635.53.216-.064.811-.444 1.315-.84.916-.718 1.885-1.816 2.178-2.467a2.39 2.39 0 0 0-.009-1.931c-.208-.453-.892-1.301-1.53-1.896-.625-.584-1.571-1.254-1.951-1.383-.234-.079-.622-.078-.885.003" fill="#10161F" fill-rule="evenodd"/></svg>