<svg xmlns="http://www.w3.org/2000/svg" width="24" height="24" viewBox="0 0 24 24" fill="none"><path d="M10.64 4.584c-4.183.499-7.851 3.288-8.544 6.496-.101.468-.101 1.372 0 1.84.632 2.928 3.751 5.539 7.564 6.335 1.457.304 3.223.304 4.68 0 3.154-.658 5.86-2.549 7.06-4.935.42-.836.576-1.465.576-2.32 0-.855-.156-1.484-.576-2.32-1.342-2.666-4.547-4.688-8.08-5.097-.664-.077-2.033-.077-2.68.001m2.4 1.979c2.175.231 4.231 1.217 5.639 2.704 1.295 1.369 1.623 2.737.978 4.082-.779 1.623-2.72 3.101-4.917 3.745-1.55.454-3.216.52-4.743.188-1.878-.409-3.473-1.279-4.676-2.549-1.295-1.369-1.623-2.737-.978-4.082.592-1.232 1.987-2.507 3.522-3.215 1.671-.773 3.389-1.062 5.175-.873M11.499 9.04a3.042 3.042 0 0 0-2.374 2.099c-.083.273-.098.403-.098.861 0 .458.015.588.098.861a3.06 3.06 0 0 0 2.014 2.014c.273.083.403.098.861.098.458 0 .588-.015.861-.098a3.06 3.06 0 0 0 2.014-2.014c.083-.273.098-.403.098-.861 0-.458-.015-.588-.098-.861-.291-.956-1.071-1.734-2.014-2.01-.361-.106-1.029-.149-1.362-.089m1.013 2.107c.63.387.642 1.299.023 1.692a.998.998 0 0 1-1.394-.336c-.107-.174-.121-.232-.121-.5 0-.259.016-.33.111-.492a.955.955 0 0 1 .941-.496.836.836 0 0 1 .44.132" fill="#10161F" fill-rule="evenodd"/></svg>