<svg xmlns="http://www.w3.org/2000/svg" width="24" height="24" viewBox="0 0 24 24" fill="none"><path d="M3.667 8.065c-.412.126-.708.603-.654 1.055.03.261.351 1.129.627 1.7.195.403.349.669.734 1.269.038.06-.055.169-.642.76-.744.749-.85.904-.851 1.251-.001.328.067.493.296.723.23.229.395.297.723.296.343-.001.504-.109 1.206-.806.444-.442.663-.632.698-.61.029.017.188.141.354.275a9.767 9.767 0 0 0 2.071 1.233c.158.067.243.125.231.158-.126.357-.42 1.589-.419 1.758.001.231.107.512.251.665.313.334.892.402 1.274.149.285-.189.354-.329.599-1.229.126-.461.235-.845.242-.851.007-.007.22.012.473.042.589.07 1.65.07 2.24 0 .295-.035.469-.04.484-.015.014.021.119.391.233.821.217.814.307 1.013.532 1.185.191.146.341.194.611.195.409.001.719-.19.885-.547.144-.309.126-.527-.12-1.435l-.215-.794.245-.104c.693-.295 1.656-.878 2.172-1.316.138-.117.264-.213.28-.213.017 0 .319.287.672.638.697.692.858.8 1.201.801.328.001.493-.067.723-.296.229-.23.297-.395.296-.723-.001-.346-.107-.503-.841-1.241-.373-.375-.678-.696-.678-.713 0-.017.07-.133.155-.258C20.294 11.093 21 9.459 21 9.005 21 8.473 20.53 8 20 8c-.387 0-.802.289-.928.647-.345.979-.496 1.324-.799 1.829-1.053 1.756-2.696 2.906-4.792 3.354-.463.099-.574.108-1.461.109-.839.001-1.015-.01-1.402-.089-1.607-.326-2.875-1.004-3.919-2.095-.763-.798-1.259-1.632-1.663-2.795-.145-.417-.201-.527-.338-.664-.273-.273-.633-.354-1.031-.231" fill="#10161F" fill-rule="evenodd"/></svg>