<svg xmlns="http://www.w3.org/2000/svg" width="24" height="24" viewBox="0 0 24 24" fill="none"><path d="M3.743 5.624a3.05 3.05 0 0 0-1.033.514c-.606.481-.948 1.185-1.092 2.249-.102.756-.155 3.374-.103 5.189.061 2.187.127 2.634.493 3.38.26.528.611.897 1.1 1.155.959.505 1.884.438 3.191-.23.819-.419 3.271-1.911 3.95-2.405.149-.108.286-.196.305-.196.019 0 .047.131.061.291.044.485.174.943.392 1.385.261.528.613.898 1.101 1.155.888.468 1.772.44 2.912-.089 1.003-.467 4.173-2.441 5.41-3.369.909-.682 1.356-1.257 1.549-1.993.076-.288.086-.925.02-1.248-.11-.54-.521-1.194-1.032-1.645-1.124-.99-5.232-3.553-6.402-3.994-.569-.214-1.282-.274-1.804-.151a2.785 2.785 0 0 0-1.462.928c-.353.446-.62 1.176-.683 1.87-.02.219-.041.299-.078.285a3.885 3.885 0 0 1-.324-.214C9.437 7.938 7.037 6.48 6.28 6.1c-.556-.279-.881-.404-1.248-.482-.346-.072-.976-.07-1.289.006M4.76 7.608c.527.158 3.169 1.714 4.418 2.603.878.626 1.169 1.109 1.135 1.885-.039.892-.463 1.315-2.713 2.713-1.416.88-2.411 1.431-2.834 1.57-.419.137-.824.014-.986-.299-.191-.369-.256-1.123-.286-3.34-.024-1.734.023-3.482.111-4.147.119-.889.47-1.189 1.155-.985m9 0c.787.235 5.013 2.869 5.893 3.673.537.49.536.964-.002 1.439-.747.66-4.106 2.808-5.391 3.449-.618.308-.998.349-1.277.136-.375-.286-.451-.841-.489-3.565-.024-1.734.023-3.482.111-4.147.119-.889.47-1.189 1.155-.985" fill="#10161F" fill-rule="evenodd"/></svg>