<svg xmlns="http://www.w3.org/2000/svg" width="24" height="24" viewBox="0 0 24 24" fill="none"><path d="M8.24 1.546c-.775.064-1.489.237-1.969.478-1.129.565-2.084 1.648-2.466 2.796-.248.745-.258.895-.275 4.19L3.515 12H5.48l.001-2.17c.001-2.37.043-3.62.137-4.076.205-.994 1.127-1.922 2.122-2.135.413-.089 2.446-.165 2.92-.109.745.087 1.346.506 1.641 1.145.176.379.217.673.218 1.537.001.833.055 1.121.304 1.628a2.882 2.882 0 0 0 1.357 1.357c.507.249.795.303 1.628.304.381 0 .815.018.965.04.893.129 1.588.847 1.713 1.768.056.41.019 5.252-.046 5.971-.085.943-.243 1.583-.48 1.94a3.359 3.359 0 0 1-.347.41c-.685.693-1.366.837-4.243.894l-1.37.028v1.958l1.67-.022c1.708-.021 2.154-.05 2.89-.188 1.104-.207 1.906-.636 2.608-1.395.727-.787 1.04-1.581 1.237-3.145.066-.524.096-8.064.035-8.598-.15-1.294-.736-2.654-1.561-3.623-.354-.416-1.524-1.602-2.098-2.128-1.03-.942-2.097-1.483-3.501-1.776-.3-.063-.606-.072-2.6-.077-1.243-.004-2.341 0-2.44.008m6.362 2.678c.164.101.415.279.558.397.409.335 2.206 2.171 2.407 2.459.221.316.409.638.386.66-.009.01-.106-.01-.215-.044-.438-.135-.788-.176-1.5-.176-.393 0-.805-.02-.917-.043a.988.988 0 0 1-.701-.537l-.12-.24-.025-.96c-.024-.935-.064-1.232-.218-1.634-.039-.102.023-.081.345.118M6.569 14.285c-.389.192-.617.65-.533 1.069.048.24.185.481.333.584.05.036.307.207.571.38.264.173.57.397.68.497l.2.181-2.483.002c-2.803.002-2.732-.005-3.038.301a.984.984 0 0 0 0 1.402c.306.306.235.299 3.038.301l2.483.002-.2.181c-.11.1-.416.324-.68.497-.264.173-.521.344-.571.38-.148.103-.285.344-.333.584-.085.421.147.882.537 1.07.244.119.621.114.887-.01.316-.148 1.127-.708 1.509-1.042.624-.546 1.376-1.487 1.642-2.055.111-.236.126-.311.126-.614 0-.317-.012-.369-.147-.64-.303-.608-1-1.476-1.621-2.019-.382-.334-1.193-.894-1.509-1.042-.267-.125-.649-.129-.891-.009" fill="#10161F" fill-rule="evenodd"/></svg>