<svg xmlns="http://www.w3.org/2000/svg" width="24" height="24" viewBox="0 0 24 24" fill="none"><path d="M8.24 1.546c-.775.064-1.489.237-1.969.478-1.129.565-2.084 1.647-2.466 2.796-.27.811-.265.671-.265 6.84 0 4.354.012 5.664.053 6.04.172 1.556.519 2.428 1.287 3.236.855.899 1.783 1.296 3.44 1.471.712.075 6.648.075 7.36 0 1.677-.177 2.628-.592 3.488-1.522.727-.787 1.04-1.581 1.237-3.145.066-.524.096-8.064.035-8.598-.15-1.294-.736-2.654-1.561-3.623-.354-.416-1.524-1.602-2.098-2.128-1.03-.942-2.097-1.483-3.501-1.776-.3-.063-.606-.072-2.6-.077-1.243-.004-2.341 0-2.44.008m2.533 1.975a2.053 2.053 0 0 1 1.706 1.706c.022.15.04.584.04.965.001.833.055 1.121.304 1.628.392.799 1.162 1.412 2.005 1.597.199.044.501.063.98.064.381 0 .815.018.965.04.893.129 1.588.847 1.713 1.768.056.411.019 5.253-.046 5.971-.117 1.299-.306 1.836-.83 2.353-.309.306-.531.447-.891.567-.801.267-1.511.315-4.719.315s-3.918-.048-4.719-.315c-.36-.12-.582-.261-.891-.567-.52-.513-.705-1.033-.832-2.333-.029-.292-.052-2.077-.066-4.9-.021-4.569.008-6.074.127-6.64.21-.994 1.138-1.915 2.141-2.124.507-.106 2.503-.169 3.013-.095m3.829.703c.164.101.415.279.558.397.409.335 2.206 2.171 2.407 2.459.221.316.409.638.386.66-.009.01-.106-.01-.215-.044-.438-.135-.788-.176-1.5-.176-.393 0-.805-.02-.917-.043a.988.988 0 0 1-.701-.537l-.12-.24-.025-.96c-.024-.935-.064-1.232-.218-1.634-.039-.102.023-.081.345.118m-2.945 6.752c-.241.059-.719.31-1.082.569-.583.416-1.111 1.052-1.465 1.765-.194.389-.21.444-.21.706 0 .238.018.314.111.473.321.545 1.03.672 1.518.27.087-.072.205-.243.298-.429l.153-.31.02 1.62c.02 1.598.021 1.623.114 1.81a.988.988 0 0 0 1.211.489.982.982 0 0 0 .561-.489c.093-.187.094-.212.114-1.806l.02-1.616.153.306c.09.18.212.354.298.424a1.003 1.003 0 0 0 1.518-.269c.093-.159.111-.234.111-.475 0-.267-.015-.315-.218-.717-.483-.956-1.124-1.618-2.042-2.108-.484-.258-.778-.311-1.183-.213" fill="#10161F" fill-rule="evenodd"/></svg>