<svg xmlns="http://www.w3.org/2000/svg" width="24" height="24" viewBox="0 0 24 24" fill="none"><path d="M10.991 2.774a2.25 2.25 0 0 0-.988.734c-.11.15-.271.455-.381.725-.676 1.646-1.73 3.099-3.262 4.492-1.719 1.565-2.669 2.893-3.178 4.445-.252.768-.318 1.192-.319 2.03 0 .787.058 1.192.262 1.829.678 2.125 2.44 3.836 4.775 4.639.39.134.483.151.82.15.338-.001.405-.013.611-.116.285-.143.56-.431.701-.733.153-.331.153-.819-.002-1.269-.407-1.183-.268-2.144.445-3.088.264-.349.993-1.062 1.063-1.04.023.007.169.204.325.437s.438.628.626.878c.592.784.733 1.122.776 1.853.017.292.001.573-.061 1.043-.094.724-.076.957.102 1.309.305.601.893.896 1.574.788 1.156-.182 2.405-.64 3.24-1.189 1.609-1.057 2.518-2.64 2.807-4.891.075-.577.063-1.934-.021-2.418-.326-1.887-1.298-3.949-2.816-5.972-.57-.761-.878-1.013-1.375-1.128-.486-.112-1.168.03-1.486.31-.09.079-.114.05-.227-.272-.353-1.004-1.043-2.077-1.877-2.916-.31-.314-.449-.421-.703-.547-.299-.148-.339-.157-.739-.168-.366-.01-.459.002-.692.085" fill="#10161F" fill-rule="evenodd"/></svg>