<svg xmlns="http://www.w3.org/2000/svg" width="24" height="24" viewBox="0 0 24 24" fill="none"><path d="M5.96 3.04c-1.241.062-1.918.241-2.545.672-.767.525-1.183 1.342-1.34 2.628-.062.501-.096 10.244-.039 11.253.022.412.068.875.1 1.03.265 1.256.985 1.976 2.241 2.241.582.122 1.714.141 7.563.126 4.431-.012 5.894-.028 6.2-.067 1.987-.257 2.86-1.091 3.652-3.49.567-1.715 1.213-4.006 1.346-4.769.078-.445.079-1.118.002-1.484-.119-.571-.549-1.235-.968-1.499l-.158-.098-.046-.462c-.102-1.002-.45-1.734-1.164-2.443-.554-.55-1.051-.84-1.803-1.05-.29-.081-.41-.085-3.281-.107-2.734-.021-2.993-.028-3.139-.093-.216-.097-.243-.124-.821-.829-.707-.863-1.042-1.151-1.6-1.376-.449-.181-.557-.192-2.1-.203a51.934 51.934 0 0 0-2.1.02m3.383 2.019c.207.061.411.244.782.701.779.958.991 1.157 1.505 1.415.577.29.426.277 3.71.307 2.123.018 3.011.039 3.14.074a2.107 2.107 0 0 1 1.44 1.399c0 .06-.483.065-5.75.065-4.553 0-5.85.011-6.23.054-2.002.224-2.922 1.066-3.7 3.386l-.242.72.016-3.28c.014-2.85.025-3.324.082-3.617.147-.745.369-.996 1.013-1.147.401-.094.989-.124 2.594-.13 1.163-.005 1.481.005 1.64.053m10.937 6.016c1.033.182 1.123.445.703 2.062a79.85 79.85 0 0 1-.93 3.183c-.647 2.058-.897 2.392-1.936 2.589-.351.066-.787.071-6.217.071-5.258 0-5.876-.007-6.206-.066-.47-.085-.709-.191-.813-.361-.109-.18-.108-.63.003-1.144.175-.808 1.125-4.006 1.439-4.841.43-1.146.81-1.431 2.037-1.528.633-.051 11.618-.018 11.92.035" fill="#10161F" fill-rule="evenodd"/></svg>