<svg width="24" height="24" viewBox="0 0 24 24" fill="none" xmlns="http://www.w3.org/2000/svg"><path d="M10.84 6.026c-1.118.107-1.908.284-2.767.618a9.511 9.511 0 0 0-5.015 4.523c-.682 1.339-1.025 2.689-1.034 4.073-.005.614.04.752.321.999.205.18.37.241.655.241.285 0 .45-.061.655-.241.255-.224.314-.39.348-.984.064-1.125.279-2.013.711-2.947.707-1.526 2.069-2.888 3.598-3.595 1.642-.761 3.532-.918 5.208-.434a7.5 7.5 0 0 1 3.255 1.899c.52.517 1.038 1.203 1.343 1.778l.051.096-.43-.027c-1.078-.07-2.378-.411-3.399-.89-.278-.131-.359-.151-.62-.153-.258-.002-.326.014-.489.109-.332.195-.545.618-.495.983.033.243.207.543.385.667.558.386 2.288.968 3.439 1.155.865.141 2.316.192 2.933.103.76-.11 1.08-.479 1.558-1.799.424-1.173.625-2.284.656-3.64.025-1.043-.022-1.674-.139-1.905a.985.985 0 0 0-1.363-.434.927.927 0 0 0-.448.479c-.034.084-.05.51-.054 1.42-.005 1.152-.016 1.352-.093 1.755-.047.25-.093.461-.101.47-.008.008-.111-.123-.228-.292a9.94 9.94 0 0 0-2.765-2.618c-.443-.275-1.444-.755-1.896-.908-1.197-.406-2.696-.605-3.78-.501" fill="#10161F" fill-rule="evenodd"/></svg>