<svg width="24" height="24" viewBox="0 0 24 24" fill="none" xmlns="http://www.w3.org/2000/svg"><path d="M16.68 2.643c-.797.079-1.949.35-2.233.525-.191.118-.355.363-.411.615-.131.586.262 1.131.867 1.202.155.019.3-.004.639-.099a6.603 6.603 0 0 1 1.798-.273l.64-.021-2.665 2.674c-2.957 2.967-2.82 2.805-2.788 3.308.032.509.39.867.899.899.503.032.342.168 3.298-2.781l2.664-2.658.023.279c.042.503-.074 1.383-.274 2.073-.144.496-.157.646-.08.911.172.592.836.862 1.41.575.269-.134.399-.317.534-.752a9.035 9.035 0 0 0 .117-4.848c-.157-.615-.41-.975-.838-1.192-.253-.128-.871-.286-1.48-.38-.513-.078-1.605-.108-2.12-.057m-6.6 9.958c-.136.062-.828.73-2.824 2.725l-2.644 2.641-.026-.253c-.048-.478.073-1.398.278-2.103.143-.493.156-.643.079-.908a.856.856 0 0 0-.238-.4.987.987 0 0 0-1.407-.004c-.147.148-.193.235-.296.568a9.014 9.014 0 0 0-.118 4.869c.155.609.409.967.841 1.186.239.121.782.271 1.375.379.497.09 1.799.124 2.316.061.939-.116 1.983-.395 2.224-.596.528-.437.433-1.335-.173-1.638-.304-.152-.517-.155-.992-.016-.228.068-.554.151-.725.186-.576.117-1.482.181-1.65.116-.051-.019.565-.659 2.591-2.69 2.95-2.956 2.814-2.795 2.782-3.298a.925.925 0 0 0-.45-.764 1.086 1.086 0 0 0-.943-.061" fill="#10161F" fill-rule="evenodd"/></svg>