<svg xmlns="http://www.w3.org/2000/svg" width="24" height="24" viewBox="0 0 24 24" fill="none"><path d="M7.6 2.584a1.13 1.13 0 0 0-.491.476c-.071.136-.088.264-.113.84-.022.526-.049.744-.116.96a3.094 3.094 0 0 1-2.02 2.02c-.216.067-.434.094-.96.116-.753.033-.877.069-1.128.33-.176.184-.252.388-.252.674 0 .4.184.704.54.891.302.16 1.461.132 2.18-.052 1.761-.45 3.161-1.866 3.615-3.659.169-.665.189-1.831.036-2.12a1.111 1.111 0 0 0-.5-.478c-.188-.079-.608-.078-.791.002m8 0a1.135 1.135 0 0 0-.491.476c-.16.303-.132 1.464.052 2.18a5.052 5.052 0 0 0 3.599 3.599c.416.107 1.118.173 1.608.153.472-.019.653-.089.871-.337.18-.205.241-.37.241-.655 0-.285-.061-.45-.241-.655-.242-.275-.374-.316-1.139-.349-.526-.022-.744-.049-.96-.116a3.094 3.094 0 0 1-2.02-2.02c-.067-.216-.094-.434-.116-.96-.025-.576-.042-.704-.113-.84a1.101 1.101 0 0 0-.5-.478c-.188-.079-.608-.078-.791.002M3.24 15.037a1.075 1.075 0 0 0-.658.572A1.256 1.256 0 0 0 2.52 16c0 .286.076.49.252.674.251.261.375.297 1.128.33.526.022.744.049.96.116.959.3 1.72 1.061 2.02 2.02.067.216.094.434.116.96.025.578.042.704.114.844.099.189.326.402.516.481.169.071.579.071.748 0 .189-.079.417-.292.516-.481.161-.308.134-1.462-.051-2.184a5.054 5.054 0 0 0-3.599-3.598c-.547-.14-1.712-.212-2-.125m16.16.005a5.026 5.026 0 0 0-4.239 3.718c-.185.719-.212 1.876-.051 2.184.099.189.327.402.516.481.169.071.579.071.748 0a1.19 1.19 0 0 0 .516-.481c.072-.14.089-.266.114-.844.022-.526.049-.744.116-.96a3.094 3.094 0 0 1 2.02-2.02c.216-.067.434-.094.96-.116.765-.033.897-.074 1.139-.349.18-.205.241-.37.241-.655 0-.285-.061-.45-.241-.655-.24-.274-.386-.322-.999-.331a8.486 8.486 0 0 0-.84.028" fill="#10161F" fill-rule="evenodd"/></svg>