<svg xmlns="http://www.w3.org/2000/svg" width="24" height="24" viewBox="0 0 24 24" fill="none"><path d="M6.84 2.546c-1.896.291-3.38 1.491-4.04 3.266-.189.508-.248.866-.269 1.633-.023.844-.003.956.221 1.203.219.242.417.33.748.33.329 0 .534-.09.739-.323.194-.221.241-.369.241-.764.001-1.151.27-1.881.93-2.527.647-.633 1.349-.883 2.481-.884.395 0 .543-.047.764-.241.233-.205.323-.41.323-.739 0-.319-.082-.515-.304-.728-.235-.225-.357-.253-1.083-.247-.358.003-.696.013-.751.021m8.76.035c-.184.083-.386.28-.492.479-.12.225-.119.656.001.884.1.19.328.402.517.481.077.032.276.055.483.055 1.132.001 1.834.251 2.481.884.66.646.929 1.376.93 2.527 0 .401.058.58.252.783.213.222.409.304.728.304.337 0 .541-.093.755-.342.22-.258.237-.353.214-1.191-.026-.928-.114-1.328-.463-2.097-.271-.599-.879-1.362-1.412-1.772a5.385 5.385 0 0 0-1.954-.94c-.465-.116-1.823-.153-2.04-.055M3.24 15.035c-.311.102-.593.361-.68.625-.081.244-.03 1.553.076 1.98.419 1.679 1.561 2.959 3.176 3.56.508.189.866.248 1.633.269.838.023.933.006 1.191-.214.249-.214.342-.418.342-.755 0-.319-.082-.515-.304-.728-.203-.194-.382-.252-.783-.252-1.151-.001-1.881-.27-2.527-.93-.633-.647-.883-1.349-.884-2.481 0-.207-.023-.406-.055-.483a1.172 1.172 0 0 0-.478-.513c-.176-.089-.548-.13-.707-.078m17 0c-.297.097-.552.32-.658.574-.04.095-.062.274-.062.5-.001 1.132-.251 1.834-.884 2.481-.646.66-1.376.929-2.527.93-.401 0-.58.058-.783.252-.222.213-.304.409-.304.728 0 .337.093.541.342.755.258.22.353.237 1.191.214.576-.016.822-.04 1.085-.106a5 5 0 0 0 1.61-.698c1.052-.692 1.798-1.761 2.114-3.025.103-.414.157-1.736.08-1.969-.064-.192-.3-.457-.495-.557-.177-.09-.549-.132-.709-.079" fill="#10161F" fill-rule="evenodd"/></svg>