<svg xmlns="http://www.w3.org/2000/svg" width="24" height="24" viewBox="0 0 24 24" fill="none"><path d="M11.34 2.024c-.908.094-1.475.209-2.18.442-2.904.96-5.173 3.414-5.893 6.374-.251 1.033-.242.804-.257 6.105-.015 5.366-.024 5.153.244 5.714.27.566.78 1.022 1.373 1.227.235.081.346.094.793.091.634-.003.738-.036 1.596-.511.78-.431.89-.472 1.324-.496.458-.025.727.031 1.102.232.665.356 1.271.638 1.498.697.781.202 1.737.163 2.412-.098.202-.078.546-.25 1.206-.6.376-.2.645-.256 1.102-.231.434.024.544.065 1.324.496.858.475.962.508 1.596.511.447.003.558-.01.793-.091a2.424 2.424 0 0 0 1.373-1.227c.268-.561.259-.348.244-5.714-.015-5.331-.004-5.085-.27-6.15a8.62 8.62 0 0 0-.659-1.775c-1.271-2.621-3.814-4.477-6.741-4.919-.409-.062-1.658-.11-1.98-.077m1.528 2.038a6.899 6.899 0 0 1 4.073 1.997c1.044 1.043 1.666 2.245 1.97 3.801.054.276.064.973.077 5.095.017 5.314.037 4.908-.255 5.031-.137.057-.152.054-.427-.082a28.73 28.73 0 0 1-.766-.403 5.592 5.592 0 0 0-.74-.343 4.132 4.132 0 0 0-2.611.025c-.315.111-.374.14-.989.48-.514.283-.811.377-1.2.377-.389 0-.686-.094-1.2-.377-.614-.339-.674-.368-.989-.481-.801-.286-1.747-.295-2.611-.025-.143.045-.548.237-.9.428-.867.469-.869.469-1.035.4-.286-.12-.265.263-.265-4.812 0-4.947.004-5.041.22-5.893a7.02 7.02 0 0 1 4.311-4.824c.565-.216 1.086-.334 1.889-.43.315-.037 1.023-.02 1.448.036M8.637 9.055c-.444.095-.864.472-1.034.926-.118.315-.113.763.012 1.066.28.681.929 1.037 1.664.913 1.087-.183 1.578-1.514.883-2.393-.2-.253-.514-.45-.818-.514a1.356 1.356 0 0 0-.707.002m6 0c-.444.095-.864.472-1.034.926-.118.315-.113.763.012 1.066.28.681.929 1.037 1.664.913 1.087-.183 1.578-1.514.883-2.393-.2-.253-.514-.45-.818-.514a1.356 1.356 0 0 0-.707.002" fill="#10161F" fill-rule="evenodd"/></svg>