<svg xmlns="http://www.w3.org/2000/svg" width="24" height="24" viewBox="0 0 24 24" fill="none"><path d="M8.247 2.045c-.454.075-.915.418-1.087.807-.294.663-.177 2.032.246 2.877.063.126.114.238.114.25 0 .011-.265.021-.59.021-1.499.001-2.241.184-2.847.701-.654.559-.955 1.187-1.042 2.179-.053.603-.052 1.991.001 2.387.074.548.42 1.127.824 1.377l.134.083.001.866c.001 1.216.064 2.636.138 3.137.184 1.235.555 2.009 1.338 2.793.782.782 1.558 1.154 2.785 1.336 1.243.185 6.233.185 7.476 0 1.222-.181 2.006-.558 2.785-1.336.778-.779 1.155-1.563 1.336-2.785.073-.491.139-1.972.14-3.165l.001-.846.134-.083c.404-.25.75-.829.824-1.377.053-.396.054-1.784.001-2.387-.087-.992-.388-1.62-1.042-2.179-.606-.517-1.348-.7-2.847-.701-.325 0-.59-.01-.59-.021 0-.012.051-.124.114-.25.261-.521.406-1.182.405-1.849 0-.685-.115-1.071-.417-1.393-.321-.344-.748-.486-1.462-.486a4.157 4.157 0 0 0-2.928 1.15l-.192.18-.192-.18a4.48 4.48 0 0 0-1.563-.947c-.517-.177-1.445-.251-1.998-.159M9.492 4.06c.126.032.323.107.438.165.269.136.709.576.845.844.11.218.223.632.224.821.001.098-.014.11-.131.11-.411 0-.91-.233-1.272-.596C9.233 5.042 9 4.543 9 4.132 9 4.009 9.009 4 9.132 4c.072 0 .234.027.36.06M15 4.124c0 .185-.112.583-.229.813-.133.263-.575.703-.841.838-.24.121-.607.225-.798.225-.123 0-.132-.009-.132-.132 0-.411.233-.91.596-1.272.364-.364.832-.586 1.254-.593.142-.003.15.004.15.121M11 9.5V11H5l.001-.93c0-.511.019-1.056.041-1.21.068-.47.337-.751.781-.816.13-.019 1.348-.036 2.707-.039L11 8v1.5m7.368-1.426c.192.063.496.369.556.558.029.091.054.577.065 1.258l.019 1.11H13V7.996l2.61.014c1.926.011 2.649.027 2.758.064M11 16.006v3.007l-.93-.028c-2.071-.06-2.661-.248-3.376-1.073-.515-.594-.643-1.244-.681-3.462L5.988 13H11v3.006m6.987-1.556c-.038 2.218-.166 2.868-.681 3.462-.715.825-1.305 1.013-3.376 1.073l-.93.028V13h5.012l-.025 1.45" fill="#10161F" fill-rule="evenodd"/></svg>