<svg xmlns="http://www.w3.org/2000/svg" width="24" height="24" viewBox="0 0 24 24" fill="none"><path d="M11.12 2.04c-1.773.184-3.318.734-4.699 1.674-1.437.978-2.533 2.215-3.298 3.723-.556 1.095-.857 2.043-1.026 3.223-.082.579-.095 1.936-.024 2.5.478 3.766 2.857 6.817 6.381 8.183 2.306.894 5.005.861 7.326-.089a10.234 10.234 0 0 0 4.527-3.694c1.19-1.776 1.883-4.271 1.519-5.468a2.897 2.897 0 0 0-1.481-1.754c-.677-.335-.392-.313-4.165-.328-3.752-.015-3.712-.017-4.165.254-1.178.706-1.361 2.274-.373 3.19.122.113.315.256.429.318.402.217.529.227 3.159.227 1.901.001 2.41.012 2.41.051-.001.12-.375.865-.614 1.221-1.176 1.755-2.991 2.73-5.079 2.729-2.058-.001-4.038-1.139-5.116-2.94-.295-.494-.59-1.283-.738-1.98-.11-.515-.102-1.722.016-2.24.181-.801.523-1.615.93-2.219.848-1.257 2.201-2.158 3.766-2.508.588-.131 1.732-.131 2.355.001 1.168.247 1.992.67 2.932 1.504.46.407.689.547 1.056.642 1.119.292 2.286-.477 2.463-1.623a2.117 2.117 0 0 0-.178-1.196c-.215-.439-1.054-1.212-1.949-1.797-1.211-.792-2.518-1.287-4.026-1.525-.592-.093-1.803-.134-2.338-.079" fill="#10161F" fill-rule="evenodd"/></svg>