<svg xmlns="http://www.w3.org/2000/svg" width="24" height="24" viewBox="0 0 24 24" fill="none"><path d="M5.073 2.562c-.729.111-1.178.33-1.667.809-.419.41-.656.832-.791 1.409-.069.296-.075.52-.075 2.98 0 2.085.012 2.712.054 2.9.233 1.036 1.006 1.887 1.97 2.166.492.142 1.217.188 2.575.161 1.516-.029 1.785-.077 2.401-.43.532-.304 1.054-.926 1.249-1.488.168-.487.18-.654.199-2.947.025-2.898-.012-3.35-.332-3.989a2.952 2.952 0 0 0-1.85-1.503c-.285-.079-.418-.085-1.906-.094-.88-.005-1.702.006-1.827.026m10.262.018c-1.166.253-2.075 1.215-2.284 2.418-.076.433-.048 1.429.048 1.776.287 1.03 1.078 1.821 2.127 2.13.333.098 3.27.132 3.782.044a2.839 2.839 0 0 0 1.593-.828c.349-.345.587-.723.744-1.18.1-.291.111-.384.127-1.044.02-.889-.031-1.194-.29-1.716-.4-.804-1.189-1.431-2.015-1.6-.398-.082-3.457-.082-3.832 0M8.3 4.564c.242.061.514.306.607.547.068.176.073.362.073 2.629 0 1.899-.012 2.478-.052 2.614-.07.228-.346.504-.574.574-.13.039-.54.052-1.614.052-1.612 0-1.637-.004-1.927-.27-.295-.273-.299-.3-.321-2.43-.023-2.133.015-3.02.14-3.263.177-.345.403-.46.988-.5.597-.042 2.458-.009 2.68.047m10.446-.024c.303.09.508.258.64.527.104.213.114.27.114.673 0 .27-.021.5-.055.595-.07.198-.293.446-.502.558-.158.084-.212.087-1.617.099-1.276.01-1.479.004-1.656-.055a1.029 1.029 0 0 1-.604-.597c-.078-.228-.09-.851-.021-1.122.049-.196.296-.505.478-.6.221-.114.428-.13 1.72-.134 1.046-.003 1.342.008 1.503.056M15.8 11.042c-.508.046-.859.141-1.211.329-.547.291-.93.674-1.215 1.215-.333.632-.371 1.004-.373 3.654-.001 2.59.039 3.021.343 3.627a2.96 2.96 0 0 0 1.932 1.522c.266.062.511.071 1.964.071 1.794 0 2.009-.021 2.5-.239.712-.317 1.335-.997 1.558-1.701.175-.554.188-.815.173-3.5-.014-2.417-.018-2.532-.098-2.82a2.961 2.961 0 0 0-1.422-1.815c-.325-.182-.743-.293-1.291-.344-.498-.046-2.344-.046-2.86.001m3.1 2.051c.088.039.228.137.311.218.268.261.274.316.297 2.409.023 2.133-.015 3.019-.14 3.263-.189.37-.383.455-1.144.505-.681.045-2.276.01-2.534-.055-.217-.054-.499-.302-.595-.522-.07-.159-.076-.33-.087-2.467-.008-1.524.002-2.392.032-2.58.073-.475.323-.744.76-.82.121-.021.832-.034 1.58-.03 1.207.007 1.378.016 1.52.079M4.939 15.057c-.597.111-1.096.381-1.558.844-.372.372-.542.64-.713 1.129-.117.331-.124.39-.14 1.074-.02.889.031 1.195.29 1.716.302.607.755 1.06 1.362 1.362.588.292.707.305 2.707.29l1.733-.012.35-.125c.486-.174.752-.343 1.127-.715.694-.689.933-1.376.89-2.56-.022-.622-.074-.892-.245-1.279-.277-.626-.896-1.246-1.521-1.522-.514-.228-.553-.232-2.341-.243-1.238-.009-1.731.002-1.941.041m3.401 2.009c.253.087.507.341.594.594.078.229.089.851.021 1.124-.057.226-.334.541-.565.641-.152.066-.311.076-1.502.087-.884.009-1.405-.002-1.549-.032a1.002 1.002 0 0 1-.718-.537c-.113-.222-.121-.266-.121-.68 0-.558.065-.749.343-.998.108-.097.264-.195.347-.217.084-.022.763-.042 1.553-.044 1.208-.003 1.43.005 1.597.062" fill="#10161F" fill-rule="evenodd"/></svg>