<svg xmlns="http://www.w3.org/2000/svg" width="24" height="24" viewBox="0 0 24 24" fill="none"><path d="M7.08 2.04c-1.001.123-1.945.846-2.332 1.786-.196.477-.208.574-.208 1.674s.012 1.197.208 1.674A3.017 3.017 0 0 0 6.22 8.702c.557.26.612.266 2.269.287l1.509.019.011 5.686.011 5.686.093.26c.226.631.687 1.078 1.307 1.267.201.061.379.073 1.1.072.794-.001.88-.008 1.12-.093a2 2 0 0 0 1.266-1.286c.07-.208.074-.519.085-5.91L15.002 9h1.971c2.09 0 2.213-.009 2.583-.198.288-.147.592-.467.754-.794.147-.298.15-.313.15-.766 0-.413-.011-.485-.104-.683-.146-.312-.894-1.287-1.368-1.784a9.07 9.07 0 0 0-4.433-2.534c-.883-.209-.968-.214-4.195-.224-1.661-.005-3.137.005-3.28.023m6.28 2.018a7.098 7.098 0 0 1 3.09 1.171c.465.314 1.18.98 1.536 1.431l.252.32-5.449.011c-6.104.012-5.633.034-5.975-.28C6.542 6.459 6.5 6.298 6.5 5.5c.001-.471.017-.728.055-.835.076-.217.309-.461.545-.571l.2-.093h2.82c2.204 0 2.912.013 3.24.057M13 14.5V20h-1V9h1v5.5" fill="#10161F" fill-rule="evenodd"/></svg>