<svg xmlns="http://www.w3.org/2000/svg" width="24" height="24" viewBox="0 0 24 24" fill="none"><path d="M11.299 2.381c-.636.14-1.291.477-2.194 1.13-.624.451-6.634 5.13-6.84 5.325-.277.263-.384.509-.385.886 0 .364.114.631.367.86.259.234.449.298.97.325.454.025.46.026.481.129.043.208.141 1.125.222 2.064.413 4.82.666 5.779 1.837 6.94.921.913 1.819 1.278 3.443 1.399.701.053 4.899.053 5.6 0 1.624-.121 2.522-.486 3.443-1.399.77-.764 1.126-1.505 1.379-2.873.117-.635.298-2.222.438-3.847.098-1.142.196-2.063.244-2.29.021-.106.032-.11.269-.111.636-.002 1.004-.125 1.267-.425.207-.236.278-.433.279-.774 0-.375-.106-.62-.384-.886-.245-.234-6.354-4.98-6.975-5.419-.838-.593-1.469-.907-2.083-1.036-.343-.072-1.046-.071-1.378.002m1.282 7.681a2.901 2.901 0 0 1 1.533.824 2.968 2.968 0 0 1 .652 3.265 3.046 3.046 0 0 1-1.615 1.615 2.998 2.998 0 0 1-4.089-2.185c-.427-2.063 1.456-3.946 3.519-3.519" fill="#10161F" fill-rule="evenodd"/></svg>