<svg xmlns="http://www.w3.org/2000/svg" width="24" height="24" viewBox="0 0 24 24" fill="none"><path d="M11.3 2.384c-.721.16-1.376.52-2.58 1.417-1.04.776-6.269 4.859-6.468 5.051-.256.247-.376.51-.377.824-.002.304.058.515.202.714.267.368.536.489 1.15.52l.452.022.02.124c.011.068.12 1.132.242 2.364.325 3.272.462 4.189.74 4.944.259.703.539 1.142 1.056 1.657.935.933 1.858 1.306 3.506 1.418.748.051 4.766.051 5.514 0 1.64-.112 2.582-.492 3.506-1.416.539-.54.837-1.021 1.09-1.763.262-.768.395-1.687.726-5.04.111-1.122.211-2.096.222-2.164l.02-.124.456-.023c.508-.025.706-.089.957-.309a1.195 1.195 0 0 0 .059-1.721c-.134-.134-5.61-4.404-6.513-5.078-1.05-.785-1.739-1.182-2.361-1.362-.402-.116-1.219-.144-1.619-.055m1.079 1.984c.534.134.973.447 4.728 3.369l2.001 1.557-.204.204a1.932 1.932 0 0 0-.519.982c-.033.165-.152 1.209-.264 2.32-.337 3.354-.426 4.03-.62 4.675-.155.52-.346.841-.702 1.181-.513.49-1.034.695-1.98.78-1.31.117-5.35.08-6.118-.056-.737-.131-1.124-.329-1.595-.817-.287-.297-.468-.623-.61-1.096-.19-.636-.281-1.325-.617-4.667-.111-1.111-.229-2.146-.261-2.3a2.003 2.003 0 0 0-.516-.996l-.21-.21 2.001-1.557c3.902-3.037 4.23-3.267 4.843-3.396.244-.052.346-.047.643.027m-.939 5.177c-1.164.224-2.059.892-2.575 1.923-.259.519-.325.827-.325 1.532 0 .525.014.668.09.932a3.512 3.512 0 0 0 1.838 2.203c.519.259.827.325 1.532.325.525 0 .668-.014.932-.09a3.547 3.547 0 0 0 2.438-2.438c.076-.264.09-.407.09-.932 0-.525-.014-.668-.09-.932a3.55 3.55 0 0 0-2.417-2.431c-.222-.065-.429-.088-.853-.098a6.907 6.907 0 0 0-.66.006m1 2.024a1.51 1.51 0 0 1 1.037 1.213 1.493 1.493 0 1 1-2.954.436 1.499 1.499 0 0 1 1.917-1.649" fill="#10161F" fill-rule="evenodd"/></svg>