<svg xmlns="http://www.w3.org/2000/svg" width="24" height="24" viewBox="0 0 24 24" fill="none"><path d="M8.24 2.546c-2.117.11-3.311.502-4.229 1.387C3.33 4.59 2.93 5.422 2.72 6.619c-.17.975-.18 1.264-.18 5.421 0 3.543.008 4.047.07 4.588.197 1.694.588 2.656 1.401 3.439.804.775 1.708 1.131 3.361 1.323.542.062 1.047.07 4.628.07 3.581 0 4.086-.008 4.628-.07 1.653-.192 2.557-.548 3.361-1.323.806-.777 1.208-1.76 1.4-3.427.064-.555.071-1.04.071-4.64 0-3.581-.008-4.086-.07-4.628-.197-1.694-.588-2.656-1.401-3.439-.796-.768-1.702-1.128-3.32-1.319-.49-.058-1.094-.068-4.369-.074-2.09-.004-3.917-.001-4.06.006m6.13 1.96.63.027v3.723c-.001 3.825-.023 4.552-.158 5.216-.099.483-.235.758-.486.984-.328.295-.809.427-1.836.504-.307.022-2.149.04-4.266.04H4.529l-.03-.87c-.038-1.079.006-5.452.061-6.13.115-1.427.338-2.129.83-2.622.568-.567 1.498-.795 3.49-.855 1.295-.04 4.695-.05 5.49-.017m3.05.255c.471.116.924.353 1.191.622.503.507.71 1.17.835 2.677.072.854.071 7 0 7.88-.057.698-.174 1.464-.255 1.658l-.051.124-1.357-1.358-1.356-1.358.107-.246c.24-.555.367-1.263.426-2.392.022-.411.039-2.309.04-4.218 0-2.749.01-3.47.05-3.469.028 0 .194.036.37.08M8.643 7.069a1.118 1.118 0 0 0-.343.229C7.997 7.601 8 7.572 8 10c0 2.427-.003 2.399.299 2.701.601.601 1.585.239 1.696-.624l.025-.198.755.504c.415.277.826.529.915.56.757.268 1.519-.5 1.251-1.261-.104-.294-.215-.397-.955-.889a31.19 31.19 0 0 1-.76-.514c-.019-.018.269-.234.64-.48.37-.247.734-.505.808-.574.22-.207.304-.405.304-.725 0-.329-.09-.534-.323-.739-.207-.182-.371-.241-.668-.241-.312 0-.381.035-1.282.637a15.11 15.11 0 0 1-.684.443c-.012 0-.021-.168-.021-.373 0-.47-.076-.705-.299-.928a.998.998 0 0 0-1.058-.23m7.734 10.728 1.356 1.357-.216.062c-.715.205-1.56.26-4.437.289-2.628.027-4.95-.025-5.72-.126-1.279-.168-1.956-.531-2.33-1.248a3.566 3.566 0 0 1-.329-.961L4.673 17l3.493-.001c3.367-.001 4.562-.028 5.251-.12.436-.058 1.043-.213 1.307-.334.119-.054.234-.1.256-.102.022-.002.651.608 1.397 1.354" fill="#10161F" fill-rule="evenodd"/></svg>