<svg xmlns="http://www.w3.org/2000/svg" width="24" height="24" viewBox="0 0 24 24" fill="none"><path d="M8.96 4.04c-1.05.053-1.793.215-2.411.525-.439.221-.627.354-1.003.713-.675.643-1.037 1.189-2.594 3.917-1.019 1.785-1.164 2.09-1.34 2.805-.082.336-.12 3.473-.055 4.489.109 1.683.506 2.659 1.457 3.581.922.892 1.842 1.262 3.413 1.368.788.054 10.358.054 11.146 0 1.309-.089 2.138-.356 2.917-.94.775-.582 1.362-1.37 1.649-2.216.282-.828.355-1.767.33-4.245-.025-2.437-.002-2.353-1.271-4.579-1.657-2.909-2.051-3.512-2.704-4.143-.727-.702-1.493-1.048-2.694-1.217-.382-.054-.95-.067-3.34-.078-1.584-.006-3.159.002-3.5.02m6.14 1.999c1.472.103 1.936.393 2.805 1.753.275.429 1.855 3.145 1.855 3.188 0 .008-.733.021-1.63.03-1.794.016-1.803.017-2.31.284-.351.184-.855.696-1.031 1.046-.177.354-.22.511-.269.971-.022.206-.068.414-.102.467C14.272 14 14.268 14 12 14c-1.823 0-2.105-.008-2.222-.063-.199-.095-.261-.222-.298-.612-.042-.448-.095-.642-.271-.985-.182-.353-.687-.867-1.029-1.046-.507-.267-.516-.268-2.31-.284a52.673 52.673 0 0 1-1.63-.029c0-.019 1.316-2.314 1.571-2.741C6.846 6.509 7.342 6.147 8.82 6.043c.627-.044 5.658-.047 6.28-.004m-7.878 7.024c.197.094.254.213.298.626.049.46.092.617.269.971.176.35.68.862 1.031 1.047.533.28.45.273 3.18.273s2.647.007 3.18-.273c.342-.181.847-.694 1.029-1.047.176-.343.229-.537.271-.985.037-.39.099-.517.298-.612.116-.055.372-.063 1.914-.063h1.78l.029.248c.016.137.017.843.002 1.57-.051 2.561-.158 3.033-.855 3.758-.538.56-1.016.759-2.088.872-.723.075-10.397.075-11.12 0-.845-.089-1.291-.226-1.687-.518-.67-.495-1.025-1.09-1.153-1.93-.055-.36-.139-3.399-.103-3.73l.029-.27h1.781c1.543 0 1.799.008 1.915.063" fill="#10161F" fill-rule="evenodd"/></svg>