<svg xmlns="http://www.w3.org/2000/svg" width="24" height="24" viewBox="0 0 24 24" fill="none"><path d="M14.06 2.536c-2.614.434-4.688 2.315-5.319 4.823-.151.602-.19 1-.185 1.899.005.895-.031 1.145-.206 1.401-.045.067-1.21 1.255-2.589 2.641l-2.508 2.52-.187.38c-.263.534-.325.8-.323 1.38.002.546.066.839.279 1.284a3.093 3.093 0 0 0 1.838 1.579c.24.077.393.092 1.07.108.949.021 1.206-.016 1.67-.239.785-.377 1.355-1.255 1.359-2.092.002-.33.213-.499.623-.5.227 0 .571-.097.888-.249.387-.187.863-.669 1.057-1.071.157-.325.216-.548.257-.974.034-.358.123-.469.398-.495.157-.014.278.011.586.123.727.264 1.237.356 2.092.377.647.015.834.005 1.256-.067 2.65-.451 4.722-2.453 5.284-5.104.11-.519.148-1.488.082-2.059-.322-2.773-2.374-5.008-5.142-5.602-.511-.11-1.786-.145-2.28-.063M15.584 4.5c.589.054 1.432.371 1.978.741.325.221.83.704 1.083 1.037.276.363.614 1.065.743 1.542.098.365.108.464.11 1.14.001.689-.006.767-.109 1.138a4.63 4.63 0 0 1-2.089 2.75c-.507.304-1.177.521-1.826.593-.684.076-1.246-.004-2.129-.301-.875-.295-1.497-.294-2.139.002-.746.345-1.272 1.046-1.371 1.829-.088.698-.126.742-.671.793a2.403 2.403 0 0 0-2.186 2.187c-.052.578-.098.609-.887.608-.508-.001-.616-.012-.771-.082a.992.992 0 0 1-.54-1.242c.066-.203.214-.359 2.64-2.795l2.57-2.58.185-.38c.324-.663.36-.862.367-2.04.007-1.101.039-1.357.24-1.945a4.551 4.551 0 0 1 1.98-2.416 4.652 4.652 0 0 1 1.858-.595c.351-.032.462-.03.964.016m-.194 2.301a1.618 1.618 0 0 0-1.017.859c-.096.207-.112.29-.111.6 0 .309.016.395.112.604.141.309.45.617.766.763.207.096.29.112.6.111.309 0 .395-.016.604-.112.309-.141.617-.45.763-.766.096-.207.112-.29.111-.6 0-.309-.016-.395-.112-.604a1.67 1.67 0 0 0-.756-.757c-.258-.117-.703-.163-.96-.098" fill="#10161F" fill-rule="evenodd"/></svg>