<svg xmlns="http://www.w3.org/2000/svg" width="24" height="24" viewBox="0 0 24 24" fill="none"><path d="M8.3 2.545c-2.312.151-3.352.488-4.289 1.389-.827.794-1.235 1.838-1.419 3.626-.074.714-.074 8.166 0 8.88.18 1.748.549 2.725 1.342 3.549.794.827 1.838 1.235 3.626 1.419.714.074 8.166.074 8.88 0 1.748-.18 2.725-.549 3.549-1.342.676-.65 1.107-1.562 1.307-2.766.153-.92.164-1.266.164-5.3 0-4.114-.01-4.407-.18-5.381-.389-2.221-1.594-3.462-3.768-3.879-.943-.181-1.187-.19-5.192-.199-2.101-.005-3.91-.004-4.02.004m7.68 2.015c1.358.103 2.169.357 2.636.824.473.473.718 1.267.831 2.696.067.855.067 6.981 0 7.84-.113 1.428-.357 2.223-.831 2.696-.467.467-1.278.721-2.636.824-.724.056-5.942.098-6.012.05-.066-.047-.105-.436-.206-2.05A75.752 75.752 0 0 1 9.6 12c0-2.192.037-3.428.162-5.44.089-1.421.138-1.975.182-2.046.036-.058 5.187-.019 6.036.046m-8.088.03c.009.016.001.192-.017.39-.354 3.814-.354 10.226 0 14.04.018.198.026.373.017.389-.036.066-1.095-.106-1.555-.253-.369-.117-.742-.329-.953-.54-.473-.473-.718-1.268-.831-2.696-.068-.86-.068-6.985 0-7.84.104-1.318.301-2.046.681-2.52.174-.217.202-.242.503-.442.362-.242 1.119-.453 1.903-.531l.188-.021c.026-.003.055.008.064.024m4.781 2.473C12.31 7.175 12 7.606 12 8c0 .405.309.826.69.939.302.09 3.318.09 3.62 0 .378-.112.69-.537.69-.939 0-.402-.312-.827-.69-.939-.292-.087-3.354-.085-3.637.002m0 4a.94.94 0 0 0-.366.236.96.96 0 0 0-.001 1.401c.294.293.342.3 2.194.3 1.856 0 1.9-.006 2.197-.303.183-.183.303-.46.303-.697 0-.402-.312-.827-.69-.939-.292-.087-3.354-.085-3.637.002m0 4a.94.94 0 0 0-.366.236.96.96 0 0 0-.001 1.401c.294.293.342.3 2.194.3 1.856 0 1.9-.006 2.197-.303.183-.183.303-.46.303-.697 0-.402-.312-.827-.69-.939-.292-.087-3.354-.085-3.637.002" fill="#10161F" fill-rule="evenodd"/></svg>