<svg xmlns="http://www.w3.org/2000/svg" width="24" height="24" viewBox="0 0 24 24" fill="none"><path d="M14.309 4.881c-.199.05-.399.154-.864.451A17.577 17.577 0 0 0 8.253 10.4c-.533.793-.682 1.442-.496 2.17.091.353.217.615.496 1.03a17.58 17.58 0 0 0 5.231 5.09c.628.399.752.447 1.156.447.472 0 .739-.109 1.064-.433.326-.327.434-.593.43-1.064-.002-.275-.022-.383-.104-.565-.156-.346-.351-.527-1.092-1.016a20.005 20.005 0 0 1-1.201-.862c-.568-.452-1.604-1.464-2.043-1.997-.319-.386-.894-1.158-.894-1.2 0-.042.575-.814.893-1.2.413-.5 1.502-1.572 2.007-1.974.242-.193.776-.575 1.186-.848.813-.541 1.021-.737 1.159-1.092a1.66 1.66 0 0 0-.001-1.1c-.131-.332-.502-.702-.824-.825-.268-.101-.682-.137-.911-.08" fill="#10161F" fill-rule="evenodd"/></svg>