<svg xmlns="http://www.w3.org/2000/svg" width="24" height="24" viewBox="0 0 24 24" fill="none"><path d="M6.82 2.446a5.094 5.094 0 0 0-2.001.688c-2.546 1.545-3.18 4.959-1.361 7.324.119.155.988 1.049 1.929 1.985 1.774 1.764 1.982 1.944 2.633 2.268 1.118.556 2.619.66 3.778.262a5.077 5.077 0 0 0 1.731-.995c.409-.354.527-.58.505-.972-.031-.534-.384-.889-.914-.919-.339-.019-.54.063-.858.351a3 3 0 0 1-3.692.295c-.243-.159-2.745-2.61-3.316-3.247-.389-.435-.593-.777-.729-1.225-.081-.267-.098-.409-.099-.841-.003-.61.055-.869.305-1.379.135-.275.238-.411.548-.724.43-.436.749-.636 1.26-.792.419-.128 1.214-.144 1.621-.033.676.185.952.382 2.06 1.472 1 .982 1.04 1.01 1.465 1.004a.93.93 0 0 0 .672-.291c.177-.177.249-.335.273-.603.039-.428-.012-.505-1.005-1.508-.973-.983-1.307-1.262-1.869-1.561a4.586 4.586 0 0 0-1.83-.563 4.177 4.177 0 0 0-1.106.004m6.41 6.357c-.83.084-1.783.453-2.41.932-.703.536-.88.798-.854 1.259.031.534.384.889.914.919.337.019.525-.058.86-.355.642-.567 1.212-.781 2.06-.774.823.007 1.352.216 2.003.789.491.433 3.075 3.051 3.249 3.292.663.92.721 2.259.141 3.248-.171.292-.788.909-1.08 1.08-1.03.605-2.435.51-3.353-.226a27.672 27.672 0 0 1-1.02-.971c-.462-.454-.903-.858-.979-.897a.94.94 0 0 0-.404-.071c-.57 0-.991.419-.995.992-.002.375.099.513 1.143 1.543.96.947 1.295 1.218 1.854 1.498 1.48.741 3.322.683 4.741-.149a4.984 4.984 0 0 0 1.974-2.12c.352-.72.495-1.343.498-2.172.003-.877-.16-1.576-.535-2.295-.351-.672-.558-.908-2.387-2.73-1.871-1.863-2.044-2.01-2.775-2.352a5.175 5.175 0 0 0-2.645-.44" fill="#10161F" fill-rule="evenodd"/></svg>