<svg xmlns="http://www.w3.org/2000/svg" width="24" height="24" viewBox="0 0 24 24" fill="none"><path d="M7.678 2.756a1.349 1.349 0 0 0-.2.085c-.19.1-.945.745-1.465 1.251l-.526.513-.354-.277c-.54-.425-.746-.528-1.056-.528-.587.001-.998.4-1.002.975-.003.376.13.615.477.857.339.238.809.707 1.068 1.067.258.359.478.482.859.48.421-.003.552-.096 1.149-.819A13.636 13.636 0 0 1 8.18 4.818c.527-.441.598-.515.678-.707.077-.184.08-.589.007-.765a1.172 1.172 0 0 0-.478-.513c-.176-.09-.548-.13-.709-.077m2.995 1.307C10.31 4.175 10 4.606 10 5c0 .405.309.826.69.939.178.053.803.061 4.81.061s4.632-.008 4.81-.061c.378-.112.69-.537.69-.939 0-.402-.312-.827-.69-.939-.299-.089-9.348-.087-9.637.002M7.678 9.756a1.349 1.349 0 0 0-.2.085c-.191.1-.945.745-1.466 1.253l-.529.514-.319-.255a6.252 6.252 0 0 0-.57-.404c-.222-.131-.283-.149-.513-.149-.594.001-1.005.402-1.009.983-.002.386.111.573.552.908.452.344.611.504.935.937.326.435.522.553.92.551.421-.003.552-.096 1.149-.819a13.636 13.636 0 0 1 1.552-1.542c.527-.441.598-.515.678-.707.077-.184.08-.589.007-.765a1.172 1.172 0 0 0-.478-.513c-.176-.09-.548-.13-.709-.077m2.995 1.307c-.363.112-.673.543-.673.937 0 .405.309.826.69.939.178.053.803.061 4.81.061s4.632-.008 4.81-.061c.378-.112.69-.537.69-.939 0-.402-.312-.827-.69-.939-.299-.089-9.348-.087-9.637.002m-2.995 5.693a1.349 1.349 0 0 0-.2.085c-.19.1-.945.745-1.465 1.251l-.526.513-.32-.252a6.774 6.774 0 0 0-.551-.392c-.704-.426-1.539.019-1.544.822-.002.37.117.581.471.837.355.258.823.726 1.077 1.079.258.359.478.482.859.48.421-.003.552-.096 1.149-.819a13.636 13.636 0 0 1 1.552-1.542c.527-.441.598-.515.678-.707.077-.184.08-.589.007-.765a1.172 1.172 0 0 0-.478-.513c-.176-.09-.548-.13-.709-.077m2.995 1.307c-.363.112-.673.543-.673.937 0 .405.309.826.69.939.178.053.803.061 4.81.061s4.632-.008 4.81-.061c.378-.112.69-.537.69-.939 0-.402-.312-.827-.69-.939-.299-.089-9.348-.087-9.637.002" fill="#10161F" fill-rule="evenodd"/></svg>