<svg xmlns="http://www.w3.org/2000/svg" width="24" height="24" viewBox="0 0 24 24" fill="none"><path d="M3.493 3.594c-.413.143-.798.545-.918.958-.086.297-.06.799.056 1.058.117.263.455.607.725.74l.224.11h8.322l.267-.131c1.093-.538 1.093-2.119 0-2.658l-.267-.131-4.101-.009c-3.852-.008-4.114-.005-4.308.063m13.077.849c-.813.062-1.197.256-1.434.725-.126.248-.131.649-.013 1.003.1.302.502 1.078.977 1.889.698 1.192 1.005 1.59 1.386 1.802.185.102.255.118.514.117.62-.002.957-.322 1.769-1.679.581-.971 1.018-1.82 1.152-2.238.09-.282.065-.667-.058-.92-.218-.445-.626-.634-1.516-.702a27.961 27.961 0 0 0-2.777.003M3.493 10.594c-.413.143-.798.545-.918.958-.086.297-.06.799.056 1.058.117.263.455.607.725.74l.224.11h8.322l.267-.131c1.093-.538 1.093-2.119 0-2.658l-.267-.131-4.101-.009c-3.852-.008-4.114-.005-4.308.063m13.077 3.849c-.813.062-1.197.256-1.434.725-.126.248-.131.649-.013 1.003.1.302.502 1.078.977 1.889.698 1.192 1.005 1.59 1.386 1.802.185.102.255.118.514.117.62-.002.957-.322 1.769-1.679.581-.971 1.018-1.82 1.152-2.238.09-.282.065-.667-.058-.92-.218-.445-.626-.634-1.516-.702a27.961 27.961 0 0 0-2.777.003M3.493 17.594c-.413.143-.798.545-.918.958-.086.297-.06.799.056 1.058.117.263.455.607.725.74l.224.11h8.322l.267-.131c1.093-.538 1.093-2.119 0-2.658l-.267-.131-4.101-.009c-3.852-.008-4.114-.005-4.308.063" fill="#10161F" fill-rule="evenodd"/></svg>