<svg xmlns="http://www.w3.org/2000/svg" width="24" height="24" viewBox="0 0 24 24" fill="none"><path d="M4.36 2.821c-.668.137-1.145.397-1.644.895-.748.749-.956 1.354-.956 2.784 0 1.43.208 2.035.956 2.784.51.509.984.763 1.678.899.384.075 1.788.075 2.206 0a3.162 3.162 0 0 0 1.75-.957 3.097 3.097 0 0 0 .846-1.7c.057-.364.057-1.688 0-2.052-.106-.687-.392-1.237-.912-1.758-.51-.509-.984-.763-1.678-.899-.383-.075-1.875-.072-2.246.004m7.313.242c-.369.114-.673.546-.673.957 0 .385.318.809.69.919.308.092 8.312.092 8.62 0 .378-.112.69-.537.69-.939 0-.402-.312-.827-.69-.939-.299-.089-8.348-.087-8.637.002M6.46 4.843c.298.112.585.399.697.697.073.196.083.311.083.96 0 .886-.046 1.063-.362 1.378-.315.316-.492.362-1.378.362-.886 0-1.063-.046-1.378-.362-.316-.315-.362-.492-.362-1.378 0-.886.046-1.062.362-1.378.315-.315.475-.357 1.366-.36.665-.002.774.007.972.081m5.213 2.22c-.369.114-.673.546-.673.957 0 .385.318.809.69.919.304.091 4.316.091 4.62 0 .378-.112.69-.537.69-.939 0-.402-.312-.827-.69-.939-.295-.088-4.352-.086-4.637.002M4.38 12.819a3.091 3.091 0 0 0-1.609.835 3.159 3.159 0 0 0-.954 1.746c-.072.4-.072 1.8 0 2.2.119.665.446 1.263.954 1.746.48.457.999.723 1.629.837.402.073 1.798.073 2.2 0a3.062 3.062 0 0 0 1.629-.837 3.159 3.159 0 0 0 .954-1.746c.073-.403.072-1.801 0-2.2a3.062 3.062 0 0 0-.837-1.629 3.159 3.159 0 0 0-1.746-.954c-.391-.071-1.837-.069-2.22.002m7.293.244c-.369.114-.673.546-.673.957 0 .385.318.809.69.919.308.092 8.312.092 8.62 0 .378-.112.69-.537.69-.939 0-.402-.312-.827-.69-.939-.299-.089-8.348-.087-8.637.002m-5.219 1.778c.29.109.596.415.705.705.071.189.081.311.081.954 0 .89-.043 1.052-.366 1.374-.322.323-.484.366-1.374.366-.884 0-1.051-.044-1.373-.36-.321-.317-.367-.488-.367-1.38 0-.886.046-1.062.362-1.378.315-.315.475-.357 1.366-.36.658-.002.775.008.966.079m5.219 2.222c-.369.114-.673.546-.673.957 0 .385.318.809.69.919.304.091 4.316.091 4.62 0 .378-.112.69-.537.69-.939 0-.402-.312-.827-.69-.939-.295-.088-4.352-.086-4.637.002" fill="#10161F" fill-rule="evenodd"/></svg>