<svg xmlns="http://www.w3.org/2000/svg" width="24" height="24" viewBox="0 0 24 24" fill="none"><path d="M3.673 4.063C3.31 4.175 3 4.606 3 5c0 .405.309.826.69.939.308.092 8.312.092 8.62 0 .378-.112.69-.537.69-.939 0-.402-.312-.827-.69-.939-.299-.089-8.348-.087-8.637.002m13.946.831c-.309.144-.621.52-1.115 1.344-.557.928-.964 1.733-1.025 2.027-.156.752.254 1.196 1.201 1.299.625.068 2.746.026 3.06-.06.296-.081.52-.233.679-.459.112-.16.121-.197.121-.521v-.348l-.307-.618c-.35-.704-.977-1.768-1.277-2.169-.407-.542-.868-.713-1.337-.495M3.673 11.063C3.31 11.175 3 11.606 3 12c0 .405.309.826.69.939.308.092 8.312.092 8.62 0 .378-.112.69-.537.69-.939 0-.402-.312-.827-.69-.939-.299-.089-8.348-.087-8.637.002m14.087 3.774c-.384.117-.693.462-1.256 1.401-.557.928-.964 1.733-1.025 2.027-.086.414.025.777.308 1.01.338.279.84.342 2.511.315.947-.016 1.253-.034 1.442-.086.654-.18.946-.688.762-1.324-.161-.553-1.185-2.361-1.671-2.948-.273-.33-.73-.499-1.071-.395M3.673 18.063C3.31 18.175 3 18.606 3 19c0 .405.309.826.69.939.308.092 8.312.092 8.62 0 .378-.112.69-.537.69-.939 0-.402-.312-.827-.69-.939-.299-.089-8.348-.087-8.637.002" fill="#10161F" fill-rule="evenodd"/></svg>