<svg xmlns="http://www.w3.org/2000/svg" width="24" height="24" viewBox="0 0 24 24" fill="none"><path d="M3.953 3.615c-.495.204-.83.611-.914 1.114-.16.948.509 1.749 1.461 1.749.539 0 .949-.221 1.254-.678.407-.61.266-1.501-.311-1.957-.414-.328-1.02-.421-1.49-.228m4.72.448C8.31 4.175 8 4.606 8 5c0 .405.309.826.69.939.179.053.908.061 5.81.061 4.902 0 5.631-.008 5.81-.061.378-.112.69-.537.69-.939 0-.402-.312-.827-.69-.939-.3-.089-11.347-.087-11.637.002m-4.72 6.552c-.495.204-.83.611-.914 1.114-.16.948.509 1.749 1.461 1.749.953 0 1.621-.804 1.46-1.757-.118-.702-.723-1.199-1.46-1.199-.244 0-.374.022-.547.093m4.72.448C8.31 11.175 8 11.606 8 12c0 .405.309.826.69.939.179.053.908.061 5.81.061 4.902 0 5.631-.008 5.81-.061.378-.112.69-.537.69-.939 0-.402-.312-.827-.69-.939-.3-.089-11.347-.087-11.637.002m-4.72 6.552c-.495.204-.83.611-.914 1.114-.16.948.509 1.749 1.461 1.749.953 0 1.621-.804 1.46-1.757-.118-.702-.723-1.199-1.46-1.199-.244 0-.374.022-.547.093m4.72.448C8.31 18.175 8 18.606 8 19c0 .405.309.826.69.939.179.053.908.061 5.81.061 4.902 0 5.631-.008 5.81-.061.378-.112.69-.537.69-.939 0-.402-.312-.827-.69-.939-.3-.089-11.347-.087-11.637.002" fill="#10161F" fill-rule="evenodd"/></svg>