<svg xmlns="http://www.w3.org/2000/svg" width="24" height="24" fill="none"><path fill="#fff" fill-opacity=".01" d="M24 0v24H0V0z"/><path fill="#10161F" fill-rule="evenodd" d="M15.446 4.003c1.937.693 3.597 2.434 4.174 4.8.032.128.059.257.082.385a4.464 4.464 0 0 0-2.772-.066c-1.4-1.04-3.13-1.11-4.57-.481-1.641.716-2.906 2.31-3.21 4.296-.418 2.724 1.28 5.164 3.637 7.223a4.124 4.124 0 0 1-1.663-.115c-4.773-1.343-7.97-3.446-8.887-6.584-.683-2.338-.115-4.675 1.216-6.244 1.35-1.591 3.503-2.39 5.793-1.526.14.053.326.003.42-.113 1.55-1.893 3.815-2.277 5.78-1.575m.73 7.127a.643.643 0 0 0 .774.136c.623-.333 1.248-.402 1.815-.27 1.494.345 2.588 2.074 2.208 3.98-.333 1.667-1.927 3.041-4.783 4.12a1.991 1.991 0 0 1-1.979-.348 22.356 22.356 0 0 1-.108-.094c-2.238-1.955-3.23-3.76-2.976-5.415.406-2.65 3.334-4.023 5.049-2.109" clip-rule="evenodd"/></svg>