<svg xmlns="http://www.w3.org/2000/svg" width="24" height="24" viewBox="0 0 24 24" fill="none"><path d="M12.94 3.719c-1.19.171-2.102.647-3.014 1.576-.221.225-.417.39-.48.404-.064.014-.222-.016-.402-.078-.989-.336-2.264-.351-3.197-.038-1.335.448-2.476 1.463-3.163 2.813-.543 1.068-.758 2.08-.711 3.344.119 3.211 2.183 5.61 6.3 7.325 1.229.512 2.912 1.037 3.638 1.136.698.095 1.554-.009 2.016-.245l.159-.081.287.119c.365.152.666.206 1.136.206.492 0 .817-.078 1.526-.367 3.423-1.397 5.093-3.334 4.992-5.793-.038-.935-.282-1.691-.789-2.445-.238-.355-.76-.86-1.128-1.093-.308-.195-.31-.197-.31-.367a7.19 7.19 0 0 0-.06-.629c-.368-2.809-2.428-5.143-5.04-5.71-.41-.089-1.38-.132-1.76-.077m1.203 2.003c1.293.229 2.466 1.15 3.123 2.452.207.411.383.926.451 1.326.026.154.056.319.065.367.016.078-.007.092-.212.132a5.418 5.418 0 0 0-.538.149l-.307.104-.152-.133c-1.461-1.282-3.677-1.122-5.142.371a4.612 4.612 0 0 0-1.325 3.27c.003 1.378.58 2.693 1.81 4.118.158.183.28.34.271.348-.027.027-.934-.22-1.582-.431-2.352-.766-4.026-1.68-5.145-2.81-.834-.842-1.257-1.637-1.445-2.72-.094-.539-.058-1.473.077-1.989.498-1.903 1.97-3.099 3.588-2.916.195.022.558.105.807.183.737.234 1.323.205 1.953-.094.246-.116.372-.215.7-.548.709-.72 1.088-.968 1.74-1.138a3.441 3.441 0 0 1 1.263-.041m.704 5.647c.131.06.356.224.538.393.195.181.412.338.574.414.242.115.292.124.701.124.425 0 .451-.005.769-.152.181-.083.436-.17.566-.193.848-.15 1.752.61 1.988 1.671.09.406.063 1.046-.061 1.414-.377 1.122-1.645 2.136-3.735 2.987-.495.201-.799.235-1.069.12-.332-.143-1.525-1.322-2.063-2.039-.376-.501-.682-1.066-.837-1.548-.151-.468-.16-1.077-.023-1.52.27-.876.88-1.526 1.633-1.742.295-.085.747-.054 1.019.071" fill="#10161F" fill-rule="evenodd"/></svg>