<svg xmlns="http://www.w3.org/2000/svg" width="24" height="24" viewBox="0 0 24 24" fill="none"><path d="M10.468 2.597c-.388.156-.7.465-.862.855-.1.242-.103.276-.118 1.336-.018 1.229.017 1.627.174 1.935.29.574.936.897 1.582.793.469-.075.873-.38 1.1-.828l.116-.228V3.62l-.113-.244a1.617 1.617 0 0 0-.706-.721c-.293-.151-.872-.18-1.173-.058M5.611 4.616c-.414.135-.74.423-.926.819-.091.196-.105.276-.105.625 0 .619.046.692 1.096 1.748.769.771.895.882 1.144.999.253.12.315.133.64.132.309 0 .394-.016.6-.112.285-.132.59-.416.721-.671.206-.402.211-.975.011-1.374-.047-.094-.46-.544-.983-1.069-.776-.781-.935-.923-1.145-1.018-.293-.131-.78-.168-1.053-.079m9.885.004c-.09.028-.243.1-.34.16-.252.156-1.801 1.722-1.923 1.944-.427.781-.125 1.703.687 2.092.233.111.298.124.623.123.589-.002.693-.07 1.765-1.147.713-.717.907-.935.988-1.112a1.494 1.494 0 0 0-.103-1.436c-.186-.284-.513-.537-.808-.625-.239-.071-.663-.071-.889.001M3.468 9.598A1.48 1.48 0 0 0 2.514 11c0 .64.37 1.177.968 1.404.193.074.297.078 1.592.067l1.386-.011.221-.109c.283-.138.572-.427.71-.71.098-.198.109-.265.109-.641s-.011-.443-.109-.641a1.677 1.677 0 0 0-.71-.71L6.46 9.54l-1.4-.009c-1.292-.008-1.415-.003-1.592.067m11.925.016a1.44 1.44 0 0 0-.684.557c-.187.284-.243.474-.243.829 0 .356.056.545.245.832.17.258.422.457.719.568.213.08.287.083 1.607.072l1.383-.012.22-.114c.305-.158.573-.431.707-.722.099-.214.113-.291.113-.624s-.014-.41-.113-.624a1.621 1.621 0 0 0-.707-.722l-.22-.114-1.4-.01c-1.392-.01-1.401-.01-1.627.084m-3.877.963a1.707 1.707 0 0 0-.878.803c-.085.174-.098.255-.098.62 0 .72-.371.295 4.497 5.163 4.751 4.75 4.442 4.474 5.041 4.509.555.032.986-.167 1.307-.603.22-.299.275-.483.274-.915-.002-.632.288-.304-4.519-5.123-4.802-4.814-4.424-4.481-5.098-4.499-.253-.007-.431.008-.526.045m-4.476 2.52c-.317.087-.521.253-1.383 1.117-1.029 1.032-1.077 1.109-1.077 1.727 0 .371.01.42.13.665.154.313.405.558.723.708.196.091.279.106.608.106.609 0 .706-.063 1.787-1.148 1.055-1.06 1.107-1.142 1.11-1.732.002-.322-.011-.387-.122-.62-.329-.687-1.053-1.023-1.776-.823m3.689 1.387c-.624.104-1.115.618-1.208 1.265-.049.34-.052 2.106-.003 2.441.073.506.385.938.841 1.161.198.098.265.109.641.109.384 0 .439-.01.64-.114.305-.158.573-.431.707-.722l.113-.244v-2.84l-.116-.228c-.14-.277-.419-.566-.67-.694-.149-.076-.627-.192-.714-.173l-.231.039" fill="#10161F" fill-rule="evenodd"/></svg>