<svg xmlns="http://www.w3.org/2000/svg" width="24" height="24" viewBox="0 0 24 24" fill="none"><path d="M11.34 2.046c-.698.089-1.527.406-2.148.822-1.152.771-1.978 2.128-2.15 3.531-.056.454-.056 5.748 0 6.202.1.817.464 1.729.95 2.38.302.404.785.867 1.188 1.139 1.723 1.163 3.907 1.162 5.644-.001.405-.271 1.024-.89 1.295-1.295a5.2 5.2 0 0 0 .839-2.223c.056-.454.056-5.748 0-6.202a5.2 5.2 0 0 0-.839-2.223c-.271-.405-.89-1.024-1.295-1.295a5.07 5.07 0 0 0-3.484-.835M4.745 12.059a1.03 1.03 0 0 0-.559.503c-.104.201-.111.243-.092.538.012.176.084.564.159.863.635 2.513 2.421 4.529 4.867 5.496.413.164 1.283.396 1.65.442l.23.028v.608c0 .725.048.913.299 1.164a.984.984 0 0 0 1.402 0c.251-.251.299-.439.299-1.164v-.608l.23-.028c.367-.046 1.237-.278 1.65-.442 2.446-.967 4.233-2.985 4.867-5.496.186-.74.211-1.085.096-1.345a.912.912 0 0 0-.426-.482c-.596-.35-1.369.04-1.476.744a8.079 8.079 0 0 1-.408 1.435c-.794 1.854-2.368 3.14-4.373 3.571-.35.075-.542.09-1.16.09-.618 0-.81-.015-1.16-.09-2.464-.53-4.237-2.322-4.738-4.789-.056-.277-.132-.521-.195-.628-.222-.379-.739-.561-1.162-.41" fill="#10161F" fill-rule="evenodd"/></svg>