<svg xmlns="http://www.w3.org/2000/svg" width="24" height="24" viewBox="0 0 24 24" fill="none"><path d="M7.499 3.04a3.05 3.05 0 0 0-2.387 2.138c-.089.31-.092.376-.092 1.822 0 1.446.003 1.512.092 1.822a3.07 3.07 0 0 0 2.027 2.053c.273.083.403.098.861.098.458 0 .588-.015.861-.098a3.07 3.07 0 0 0 2.027-2.053c.089-.31.092-.376.092-1.822 0-1.446-.003-1.512-.092-1.822-.277-.965-1.073-1.77-2.027-2.049-.361-.106-1.029-.149-1.362-.089m9.176 1.023c-.215.066-.49.314-.588.53-.061.135-.069.698-.087 6.687l-.02 6.54-.275-.342a9.344 9.344 0 0 1-.524-.74c-.365-.582-.665-.777-1.112-.724a1.008 1.008 0 0 0-.853.735c-.108.369-.035.591.426 1.291a7.942 7.942 0 0 0 2.308 2.311c.562.369.764.457 1.05.457.286 0 .488-.088 1.05-.457a8.006 8.006 0 0 0 2.599-2.791c.178-.326.213-.551.13-.832-.151-.508-.707-.826-1.207-.691-.272.073-.481.267-.753.701a9.344 9.344 0 0 1-.524.74l-.275.342-.02-6.54c-.022-7.33.008-6.677-.321-6.997-.267-.259-.625-.337-1.004-.22M8.5 5.138c.212.124.402.367.462.59.027.098.038.607.03 1.368l-.012 1.21-.121.197a.998.998 0 0 1-1.718 0l-.121-.197V5.7l.111-.189a.954.954 0 0 1 .937-.496.904.904 0 0 1 .432.123M7.499 12.04a3.042 3.042 0 0 0-2.374 2.099c-.083.273-.098.403-.098.861 0 .458.015.588.098.861a3.02 3.02 0 0 0 2.564 2.119l.269.029-.129.184c-.071.101-.368.431-.66.733-.292.302-.558.613-.59.69-.074.178-.076.585-.004.758.079.189.291.417.481.517.235.124.657.121.904-.006.217-.113.998-.894 1.364-1.365.967-1.243 1.495-2.509 1.639-3.92.107-1.063-.103-1.863-.659-2.512-.591-.689-1.299-1.036-2.184-1.069a3.935 3.935 0 0 0-.621.021m1.013 2.107c.63.387.642 1.299.023 1.692a.998.998 0 0 1-1.394-.336c-.107-.174-.121-.232-.121-.5 0-.259.016-.33.111-.492a.955.955 0 0 1 .941-.496.836.836 0 0 1 .44.132" fill="#10161F" fill-rule="evenodd"/></svg>