<svg xmlns="http://www.w3.org/2000/svg" width="24" height="24" viewBox="0 0 24 24" fill="none"><path d="M7.499 3.04a3.042 3.042 0 0 0-2.374 2.099c-.083.273-.098.403-.098.861 0 .458.015.588.098.861A3.02 3.02 0 0 0 7.689 8.98l.269.029-.129.184c-.071.101-.368.431-.66.733-.292.302-.558.613-.59.69-.074.178-.076.585-.004.758.079.189.291.417.481.517.235.124.657.121.904-.006.217-.113.998-.894 1.364-1.365.967-1.243 1.495-2.509 1.639-3.92.107-1.063-.103-1.863-.659-2.512-.591-.689-1.299-1.036-2.184-1.069a3.935 3.935 0 0 0-.621.021m9.307 1.165c-.192.036-.469.181-.926.488a8.028 8.028 0 0 0-2.238 2.267c-.464.705-.534.921-.424 1.3.151.517.727.852 1.206.701.309-.098.447-.226.762-.711.167-.257.414-.603.549-.768l.245-.3.02 6.539c.022 7.329-.008 6.676.321 6.996.169.163.456.283.679.283.223 0 .51-.12.679-.283.329-.32.299.333.321-6.997l.02-6.54.281.348c.154.191.388.522.52.735.269.435.427.587.713.682.516.171 1.091-.144 1.248-.685.083-.287.051-.485-.132-.82a8.02 8.02 0 0 0-2.6-2.791c-.636-.418-.892-.509-1.244-.444m-8.294.942c.63.387.642 1.299.023 1.692a.998.998 0 0 1-1.394-.336c-.107-.174-.121-.232-.121-.5 0-.259.016-.33.111-.492a.955.955 0 0 1 .941-.496.836.836 0 0 1 .44.132M7.499 13.04a3.05 3.05 0 0 0-2.387 2.138c-.089.31-.092.376-.092 1.822 0 1.446.003 1.512.092 1.822a3.07 3.07 0 0 0 2.027 2.053c.273.083.403.098.861.098.458 0 .588-.015.861-.098a3.07 3.07 0 0 0 2.027-2.053c.089-.31.092-.376.092-1.822 0-1.446-.003-1.512-.092-1.822-.277-.965-1.073-1.77-2.027-2.049-.361-.106-1.029-.149-1.362-.089M8.5 15.138c.212.124.402.367.462.59.027.098.038.607.03 1.368l-.012 1.21-.121.197a.998.998 0 0 1-1.718 0l-.121-.197V15.7l.111-.189a.954.954 0 0 1 .937-.496.904.904 0 0 1 .432.123" fill="#10161F" fill-rule="evenodd"/></svg>