<svg xmlns="http://www.w3.org/2000/svg" width="24" height="24" viewBox="0 0 24 24" fill="none"><path d="M11.36 2.022c-.772.087-1.002.12-1.4.2-3.595.731-6.547 3.472-7.562 7.023a10.06 10.06 0 0 0 .16 6.015c1.259 3.631 4.447 6.199 8.28 6.668.21.026.733.047 1.162.048.75 0 .792-.004 1.1-.111 1.126-.391 1.781-1.342 1.779-2.581 0-.492-.063-.793-.264-1.277-.257-.62-.179-1.05.269-1.464.26-.241.576-.383.848-.382.092 0 .591.073 1.108.161 1.566.268 2.165.253 2.973-.077a3.267 3.267 0 0 0 1.214-.82c.507-.544.717-1.027.856-1.965.337-2.283-.13-4.641-1.306-6.586-1.564-2.588-4.097-4.287-7.09-4.756-.48-.075-1.784-.134-2.127-.096m1.94 2.073c1.716.321 3.241 1.111 4.371 2.264.677.69 1.077 1.255 1.49 2.101.436.895.66 1.623.782 2.541.116.878.024 2.323-.175 2.769-.188.418-.664.706-1.22.738-.266.016-.512-.013-1.308-.151-1.551-.27-2.078-.241-2.9.161-.905.442-1.551 1.224-1.785 2.158-.07.282-.081.422-.067.86.018.555 0 .483.361 1.464.07.19.075.249.038.431-.053.26-.177.44-.352.514-.285.119-1.531.041-2.335-.147a8.314 8.314 0 0 1-3.032-1.426c-.696-.52-1.51-1.414-1.979-2.173-.352-.57-.717-1.421-.917-2.139-.353-1.266-.358-2.696-.013-4.035.365-1.421.994-2.547 1.998-3.579 1.312-1.347 2.871-2.126 4.783-2.39.487-.067 1.816-.044 2.26.039M9.174 7.039c-.425.09-.847.439-1.04.861-.095.206-.111.291-.11.6 0 .308.016.396.111.604.141.31.449.617.765.762.206.095.292.111.6.111s.394-.016.6-.111c.316-.145.624-.452.765-.762.095-.209.111-.296.111-.604s-.016-.395-.111-.604a1.658 1.658 0 0 0-.746-.753 1.794 1.794 0 0 0-.945-.104m5 0c-.425.09-.847.439-1.04.861-.095.206-.111.291-.11.6 0 .308.016.396.111.604.141.31.449.617.765.762.206.095.292.111.6.111s.394-.016.6-.111c.316-.145.624-.452.765-.762.095-.209.111-.296.111-.604s-.016-.395-.111-.604a1.658 1.658 0 0 0-.746-.753 1.794 1.794 0 0 0-.945-.104m-7 4c-.425.09-.847.439-1.04.861-.095.206-.111.291-.11.6 0 .308.016.396.111.604.141.31.449.617.765.762.206.095.292.111.6.111s.394-.016.6-.111c.316-.145.624-.452.765-.762.095-.209.111-.296.111-.604s-.016-.395-.111-.604a1.658 1.658 0 0 0-.746-.753 1.794 1.794 0 0 0-.945-.104" fill="#10161F" fill-rule="evenodd"/></svg>