<svg xmlns="http://www.w3.org/2000/svg" width="24" height="24" viewBox="0 0 24 24" fill="none"><path d="M4.74 3.024c-1.013.136-1.751.577-2.239 1.336-.356.555-.443.894-.5 1.96-.049.928-.007 1.664.111 1.93.161.365.484.624.88.706C3.109 8.98 3.604 9 4.1 9h.896l.016 5.03c.017 5.35.016 5.321.21 5.97.121.406.375.834.667 1.126.22.221.353.312.682.47.46.22.769.305 1.315.361.637.066 3.584.085 7.054.047 3.805-.042 3.747-.037 4.46-.388.669-.33 1.22-.977 1.415-1.659.229-.805.272-2.74.07-3.206a1.44 1.44 0 0 0-.636-.639c-.151-.068-.293-.088-.715-.103l-.526-.018-.02-3.626c-.012-2.111-.039-3.825-.064-4.105-.178-1.959-.529-2.904-1.405-3.779-.875-.875-1.811-1.224-3.779-1.405-.456-.042-8.718-.089-9-.052M5 6v1H3.991l.015-.61c.013-.574.021-.624.127-.84.063-.128.176-.278.253-.337.122-.093.414-.202.564-.21.039-.002.05.222.05.997m9.34 2.066c.369.126.66.538.66.934 0 .242-.119.521-.299.701-.302.302-.273.299-2.703.299-2.328 0-2.334 0-2.624-.222a1.19 1.19 0 0 1-.243-.289C9.036 9.328 9.02 9.256 9.02 9s.016-.328.111-.489c.125-.213.318-.375.539-.454.118-.042.611-.054 2.313-.055 1.911-.002 2.185.006 2.357.064m-2 4c.369.126.66.538.66.934s-.291.808-.66.934c-.276.094-2.399.098-2.662.005a.986.986 0 0 1-.547-.45c-.095-.161-.111-.233-.111-.489s.016-.328.111-.489c.061-.103.173-.236.25-.294.264-.202.352-.213 1.602-.215.981-.002 1.193.008 1.357.064m6.648 6.484c-.028.667-.098.929-.303 1.135-.304.304-.136.292-4.22.306l-3.635.012.027-.091c.091-.308.14-.761.142-1.302L11 18h8.012l-.024.55" fill="#10161F" fill-rule="evenodd"/></svg>