<svg xmlns="http://www.w3.org/2000/svg" width="24" height="24" viewBox="0 0 24 24" fill="none"><path d="M7.673 4.063c-.244.075-.523.351-.609.603C7.006 4.836 7 5.551 7 12c0 8.032-.026 7.367.306 7.7.18.179.458.3.694.3.402 0 .827-.312.939-.69C8.993 19.13 9 18.245 9 12c0-7.991.024-7.369-.303-7.697-.279-.279-.63-.361-1.024-.24m8 0c-.244.075-.523.351-.609.603-.058.17-.064.885-.064 7.334 0 8.032-.026 7.367.306 7.7.18.179.458.3.694.3.402 0 .827-.312.939-.69.054-.18.061-1.065.061-7.31 0-7.991.024-7.369-.303-7.697-.279-.279-.63-.361-1.024-.24" fill="#10161F" fill-rule="evenodd"/></svg>