<svg xmlns="http://www.w3.org/2000/svg" width="24" height="24" viewBox="0 0 24 24" fill="none"><path d="M7.96 1.579c-.982.113-1.509.295-2.24.776-.978.642-1.738 1.699-2.004 2.785-.185.758-.195 1.091-.195 6.28-.001 4.869.023 6.003.142 6.8.182 1.226.577 2.069 1.312 2.805.939.939 1.964 1.304 3.965 1.413.975.053 5.128.054 6.12.001 1.282-.068 2.108-.242 2.84-.6a3.935 3.935 0 0 0 1.208-.892c.666-.701 1.007-1.441 1.207-2.615.14-.829.173-2.007.157-5.772-.015-3.466-.016-3.504-.107-3.939a7.019 7.019 0 0 0-1.458-3.061c-.366-.438-2.025-2.098-2.47-2.47a6.985 6.985 0 0 0-3.058-1.454c-.422-.087-.527-.091-2.699-.1-1.671-.008-2.38.004-2.72.043m3.15 2.013a2.079 2.079 0 0 1 1.311 1.328c.05.164.075.468.099 1.2.035 1.09.059 1.224.318 1.74a2.958 2.958 0 0 0 1.302 1.302c.517.259.649.283 1.74.318.813.026 1.023.045 1.23.111a2.08 2.08 0 0 1 1.317 1.349c.068.223.073.427.067 2.9-.008 3.443-.067 4.257-.363 5-.289.726-.915 1.238-1.757 1.434-.59.137-.925.164-2.684.21-1.792.047-4.726-.001-5.41-.088-.769-.099-1.351-.306-1.705-.607-.586-.497-.845-1.059-.973-2.109-.078-.632-.119-2.878-.119-6.42.001-3.649.033-4.978.135-5.48.215-1.063 1.09-1.939 2.162-2.163.37-.077 1.597-.135 2.48-.117.462.01.657.031.85.092m3.51.648c.174.11.461.324.638.476.368.317 1.927 1.887 2.16 2.176.176.219.542.786.542.841 0 .02-.041.024-.09.009-.603-.183-.648-.189-1.612-.217-.945-.027-.966-.03-1.19-.139a1.1 1.1 0 0 1-.327-.241c-.213-.28-.232-.381-.264-1.405-.031-.956-.039-1.019-.219-1.61-.015-.05-.011-.09.009-.09.02 0 .179.09.353.2m-2.961 6.824a.987.987 0 0 0-.535.467c-.045.094-.119.385-.164.648-.144.842-.377 1.47-.766 2.062-.299.455-.605.792-1.145 1.256-.539.465-.622.599-.626 1.003-.003.236.014.309.106.466.317.539.758.642 1.52.356 1.392-.523 2.51-.523 3.902 0 .631.237.964.216 1.304-.083.233-.205.323-.41.323-.739 0-.356-.095-.545-.404-.807-.742-.631-.996-.897-1.344-1.409-.397-.585-.646-1.253-.792-2.124-.058-.34-.116-.554-.182-.669a1.005 1.005 0 0 0-1.197-.427" fill="#10161F" fill-rule="evenodd"/></svg>