<svg xmlns="http://www.w3.org/2000/svg" width="24" height="24" viewBox="0 0 24 24" fill="none"><path d="M7.3 2.546c-2.244.131-3.356.49-4.289 1.388-.642.617-1.061 1.46-1.271 2.554-.184.961-.19 1.142-.208 5.869-.019 5.012-.036 4.682.256 4.983.2.206.42.298.712.298a.923.923 0 0 0 .712-.298c.277-.285.262-.036.283-4.64.011-2.512.036-4.374.063-4.7.14-1.701.465-2.471 1.237-2.93.248-.148.819-.328 1.285-.405.839-.138 1.424-.153 6.78-.17 3.225-.01 5.376-.031 5.462-.055.187-.051.459-.287.568-.494.066-.125.088-.235.088-.446 0-.319-.082-.515-.304-.728-.282-.27.129-.253-5.803-.245-2.954.004-5.461.013-5.571.019m1.44 3.018c-2.181.135-3.398.938-3.914 2.582-.267.85-.306 1.558-.306 5.534 0 3.173.029 4.158.14 4.8.313 1.803 1.269 2.806 3.01 3.157.814.165 1.374.182 5.83.182 4.456 0 5.016-.017 5.83-.182 1.536-.31 2.469-1.14 2.876-2.557.236-.824.273-1.556.273-5.42.001-3.312-.028-4.205-.159-4.902-.241-1.286-.817-2.145-1.768-2.64-.646-.336-1.314-.491-2.392-.557-.775-.048-8.646-.045-9.42.003m9.527 1.994c1.609.144 2.027.565 2.172 2.182.055.61.102 5.206.062 5.993l-.03.594-.745-.737c-.751-.742-1.041-.973-1.446-1.153-.19-.084-.28-.097-.663-.097-.44 0-.445.001-.782.168a3.384 3.384 0 0 0-.657.445l-.318.278-1.36-1.348c-1.515-1.503-1.804-1.734-2.349-1.882-.279-.075-.799-.037-1.071.08-.459.196-.701.411-2.624 2.327l-1.924 1.918-.026-.393c-.072-1.087-.001-5.987.096-6.613.147-.948.441-1.364 1.114-1.576.458-.145.85-.191 1.904-.225 1.37-.045 8.051-.014 8.647.039m-2.314 2.057c-.495.204-.83.611-.914 1.114-.16.948.509 1.749 1.461 1.749.539 0 .949-.221 1.254-.678.407-.61.266-1.501-.311-1.957-.414-.328-1.02-.421-1.49-.228m-2.055 6.503c1.607 1.604 2.166 2.137 2.302 2.199.232.105.6.108.821.008.591-.268.765-1.016.36-1.547l-.096-.126.149-.146c.082-.08.171-.146.197-.146.027 0 .61.555 1.296 1.233l1.248 1.234-.049.12c-.123.296-.54.576-1.055.709-.578.149-1.085.164-5.571.164s-4.993-.015-5.571-.164c-.514-.133-.932-.413-1.054-.708l-.049-.119 2.422-2.414C10.581 15.087 11.695 14 11.724 14c.029 0 1.008.953 2.174 2.118" fill="#10161F" fill-rule="evenodd"/></svg>