<svg xmlns="http://www.w3.org/2000/svg" width="24" height="24" viewBox="0 0 24 24" fill="none"><path d="M7.24 2.548c-.143.006-.533.039-.866.072-1.596.158-2.554.532-3.363 1.313-.813.784-1.205 1.748-1.4 3.439-.063.544-.07 1.085-.07 5.111l-.001 4.503.121.196c.075.121.196.242.317.317.176.109.229.121.522.121.293 0 .346-.012.522-.121.121-.075.242-.196.317-.317l.121-.196.025-4.203c.025-4.202.045-4.851.181-5.723.237-1.518.888-2.163 2.416-2.396.915-.14 1.369-.151 6.738-.168 3.255-.011 5.416-.032 5.502-.056.187-.051.459-.288.568-.494.122-.231.123-.66.001-.89-.1-.19-.328-.402-.517-.481-.11-.046-1.023-.054-5.503-.047-2.954.004-5.488.013-5.631.02m1.402 3.015c-2.41.185-3.619 1.18-3.981 3.277-.118.682-.141 1.457-.141 4.844 0 3.394.021 4.093.142 4.816.235 1.403.864 2.294 1.991 2.821.972.455 1.8.517 6.847.517 5.056 0 5.874-.062 6.854-.52 1.329-.622 1.932-1.699 2.085-3.718.054-.709.054-7.171 0-7.88-.099-1.315-.354-2.116-.883-2.782-.674-.848-1.639-1.253-3.276-1.377-.637-.048-9.006-.046-9.638.002m9.698 1.995c1.324.151 1.763.456 1.979 1.372.165.698.179 1.088.18 4.777.001 1.939-.013 3.54-.029 3.557-.017.017-.359-.293-.76-.689-1.071-1.055-1.32-1.211-1.99-1.245-.331-.017-.416-.007-.662.078-.313.109-.644.32-.978.624l-.22.201-1.36-1.349c-.748-.741-1.452-1.414-1.565-1.496a3.754 3.754 0 0 0-.479-.276c-.548-.256-1.211-.191-1.776.174-.178.114-.87.775-2.189 2.088-1.061 1.057-1.943 1.907-1.96 1.89-.056-.055-.036-7.027.021-7.544.197-1.78.617-2.107 2.828-2.2 1.154-.048 8.477-.018 8.96.038m-2.391 2.057c-.552.231-.871.664-.935 1.266-.049.458.198 1.017.575 1.304.285.217.578.304.972.288.289-.011.382-.033.608-.144 1.093-.539 1.093-2.119 0-2.658-.233-.114-.313-.132-.628-.142-.307-.009-.395.004-.592.086" fill="#10161F" fill-rule="evenodd"/></svg>