<svg xmlns="http://www.w3.org/2000/svg" width="24" height="24" viewBox="0 0 24 24" fill="none"><path d="M7.24 2.546c-2.11.108-3.311.502-4.229 1.387-.813.783-1.204 1.745-1.401 3.439-.062.542-.07 1.047-.07 4.628 0 3.581.008 4.086.07 4.628.197 1.694.588 2.656 1.401 3.439.804.775 1.708 1.131 3.361 1.323.549.063 1.092.07 5.628.07s5.079-.007 5.628-.07c1.359-.158 2.136-.406 2.881-.919.33-.228.767-.671 1.002-1.018a2.21 2.21 0 0 1 .217-.283c.07-.058.207-.369.268-.61l.165-.634c.288-1.101.329-1.965.309-6.426-.015-3.038-.028-3.689-.084-4.169-.196-1.658-.592-2.622-1.397-3.398-.796-.768-1.698-1.126-3.32-1.319-.502-.06-1.134-.069-5.369-.075-2.64-.003-4.917 0-5.06.007M17 4.557c.672.058 1.279.153 1.598.251.673.206 1.131.573 1.403 1.127.313.638.427 1.386.48 3.16.066 2.204.027 6.55-.065 7.197l-.027.192-.705-.695c-.803-.793-1.028-.98-1.417-1.175a2.762 2.762 0 0 0-1.307-.299c-.72-.003-1.264.182-1.839.627l-.29.224-1.246-1.235c-1.602-1.59-1.945-1.881-2.59-2.199a2.422 2.422 0 0 0-1.115-.251c-.437 0-.775.081-1.177.283-.648.324-.886.535-3.188 2.827L3.61 16.488l-.023-.134c-.11-.647-.131-7.077-.027-8.354.115-1.42.338-2.13.823-2.614.585-.586 1.45-.798 3.537-.867 1.346-.044 8.47-.015 9.08.038m-1.85 2.484a1.618 1.618 0 0 0-1.017.859c-.096.207-.112.29-.111.6 0 .309.016.395.112.604.141.309.45.617.766.763.207.096.29.112.6.111.309 0 .395-.016.604-.112.309-.141.617-.45.763-.766.096-.207.112-.29.111-.6 0-.309-.016-.395-.112-.604a1.67 1.67 0 0 0-.756-.757c-.258-.117-.703-.163-.96-.098" fill="#10161F" fill-rule="evenodd"/></svg>