<svg xmlns="http://www.w3.org/2000/svg" width="24" height="24" viewBox="0 0 24 24" fill="none"><path d="M7.5 3.257c-.977.227-1.629.909-2.89 3.026-1.038 1.743-1.723 3.052-1.956 3.741a2.45 2.45 0 0 0-.165.897c-.022.555.026.818.221 1.21.102.205.232.377.447.591.6.597 1.2.789 2.816.901.307.021.349.033.326.091a7.123 7.123 0 0 0-.12.429 5.473 5.473 0 0 0 1.439 5.239c.795.794 1.747 1.297 2.887 1.524.483.097 1.498.096 1.99-.001 1.768-.347 3.197-1.446 3.964-3.045.373-.778.517-1.441.516-2.38 0-.522-.019-.743-.086-1.058a4.434 4.434 0 0 1-.077-.404c.004-.002.359-.026.788-.051.922-.055 1.365-.144 1.816-.364a2.406 2.406 0 0 0 1.187-1.187c.31-.635.396-1.375.396-3.416 0-2.654-.156-3.37-.895-4.101-.482-.479-.905-.673-1.758-.808-.381-.06-.725-.071-2.366-.07-1.666 0-1.977.009-2.352.072-.785.132-1.237.329-1.66.725a2.346 2.346 0 0 0-.63.889l-.125.289-.095-.168a19.25 19.25 0 0 0-.487-.757c-.857-1.284-1.577-1.813-2.527-1.854a2.432 2.432 0 0 0-.604.04m.746 2.041c.359.244 1.147 1.453 2.327 3.567.381.683.427.787.427.962v.197l-.339.049c-1.011.146-2.099.663-2.861 1.358l-.26.238-1.02-.033c-1.487-.047-1.917-.138-2.038-.431-.138-.334.393-1.464 1.81-3.845C7.255 5.743 7.684 5.2 8 5.2c.056 0 .166.044.246.098m9.952.781c.485.106.631.262.73.785.074.392.074 3.88 0 4.272-.142.749-.306.818-2.048.852l-1.1.022-.4-.396a5.56 5.56 0 0 0-2.1-1.314l-.26-.088V8.676c.001-1.614.027-1.936.183-2.241.121-.237.402-.346 1.057-.41.385-.037 3.729.009 3.938.054m-6.017 5.997c1.308.27 2.289 1.173 2.686 2.472.095.315.107.415.107.952 0 .537-.012.637-.107.952-.368 1.204-1.211 2.047-2.415 2.415-.315.095-.415.107-.952.107-.537 0-.637-.012-.952-.107-1.204-.368-2.047-1.211-2.415-2.415-.095-.315-.107-.415-.107-.952 0-.537.012-.637.107-.952.545-1.785 2.27-2.839 4.048-2.472" fill="#10161F" fill-rule="evenodd"/></svg>