<svg xmlns="http://www.w3.org/2000/svg" width="24" height="24" viewBox="0 0 24 24" fill="none"><path d="M11.28 2.024c-2.109.185-3.979.926-5.561 2.201-1.675 1.351-2.908 3.28-3.416 5.346-.216.881-.277 1.41-.277 2.429s.061 1.548.277 2.429c.886 3.607 3.839 6.502 7.457 7.311.844.189 1.287.236 2.24.236.953 0 1.396-.047 2.24-.236 3.618-.809 6.571-3.704 7.457-7.311.213-.869.276-1.413.278-2.409.001-.976-.043-1.404-.235-2.26-.458-2.049-1.658-4.025-3.26-5.369-1.824-1.531-3.915-2.321-6.26-2.368a15.89 15.89 0 0 0-.94.001m1.54 2.017c2.788.311 5.174 1.99 6.38 4.488a7.95 7.95 0 0 1-.001 6.945A8.02 8.02 0 0 1 12 19.999a8.014 8.014 0 0 1-7.2-4.528 7.948 7.948 0 0 1 0-6.942A7.973 7.973 0 0 1 8.529 4.8c1.323-.64 2.886-.916 4.291-.759M11.24 6.58a3.66 3.66 0 0 0-2.744 2.652c-.126.496-.137 1.044-.026 1.294a.985.985 0 0 0 1.651.243.868.868 0 0 0 .239-.601c0-.073.028-.256.063-.408.316-1.392 2.163-1.712 2.941-.509.209.323.302.742.244 1.094-.102.613-.401.99-1.032 1.299-1.084.531-1.573 1.214-1.575 2.199-.001.395.086.646.298.858.644.644 1.701.172 1.701-.761 0-.258.048-.305.56-.553a3.618 3.618 0 0 0 1.943-2.374 3.92 3.92 0 0 0 .001-1.78A3.698 3.698 0 0 0 12.94 6.62c-.337-.095-1.35-.118-1.7-.04m.403 9.489c-.352.124-.643.545-.643.931 0 .242.119.521.299.701a.993.993 0 0 0 1.57-.212c.095-.161.111-.233.111-.489s-.016-.328-.111-.489a1.006 1.006 0 0 0-1.226-.442" fill="#10161F" fill-rule="evenodd"/></svg>