<svg xmlns="http://www.w3.org/2000/svg" width="24" height="24" viewBox="0 0 24 24" fill="none"><path d="M5.21 4.74c-.479.244-1.468 1.494-2.042 2.58a10.014 10.014 0 0 0 1.529 11.508c.398.426.637.551.996.523.287-.023.449-.096.639-.286.202-.201.283-.404.283-.705-.001-.335-.081-.491-.475-.92a7.694 7.694 0 0 1-1.34-1.969c-1.436-2.972-.911-6.459 1.34-8.911.394-.429.474-.585.475-.92 0-.301-.081-.504-.283-.705-.193-.193-.357-.265-.652-.284-.223-.015-.29-.002-.47.089m12.855-.059c-.434.13-.752.629-.685 1.075.04.266.14.434.48.804.578.63.976 1.214 1.34 1.969 1.435 2.97.91 6.46-1.34 8.911-.392.427-.473.585-.476.92-.002.3.078.499.284.705.19.19.352.263.639.286.365.029.598-.096 1.014-.543 3.036-3.263 3.536-8.145 1.228-11.988-.529-.88-1.383-1.89-1.757-2.076a1.027 1.027 0 0 0-.727-.063M8.052 7.556c-.374.174-1.04 1.019-1.449 1.835-.657 1.315-.772 3.022-.299 4.469.275.843.747 1.63 1.36 2.27.336.35.517.444.856.445.301 0 .504-.081.705-.283.219-.219.273-.357.273-.692 0-.364-.051-.473-.403-.853-.891-.965-1.267-2.27-1.013-3.519a3.934 3.934 0 0 1 .916-1.86c.4-.463.454-.58.436-.942-.019-.372-.161-.625-.451-.804-.256-.159-.67-.188-.931-.066m7.122.022c-.36.156-.596.534-.589.942.005.293.077.448.364.781.871 1.011 1.218 2.246.972 3.456-.15.735-.439 1.317-.951 1.912-.361.421-.41.526-.41.881 0 .237.017.302.13.49.179.298.43.451.776.473.365.023.547-.057.867-.385a5.887 5.887 0 0 0 1.338-2.188c.497-1.457.397-3.191-.261-4.52-.412-.832-1.056-1.656-1.426-1.824-.197-.089-.624-.099-.81-.018m-3.697 2.495c-.859.224-1.484 1.053-1.475 1.955.01.957.738 1.793 1.688 1.939.653.1 1.244-.094 1.713-.564.324-.324.498-.66.564-1.093A1.995 1.995 0 0 0 12 10.005c-.143 0-.378.031-.523.068" fill="#10161F" fill-rule="evenodd"/></svg>