<svg xmlns="http://www.w3.org/2000/svg" width="24" height="24" viewBox="0 0 24 24" fill="none"><path d="m11.28 2.023-.52.06c-2.496.285-4.968 1.665-6.562 3.661-.375.47-.845 1.205-1.125 1.76-.227.45-.248.513-.247.744.002.289.071.477.251.682.282.322.787.41 1.192.208.248-.124.342-.242.602-.759a7.667 7.667 0 0 1 1.575-2.12A7.375 7.375 0 0 1 8.529 4.8c2.727-1.318 5.941-.982 8.371.874.339.26 1.025.932 1.311 1.286.335.415.682.949.91 1.403.207.412.407.882.385.904-.007.008-.252-.04-.544-.107-.673-.152-.954-.156-1.236-.016-.675.337-.801 1.333-.226 1.796.349.28 2.281 1.556 2.475 1.633.149.06.297.082.545.083.297 0 .374-.015.602-.122.353-.165.532-.332.681-.633.153-.313.184-.602.119-1.128-.305-2.474-1.581-4.828-3.482-6.423-.812-.681-1.995-1.368-2.977-1.73a12.865 12.865 0 0 0-2.063-.519c-.434-.064-1.805-.114-2.12-.078M3.169 11.36c-.243.051-.63.268-.776.434-.302.344-.399.783-.317 1.428a10.018 10.018 0 0 0 3.713 6.607c1.43 1.137 3.067 1.825 4.991 2.098.545.077 2.015.065 2.58-.021 1.587-.243 2.887-.734 4.141-1.565a10.01 10.01 0 0 0 3.421-3.836c.231-.458.253-.523.253-.755a1 1 0 0 0-.601-.935c-.22-.092-.607-.071-.843.047-.248.124-.342.242-.602.759a7.667 7.667 0 0 1-1.575 2.12 7.375 7.375 0 0 1-2.083 1.459c-2.727 1.318-5.941.982-8.371-.874a10.805 10.805 0 0 1-1.311-1.286 8.418 8.418 0 0 1-.91-1.403c-.207-.412-.407-.882-.385-.904.007-.008.255.041.55.109.693.159 1.013.154 1.296-.022.385-.24.6-.731.509-1.166-.085-.405-.168-.483-1.43-1.342-.638-.434-1.257-.827-1.376-.873a1.764 1.764 0 0 0-.874-.079" fill="#10161F" fill-rule="evenodd"/></svg>