<svg xmlns="http://www.w3.org/2000/svg" width="24" height="24" viewBox="0 0 24 24" fill="none"><path d="M18.013 1.645c-.196.095-.428.31-.514.478-.034.065-.113.371-.175.679a6.787 6.787 0 0 1-.132.579c-.01.01-.313-.131-.675-.312-1.328-.669-2.536-.991-3.977-1.063-1.772-.087-3.322.221-4.88.97A9.936 9.936 0 0 0 2.305 9.56a9.13 9.13 0 0 0-.291 2.06 9.935 9.935 0 0 0 2.783 7.272c.95.979 1.909 1.66 3.1 2.198 3.168 1.433 6.956 1.082 9.796-.906 2.631-1.842 4.235-4.813 4.279-7.927.008-.562.008-.562-.113-.76a.998.998 0 0 0-1.714-.006c-.108.175-.119.231-.147.721-.051.883-.161 1.498-.402 2.242a7.92 7.92 0 0 1-2.171 3.383c-1.511 1.393-3.383 2.127-5.425 2.125-.94 0-1.673-.118-2.538-.408a7.986 7.986 0 0 1-5.448-7.874 7.961 7.961 0 0 1 1.92-4.913c1.601-1.887 4.146-2.956 6.59-2.769 2.054.157 3.725.934 5.221 2.427.424.423.563.537.718.59.22.075.579.08.764.012.377-.139.674-.51.718-.896.019-.168-.343-3.481-.412-3.769a1.105 1.105 0 0 0-.613-.719c-.245-.111-.676-.11-.907.002M8.14 7.565c-.74.171-1.41.696-1.74 1.365-.146.296-.173.386-.171.584.003.298.11.542.319.731.198.178.403.252.692.249a.965.965 0 0 0 .86-.534c.192-.375.459-.514.832-.434.437.094.659.516.51.968-.065.197-.357.455-.548.485l-.292.046c-.277.043-.511.215-.705.515-.061.095-.077.192-.077.46s.016.365.077.46c.229.354.472.503.873.531.259.019.278.028.468.214.146.144.206.239.232.365a.804.804 0 0 1-.112.593c-.176.246-.633.35-.917.207-.133-.067-.179-.124-.394-.479a.954.954 0 0 0-.738-.44c-.45-.036-.783.145-.971.53-.162.331-.152.615.036.993a2.618 2.618 0 0 0 2.005 1.428 2.656 2.656 0 0 0 1.62-.252c.282-.134.4-.222.702-.526.561-.564.777-1.083.778-1.868a2.67 2.67 0 0 0-.512-1.615l-.12-.159.111-.141c.477-.606.651-1.526.442-2.341-.227-.886-1.014-1.673-1.9-1.9-.339-.087-1.057-.105-1.36-.035m6.231.01c-.87.22-1.644 1.027-1.809 1.886-.033.169-.043.952-.034 2.679.012 2.414.013 2.442.102 2.677a2.667 2.667 0 0 0 1.553 1.553c.205.076.316.088.817.088.501 0 .612-.012.817-.088a2.667 2.667 0 0 0 1.553-1.553c.09-.236.09-.243.09-2.817 0-2.574 0-2.581-.09-2.817a2.657 2.657 0 0 0-1.553-1.55c-.297-.108-1.118-.141-1.446-.058m.898 2.01c.05.031.122.105.16.164.066.099.071.27.071 2.251 0 1.981-.005 2.152-.071 2.251a.501.501 0 0 1-.858 0c-.065-.098-.072-.276-.083-2.109-.007-1.101-.001-2.078.012-2.172.057-.391.447-.586.769-.385" fill="#10161F" fill-rule="evenodd"/></svg>