<svg xmlns="http://www.w3.org/2000/svg" width="24" height="24" viewBox="0 0 24 24" fill="none"><path d="M5.08 1.643a1.105 1.105 0 0 0-.613.719c-.04.166-.427 3.522-.427 3.701 0 .249.21.637.428.792.236.167.388.218.655.222.414.006.547-.071 1.13-.652 1.078-1.074 2.175-1.736 3.521-2.127a7.955 7.955 0 0 1 6.166.722c2.122 1.203 3.524 3.224 3.966 5.72.099.558.099 1.874.001 2.46-.441 2.632-2.053 4.814-4.401 5.956a7.736 7.736 0 0 1-3.506.806c-2.589.002-4.974-1.223-6.505-3.342a8.29 8.29 0 0 1-1.301-2.92C4.093 13.245 4 12.503 4 12.158c0-.497-.162-.822-.511-1.027-.161-.095-.233-.111-.489-.111-.257 0-.327.016-.492.113-.222.13-.409.37-.472.602-.081.299.03 1.574.207 2.39.526 2.427 1.987 4.605 4.064 6.059 2.548 1.784 5.845 2.26 8.833 1.277a10.013 10.013 0 0 0 6.703-7.749c.768-4.386-1.442-8.744-5.423-10.694a13.53 13.53 0 0 0-.997-.439c-1.829-.671-3.997-.773-5.923-.28-.735.189-1.261.389-2.017.77-.362.181-.665.322-.674.313a7.51 7.51 0 0 1-.135-.586c-.132-.634-.171-.731-.377-.931a1.133 1.133 0 0 0-1.217-.222m3.496 5.958c-.089.045-.53.328-.978.63-.995.67-1.058.745-1.058 1.269 0 .293.012.346.121.522.179.289.433.433.799.452.21.01.322-.003.413-.05l.125-.065.011 2.711c.011 2.702.011 2.71.099 2.874.102.19.33.403.518.481.169.071.579.071.748 0a1.21 1.21 0 0 0 .518-.481l.088-.164V8.22l-.086-.16a1.126 1.126 0 0 0-.503-.478c-.215-.09-.614-.08-.815.019m3.724-.025c-.354.111-.692.411-.886.784l-.114.22v2.6l.135.249c.248.457.702.782 1.185.848.235.032.419.013.937-.096.776-.164 1.337.084 1.564.691a1.192 1.192 0 0 1-1.505 1.553 1.213 1.213 0 0 1-.66-.576c-.175-.312-.301-.442-.536-.554-.352-.166-.819-.099-1.094.157-.172.161-.299.466-.302.728-.003.197.022.293.14.54.3.624.759 1.09 1.394 1.415.577.296 1.121.4 1.772.337a3.212 3.212 0 0 0 2.634-1.949c.249-.593.297-1.465.116-2.116a3.167 3.167 0 0 0-2.195-2.173c-.325-.087-1.197-.122-1.497-.061l-.151.031.011-.352.012-.352 1.42-.02c1.565-.022 1.529-.016 1.788-.287a.99.99 0 0 0-.033-1.421c-.268-.254-.251-.252-2.204-.249-1.305.002-1.813.016-1.931.053" fill="#10161F" fill-rule="evenodd"/></svg>