<svg width="24" height="24" viewBox="0 0 24 24" fill="none" xmlns="http://www.w3.org/2000/svg"><path d="M9.013 5.678c-.358.162-.512.639-.326 1.002.075.145.166.228.473.427.649.421 1.038.698 1.559 1.11.554.44 1.754 1.614 2.188 2.143.37.451.933 1.213 1.07 1.45l.111.19-.111.19c-.137.237-.7.999-1.07 1.45-.428.522-1.629 1.697-2.188 2.142-.517.41-.901.684-1.559 1.111-.307.199-.398.282-.473.427-.303.589.287 1.269.9 1.038.147-.056.856-.505 1.313-.833 1.029-.738 2.198-1.806 2.992-2.736.59-.692 1.28-1.637 1.477-2.024.17-.333.171-.339.171-.762 0-.414-.005-.437-.151-.733-.173-.35-.745-1.155-1.302-1.83-.474-.576-1.691-1.792-2.247-2.246-.738-.602-1.952-1.438-2.253-1.552a.774.774 0 0 0-.574.036" fill="#10161F" fill-rule="evenodd"/></svg>