<svg xmlns="http://www.w3.org/2000/svg" width="24" height="24" viewBox="0 0 24 24" fill="none"><path d="M8.875 4.93c-.314.11-.502.246-.717.517a1.472 1.472 0 0 0 .067 1.873c.085.094.461.373.837.621.377.248.917.636 1.201.862.568.452 1.604 1.464 2.043 1.997.447.542.898 1.171.878 1.225-.031.079-.571.802-.878 1.175-.437.531-1.474 1.544-2.043 1.997-.284.226-.83.618-1.213.87-.383.253-.749.517-.814.586-.299.324-.453.895-.356 1.314.111.476.473.905.91 1.079.312.123.828.128 1.09.009.239-.108.958-.56 1.48-.93 1.41-1 2.856-2.424 3.904-3.845.663-.898.858-1.24.979-1.71.186-.728.037-1.378-.496-2.17-1.209-1.795-2.774-3.4-4.467-4.584-.511-.357-1.164-.765-1.377-.859a1.486 1.486 0 0 0-1.028-.027" fill="#10161F" fill-rule="evenodd"/></svg>