<svg xmlns="http://www.w3.org/2000/svg" width="24" height="24" viewBox="0 0 24 24" fill="none"><path d="M16.18 2.383c-1.12.108-1.556.184-2.403.418-1.575.436-3.045 1.205-4.437 2.321-.582.467-1.607 1.471-2.058 2.018-.727.881-.705.869-1.682.904-.593.021-.784.042-.963.107-.584.21-1.072.536-1.385.924-.177.22-.748 1.341-.931 1.825-.111.297-.15.829-.083 1.151.118.567.571 1.171 1.067 1.421.133.068.473.188.756.267.282.08.708.208.946.285l.433.14-.203.248c-.411.503-.901 1.697-1.221 2.977-.13.519-.144.623-.126.941.018.315.039.395.183.686.352.71.978 1.104 1.751 1.104.312 0 .865-.128 1.75-.404.913-.286 1.599-.613 2.048-.979l.216-.176.184.589.319 1.02c.079.25.196.522.28.649.287.433.787.789 1.26.898.31.071.853.053 1.124-.039.28-.094 1.357-.626 1.658-.818.402-.257.806-.74 1.026-1.225.18-.397.242-.729.237-1.266-.007-.801.028-.86.994-1.652.633-.518 1.638-1.525 2.094-2.097 1.49-1.868 2.339-3.864 2.604-6.12.135-1.148.036-2.931-.204-3.68-.338-1.055-1.239-1.932-2.294-2.233-.388-.11-1.158-.19-1.98-.205-.44-.008-.872-.007-.96.001m1.822 2.034c.605.075.866.176 1.132.437.433.424.523.83.525 2.366.001.816-.014 1.128-.069 1.447-.306 1.766-1.011 3.308-2.165 4.733-.422.522-1.182 1.27-1.887 1.86-.758.633-.954.836-1.18 1.224-.315.538-.406.902-.415 1.656-.011.848-.08.943-1.017 1.386-.307.145-.577.252-.601.237-.024-.015-.116-.283-.204-.596-.698-2.468-1.608-4.235-2.637-5.115-.985-.843-2.547-1.572-4.656-2.173-.604-.172-.628-.181-.628-.251-.001-.097.496-1.15.606-1.283.063-.076.199-.179.302-.229.173-.083.237-.091.75-.082.644.01 1.001-.06 1.482-.289.458-.218.752-.474 1.36-1.183 2.121-2.473 4.374-3.787 7.1-4.142.533-.069 1.654-.071 2.202-.003m-4.156 3.386c-.509.067-1.036.409-1.339.869-.282.429-.327.59-.327 1.168 0 .483.005.51.132.779.27.569.697.961 1.248 1.143.349.115.877.116 1.243.001 1.411-.441 1.89-2.23.888-3.323-.461-.503-1.123-.732-1.845-.637m.372 2.04a.044.044 0 1 1-.076-.046.044.044 0 0 1 .076.046m-6.339 5.58c.157.047.267.117.42.271.334.334.422.727.259 1.161-.138.37-.388.543-1.198.83-.269.095-1.411.435-1.463.435-.022 0 .229-.897.369-1.317.214-.643.415-1.045.598-1.196.28-.232.635-.296 1.015-.184" fill="#10161F" fill-rule="evenodd"/></svg>