<svg xmlns="http://www.w3.org/2000/svg" width="24" height="24" viewBox="0 0 24 24" fill="none"><path d="M11.08 2.045c-1.874.165-3.723.904-5.28 2.109-.437.339-1.307 1.209-1.646 1.646-1.8 2.326-2.505 5.195-1.976 8.046.29 1.566.959 3.04 1.976 4.354.339.437 1.209 1.307 1.646 1.646 2.441 1.889 5.453 2.566 8.44 1.895 2.487-.559 4.752-2.144 6.145-4.301.806-1.247 1.283-2.527 1.521-4.08.098-.641.098-2.079 0-2.72-.285-1.858-.936-3.388-2.06-4.84-.339-.437-1.209-1.307-1.646-1.646-2.067-1.599-4.554-2.336-7.12-2.109m1.752 1.997a8.182 8.182 0 0 1 4.208 1.747c.354.286 1.027.972 1.286 1.311A8.123 8.123 0 0 1 20 12a8.1 8.1 0 0 1-1.789 5.04c-.286.354-.972 1.027-1.311 1.286A8.123 8.123 0 0 1 12 20a8.123 8.123 0 0 1-4.9-1.674c-.339-.259-1.025-.932-1.311-1.286A7.99 7.99 0 0 1 4.8 8.529a7.375 7.375 0 0 1 1.459-2.083 7.632 7.632 0 0 1 2.267-1.645 8.025 8.025 0 0 1 4.306-.759" fill="#10161F" fill-rule="evenodd"/></svg>