<svg xmlns="http://www.w3.org/2000/svg" width="24" height="24" viewBox="0 0 24 24" fill="none"><path d="M8.24 2.546c-2.117.11-3.311.502-4.229 1.387-.813.783-1.204 1.745-1.401 3.439-.062.542-.07 1.047-.07 4.628 0 3.581.008 4.086.07 4.628.197 1.694.588 2.656 1.401 3.439.804.775 1.708 1.131 3.361 1.323.542.062 1.047.07 4.628.07 3.581 0 4.086-.008 4.628-.07 1.653-.192 2.557-.548 3.361-1.323.813-.783 1.204-1.745 1.401-3.439.062-.542.07-1.047.07-4.628 0-3.581-.008-4.086-.07-4.628-.197-1.694-.588-2.656-1.401-3.439-.796-.768-1.702-1.128-3.32-1.319-.49-.058-1.094-.068-4.369-.074-2.09-.004-3.917-.001-4.06.006m1.1 4.494c2.476.272 4.679 1.553 6.087 3.54 1.06 1.495 1.627 3.369 1.565 5.167-.015.43-.033.544-.11.704a1.06 1.06 0 0 1-.618.53c-.252.075-.328.074-.579-.007a.976.976 0 0 1-.605-.542c-.079-.184-.09-.272-.084-.692.024-1.916-.614-3.527-1.913-4.822-1.306-1.302-2.917-1.941-4.823-1.913-.421.006-.506-.004-.69-.084-.373-.162-.582-.485-.582-.901 0-.489.302-.864.792-.983.181-.044 1.152-.042 1.56.003m-.411 3.543a5.77 5.77 0 0 1 2.25.93 6.866 6.866 0 0 1 1.308 1.308c.611.86.984 1.979 1.002 3.003.005.301-.01.434-.063.556-.154.353-.552.619-.926.619-.373 0-.777-.269-.921-.615-.036-.086-.081-.356-.1-.6-.074-.942-.371-1.596-1.019-2.244-.648-.648-1.302-.945-2.244-1.019-.494-.039-.691-.104-.891-.293a.984.984 0 0 1-.231-1.128c.148-.316.391-.505.766-.594.119-.028.671.012 1.069.077m.172 3.552c.313.143.622.45.766.761.098.21.113.293.113.604 0 .31-.015.393-.112.6a1.698 1.698 0 0 1-.764.767c-.21.098-.293.113-.604.113-.31 0-.393-.015-.6-.112a1.698 1.698 0 0 1-.767-.764c-.098-.21-.113-.293-.113-.604 0-.32.014-.389.124-.62.273-.573.795-.893 1.417-.867.223.009.362.041.54.122" fill="#10161F" fill-rule="evenodd"/></svg>