<svg xmlns="http://www.w3.org/2000/svg" width="24" height="24" viewBox="0 0 24 24" fill="none"><path d="M10.995 2.044C7.799 2.29 5.173 3.742 3.589 6.14c-.297.449-.774 1.425-.968 1.98-.441 1.259-.657 2.799-.606 4.32.065 1.937.382 3.346 1.068 4.746 1.009 2.059 2.727 3.493 5.089 4.248 2.316.741 5.34.741 7.656 0 3.049-.974 5.023-3.087 5.807-6.214.285-1.133.424-2.873.33-4.11-.205-2.691-1.084-4.761-2.704-6.37-1.99-1.977-4.972-2.95-8.266-2.696m2.485 2.055c2.379.366 4.155 1.433 5.29 3.181.986 1.519 1.399 3.62 1.172 5.961-.326 3.358-1.954 5.476-4.882 6.35-1.825.545-4.295.545-6.12 0-2.832-.846-4.432-2.838-4.859-6.051-.083-.624-.095-2.026-.024-2.7.297-2.799 1.634-4.85 3.883-5.959.93-.458 1.823-.696 3.22-.857.328-.038 1.921.013 2.32.075m-5.306 3.94c-.425.09-.847.439-1.04.861-.095.206-.111.291-.11.6 0 .308.016.396.111.604.141.31.449.617.765.762.206.095.292.111.6.111s.394-.016.6-.111c.316-.145.624-.452.765-.762.095-.209.111-.296.111-.604s-.016-.395-.111-.604a1.658 1.658 0 0 0-.746-.753 1.794 1.794 0 0 0-.945-.104m7 0c-.425.09-.847.439-1.04.861-.095.206-.111.291-.11.6 0 .308.016.396.111.604.141.31.449.617.765.762.206.095.292.111.6.111s.394-.016.6-.111c.316-.145.624-.452.765-.762.095-.209.111-.296.111-.604s-.016-.395-.111-.604a1.658 1.658 0 0 0-.746-.753 1.794 1.794 0 0 0-.945-.104m-3.894 5.022c-1.067.147-2.444.862-2.787 1.447-.359.613.049 1.392.774 1.478.287.034.499-.049.898-.353.598-.455 1.068-.611 1.835-.611.767 0 1.243.16 1.848.621.383.293.599.377.885.343.571-.068.952-.536.894-1.098-.027-.267-.164-.503-.413-.711a5.036 5.036 0 0 0-3.934-1.116" fill="#10161F" fill-rule="evenodd"/></svg>