<svg xmlns="http://www.w3.org/2000/svg" width="24" height="24" viewBox="0 0 24 24" fill="none"><path d="M11.64 2.226c-.659.099-.893.176-3.351 1.099-2.373.892-2.719 1.028-3.101 1.221-.822.414-1.378.976-1.774 1.794C3.042 7.111 3 7.535 3 10.516c.001 2.311.031 2.861.199 3.669.463 2.229 1.79 4.216 3.701 5.544.39.271 1.534.926 2.082 1.192 1.04.506 2.054.711 3.297.667 1.369-.049 2.179-.314 3.821-1.25 1.052-.599 1.63-1.024 2.281-1.676a8.985 8.985 0 0 0 2.578-5.582c.053-.598.053-4.599 0-5.251-.051-.629-.151-1.029-.373-1.489-.492-1.017-1.147-1.574-2.474-2.104-.922-.367-4.676-1.758-4.996-1.851-.534-.154-1.102-.215-1.476-.159m1.04 2.116c.364.115 4.051 1.494 4.798 1.794.247.099.536.236.642.304.371.238.651.616.787 1.06.068.222.073.437.073 2.9 0 2.966-.004 3.019-.286 3.96-.174.581-.643 1.535-1.003 2.038-.337.472-1.037 1.182-1.509 1.533-.383.285-1.564.974-2.066 1.205A4.75 4.75 0 0 1 12 19.6a4.75 4.75 0 0 1-2.116-.464c-.502-.231-1.683-.92-2.066-1.205-.472-.351-1.172-1.061-1.509-1.533-.36-.503-.829-1.457-1.003-2.038-.282-.941-.286-.994-.286-3.96 0-2.463.005-2.678.073-2.9.136-.444.416-.822.787-1.06.237-.152.598-.298 2.78-1.12 2.917-1.1 3.012-1.131 3.42-1.103.143.009.413.066.6.125m2.833 4.394c-.277.074-1.232.799-2.253 1.71a23.692 23.692 0 0 0-2.291 2.379l-.169.206-.483-.476c-.536-.527-1.288-1.158-1.524-1.278-.483-.247-1.088-.036-1.334.465-.054.11-.077.243-.078.438-.001.395.108.567.63.986a15.386 15.386 0 0 1 1.823 1.823c.205.255.395.448.505.513.346.202.833.162 1.126-.093.069-.06.29-.33.492-.6 1.139-1.524 2.452-2.829 4.111-4.084.417-.316.504-.401.592-.582.277-.565 0-1.227-.585-1.401-.246-.073-.312-.074-.562-.006" fill="#10161F" fill-rule="evenodd"/></svg>