<svg xmlns="http://www.w3.org/2000/svg" width="24" height="24" viewBox="0 0 24 24" fill="none"><path d="M9.68 2.043A8.565 8.565 0 0 0 4.009 5.02C3.01 6.204 2.351 7.662 2.094 9.26c-.087.544-.098 1.828-.019 2.36.423 2.868 2.094 5.203 4.632 6.474.781.392 1.51.627 2.45.792.672.118 1.922.128 2.583.019 1.391-.228 2.464-.654 3.614-1.436l.413-.282 1.867 1.863c1.299 1.297 1.921 1.89 2.046 1.953.226.112.551.122.807.024.223-.085.481-.35.556-.57.081-.24.064-.567-.041-.777-.062-.125-.66-.751-1.951-2.045l-1.861-1.866.342-.514c.85-1.282 1.292-2.531 1.431-4.046.138-1.502-.171-3.109-.865-4.494a8.42 8.42 0 0 0-2.065-2.659A8.618 8.618 0 0 0 9.68 2.043m1.563 4.022a4.511 4.511 0 0 1 3.692 3.692c.094.548.085.898-.029 1.143-.29.622-1.061.793-1.558.345A1.063 1.063 0 0 1 13 10.48a2.56 2.56 0 0 0-.741-1.739A2.56 2.56 0 0 0 10.52 8a1.063 1.063 0 0 1-.765-.348c-.448-.497-.277-1.268.345-1.558.245-.114.595-.123 1.143-.029" fill="#10161F" fill-rule="evenodd"/></svg>