<svg xmlns="http://www.w3.org/2000/svg" width="24" height="24" viewBox="0 0 24 24" fill="none"><path d="M9.84 2.025c-2.094.192-3.893 1.025-5.341 2.474-1.306 1.306-2.108 2.887-2.406 4.746-.092.572-.092 1.938 0 2.51.298 1.859 1.1 3.44 2.406 4.746 1.301 1.302 2.893 2.109 4.746 2.406.572.092 1.938.092 2.51 0a8.79 8.79 0 0 0 3.777-1.556l.231-.165 1.909 1.901c1.714 1.709 1.928 1.909 2.105 1.967.812.27 1.546-.45 1.283-1.259-.066-.202-.189-.334-1.972-2.123l-1.902-1.909.165-.231a8.79 8.79 0 0 0 1.556-3.777c.092-.572.092-1.938 0-2.51-.297-1.853-1.104-3.445-2.406-4.746a8.417 8.417 0 0 0-4.726-2.4c-.391-.06-1.587-.106-1.935-.074m1.761 2.07c2.735.497 4.797 2.564 5.309 5.325.092.495.092 1.665 0 2.16-.514 2.771-2.559 4.816-5.33 5.33-.495.092-1.665.092-2.16 0-2.504-.465-4.468-2.22-5.159-4.609a6.485 6.485 0 0 1 1.747-6.482 6.497 6.497 0 0 1 3.626-1.761c.478-.068 1.49-.049 1.967.037M10.24 6.037a1.075 1.075 0 0 0-.658.572A1.256 1.256 0 0 0 9.52 7c0 .286.076.49.252.674.21.218.396.29.856.33.857.075 1.491.435 1.949 1.109.245.36.374.748.419 1.259.041.473.117.664.349.867.205.18.37.241.655.241.285 0 .45-.061.655-.241.307-.27.379-.552.307-1.213a4.486 4.486 0 0 0-3.902-3.982c-.405-.049-.672-.052-.82-.007" fill="#10161F" fill-rule="evenodd"/></svg>