<svg xmlns="http://www.w3.org/2000/svg" width="24" height="24" viewBox="0 0 24 24" fill="none"><path d="M9.54 3.023c-.825.079-1.29.177-1.92.404A7.02 7.02 0 0 0 3.205 8.34a7.56 7.56 0 0 0 0 3.32 7.04 7.04 0 0 0 5.135 5.135 7.56 7.56 0 0 0 3.32 0c.743-.18 1.647-.581 2.24-.992l.28-.194 2.64 2.632c2.552 2.544 2.647 2.634 2.857 2.695.271.08.375.08.633.003.279-.083.546-.35.629-.629.077-.258.077-.362-.003-.633-.061-.21-.151-.305-2.695-2.857l-2.632-2.64.194-.28c.411-.593.812-1.497.992-2.24a7.56 7.56 0 0 0 0-3.32c-.66-2.717-2.951-4.827-5.693-5.242-.376-.057-1.289-.101-1.562-.075M11 5.101c1 .218 1.8.655 2.522 1.377a4.763 4.763 0 0 1 1.21 1.922c.19.556.248.93.248 1.6 0 1.063-.259 1.921-.848 2.812-.245.37-.95 1.075-1.32 1.32-.891.589-1.749.848-2.812.848-1.062 0-1.92-.259-2.815-.848-.366-.242-1.075-.951-1.317-1.317-.589-.895-.848-1.753-.848-2.815s.259-1.92.848-2.815c.242-.366.951-1.075 1.317-1.317.687-.452 1.228-.655 2.255-.844.211-.039 1.27.013 1.56.077" fill="#10161F" fill-rule="evenodd"/></svg>