<svg xmlns="http://www.w3.org/2000/svg" width="24" height="24" viewBox="0 0 24 24" fill="none"><path d="M11.18 1.948c-.276.035-.965.226-1.291.357-.517.207-1.395.674-2.809 1.493C4.725 5.162 4.113 5.64 3.461 6.62c-.547.823-.812 1.561-.95 2.644-.07.554-.07 4.918 0 5.472.109.856.228 1.268.567 1.964.547 1.125 1.26 1.847 2.677 2.714 1.015.621 3.009 1.752 3.546 2.011 1.015.489 1.696.655 2.699.655 1.361 0 2.094-.261 4.32-1.537 2.826-1.621 3.448-2.077 4.125-3.023.266-.371.663-1.151.792-1.555.268-.835.302-1.289.302-3.965s-.034-3.13-.302-3.965c-.129-.405-.527-1.184-.798-1.565-.653-.915-1.239-1.354-3.759-2.811-1.96-1.134-2.829-1.53-3.677-1.675-.35-.059-1.472-.082-1.823-.036m1.401 7.114a3 3 0 0 1 2.357 2.357c.427 2.063-1.456 3.946-3.519 3.519a2.993 2.993 0 0 1-2.357-2.357c-.376-1.817 1.04-3.558 2.91-3.578.171-.002.445.025.609.059" fill="#10161F" fill-rule="evenodd"/></svg>