<svg xmlns="http://www.w3.org/2000/svg" width="24" height="24" viewBox="0 0 24 24" fill="none"><path d="M11.14 2.026c-1.011.145-2.023.628-4.86 2.32-1.101.656-1.546.969-2.023 1.424a5.597 5.597 0 0 0-1.593 2.951C2.546 9.363 2.52 9.946 2.52 12s.026 2.637.144 3.279c.257 1.401 1.11 2.705 2.336 3.569.427.301 1.556.982 2.84 1.712 2.137 1.216 2.818 1.454 4.16 1.454s2.023-.238 4.16-1.454c1.289-.733 2.414-1.411 2.839-1.712 1.229-.869 2.08-2.168 2.337-3.569.118-.642.144-1.225.144-3.279s-.026-2.637-.144-3.279c-.26-1.413-1.094-2.686-2.338-3.569-.696-.494-3.125-1.914-4.2-2.456-1.288-.65-2.392-.852-3.658-.67m1.506 1.991c.702.135 1.291.426 3.614 1.782 1.553.906 2.035 1.259 2.426 1.776.369.488.578.947.696 1.525.135.66.171 4.329.053 5.415-.08.742-.343 1.401-.774 1.942-.404.507-.907.871-2.438 1.764-2.696 1.572-3.264 1.816-4.223 1.816-.95 0-1.518-.242-4.12-1.757-1.977-1.151-2.476-1.558-2.901-2.368-.353-.67-.41-.991-.466-2.602-.053-1.506.002-3.72.104-4.21a3.59 3.59 0 0 1 .697-1.525c.39-.515.876-.871 2.41-1.767 2.335-1.362 2.913-1.65 3.596-1.788a4.212 4.212 0 0 1 1.326-.003m-1.288 4.044a4.013 4.013 0 0 0-2.894 2.099 3.63 3.63 0 0 0-.406 1.235 3.416 3.416 0 0 0 0 1.21c.222 1.469 1.266 2.705 2.697 3.192.295.1.925.203 1.245.203.32 0 .95-.103 1.245-.203.984-.335 1.831-1.058 2.291-1.957a3.63 3.63 0 0 0 .406-1.235 3.416 3.416 0 0 0 0-1.21 3.986 3.986 0 0 0-2.102-2.931 3.63 3.63 0 0 0-1.235-.406 3.728 3.728 0 0 0-1.247.003m1.134 1.999c.36.093.626.25.912.536.296.295.448.561.536.933a2.05 2.05 0 0 1-.169 1.408c-.133.263-.575.703-.841.838a2.047 2.047 0 0 1-1.86 0c-.269-.136-.709-.576-.845-.845a2.047 2.047 0 0 1 0-1.86c.137-.27.576-.709.846-.845a2.078 2.078 0 0 1 1.421-.165" fill="#10161F" fill-rule="evenodd"/></svg>