<svg xmlns="http://www.w3.org/2000/svg" width="24" height="24" viewBox="0 0 24 24" fill="none"><path d="M11.643 2.069a1.066 1.066 0 0 0-.577.591c-.05.148-.066.342-.066.807 0 .609-.001.613-.09.613-.198.001-1.067.208-1.52.362-.264.09-.495.149-.512.131a9.42 9.42 0 0 1-.298-.493c-.307-.53-.408-.648-.651-.765-.213-.104-.599-.112-.818-.019-.391.168-.61.535-.584.982.014.245.037.303.326.803l.312.539-.193.158c-.248.203-.991.946-1.194 1.194l-.158.193-.54-.312c-.515-.298-.553-.313-.82-.325-.243-.012-.309.001-.5.099a.982.982 0 0 0-.357 1.45c.125.173.206.232.807.581.215.125.39.236.39.247 0 .011-.072.233-.161.493-.152.447-.358 1.315-.359 1.512 0 .089-.004.09-.613.09-.73 0-.917.048-1.168.299a.984.984 0 0 0 0 1.402c.251.251.438.299 1.168.299.609 0 .613.001.613.09.001.198.208 1.067.362 1.52.09.264.149.495.131.512a9.42 9.42 0 0 1-.493.298c-.719.418-.858.592-.858 1.08 0 .331.088.529.33.748.205.185.394.244.723.226.248-.015.304-.037.806-.327l.539-.312.158.193c.203.248.946.991 1.194 1.194l.193.158-.312.539c-.289.5-.312.558-.326.803-.026.447.193.814.584.982.219.093.605.085.818-.019.243-.117.344-.235.651-.765a9.42 9.42 0 0 1 .298-.493c.017-.018.248.041.512.131.453.154 1.322.361 1.52.362.089 0 .09.004.09.613 0 .73.048.917.299 1.168a.984.984 0 0 0 1.402 0c.251-.251.299-.438.299-1.168 0-.609.001-.613.09-.613.198-.001 1.067-.208 1.52-.362.264-.09.495-.149.512-.131.017.018.151.24.298.493s.314.51.371.57c.276.292.777.369 1.155.177.375-.19.555-.517.527-.957-.014-.231-.044-.303-.327-.792l-.311-.538.193-.158c.248-.203.991-.946 1.194-1.194l.158-.193.539.312c.502.29.558.312.806.327.329.018.518-.041.723-.226.242-.219.33-.417.33-.748 0-.488-.139-.662-.858-1.08a9.42 9.42 0 0 1-.493-.298c-.018-.017.041-.248.131-.512.154-.453.361-1.322.362-1.52 0-.089.004-.09.613-.09.73 0 .917-.048 1.168-.299a.984.984 0 0 0 0-1.402c-.251-.251-.438-.299-1.168-.299-.609 0-.613-.001-.613-.09-.001-.198-.208-1.067-.362-1.52-.09-.264-.149-.495-.131-.512a9.42 9.42 0 0 1 .493-.298c.719-.418.858-.592.858-1.08 0-.331-.088-.529-.33-.748-.205-.185-.394-.244-.723-.226-.248.015-.304.037-.806.327l-.539.312-.158-.193a14.946 14.946 0 0 0-1.194-1.194l-.193-.158.312-.539c.29-.502.312-.558.327-.806.018-.329-.041-.518-.226-.723-.219-.242-.417-.33-.748-.33-.488 0-.662.139-1.08.858a9.42 9.42 0 0 1-.298.493c-.017.018-.248-.041-.512-.131-.453-.154-1.322-.361-1.52-.362-.089 0-.09-.004-.09-.613 0-.73-.048-.917-.299-1.168a.998.998 0 0 0-1.058-.23M11 8.752v2.672l-2.299 1.328c-1.265.73-2.308 1.328-2.319 1.328-.03 0-.209-.619-.29-1-.108-.514-.098-1.72.019-2.25.515-2.331 2.16-4.059 4.426-4.649.2-.052.385-.096.413-.098.04-.002.05.556.05 2.669m2.529-2.548c1.098.272 2.208.958 2.978 1.841.686.787 1.144 1.71 1.38 2.781.118.536.128 1.741.02 2.254-.082.384-.26 1-.289 1-.011 0-1.054-.598-2.319-1.328L13 11.424V6.078l.11.025c.061.013.249.058.419.101m.779 8.279a171.1 171.1 0 0 1 2.268 1.32c.084.077-.679.803-1.236 1.176a6.242 6.242 0 0 1-2.166.908c-.571.126-1.777.126-2.348 0-1.083-.239-2.007-.7-2.794-1.395-.357-.314-.654-.644-.615-.682.086-.086 4.572-2.646 4.611-2.631.027.009 1.053.596 2.28 1.304" fill="#10161F" fill-rule="evenodd"/></svg>