<svg xmlns="http://www.w3.org/2000/svg" width="24" height="24" viewBox="0 0 24 24" fill="none"><path d="M11.76 3.362c-.841.218-1.534.772-1.885 1.508-.243.509-.329.939-.475 2.37-.046.451-.097.832-.112.846a6.913 6.913 0 0 1-.628.193c-1.565.437-2.781 1.114-3.86 2.148a8.64 8.64 0 0 0-1.813 2.443c-.588 1.163-.887 2.318-.969 3.751-.031.543.023.851.204 1.159.293.501.911.775 1.557.691.332-.042.575-.174 1.053-.569 1.232-1.019 2.612-1.611 4.294-1.84l.186-.026.024.152c.013.084.042.35.066.592.182 1.875.357 2.418.977 3.044.55.555 1.204.85 1.961.884.976.045 1.536-.23 3.58-1.754 2.339-1.744 5.209-4.357 5.865-5.341.712-1.067.712-2.158 0-3.226-.484-.728-2.523-2.675-4.388-4.192-1.437-1.169-3.12-2.371-3.671-2.623-.666-.303-1.332-.374-1.966-.21m.984 1.963c.285.106.928.535 1.957 1.304a39.42 39.42 0 0 1 4.423 3.811c1.592 1.585 1.592 1.535.02 3.1-1.712 1.704-3.738 3.393-5.611 4.676-.805.551-1.034.609-1.491.376-.428-.217-.497-.422-.643-1.89-.134-1.337-.224-1.616-.669-2.06a1.972 1.972 0 0 0-1.63-.581c-.355.036-1.155.175-1.52.264-.994.242-2.278.798-3.075 1.332-.218.146-.404.257-.415.247-.01-.011.021-.204.069-.431.434-2.024 1.761-3.791 3.526-4.694.553-.283.787-.37 1.654-.618.386-.11.779-.238.872-.285.485-.244.842-.659.989-1.151.047-.158.12-.668.18-1.26.154-1.511.233-1.807.543-2.012.131-.087.429-.197.565-.21.016-.002.131.035.256.082" fill="#10161F" fill-rule="evenodd"/></svg>