<svg xmlns="http://www.w3.org/2000/svg" width="24" height="24" viewBox="0 0 24 24" fill="none"><path d="M3.673 4.063C3.31 4.175 3 4.606 3 5c0 .405.309.826.69.939.178.053.803.061 4.81.061s4.632-.008 4.81-.061c.378-.112.69-.537.69-.939 0-.402-.312-.827-.69-.939-.299-.089-9.348-.087-9.637.002m14.002 0c-.215.066-.49.314-.588.53-.061.135-.069.698-.087 6.687l-.02 6.54-.275-.342a9.344 9.344 0 0 1-.524-.74c-.365-.582-.665-.777-1.112-.724a1.008 1.008 0 0 0-.853.735c-.108.369-.035.591.426 1.291a7.672 7.672 0 0 0 2.164 2.214c.585.404.783.484 1.194.484.411 0 .609-.08 1.194-.484a7.716 7.716 0 0 0 2.113-2.134c.489-.733.584-1.014.472-1.392-.151-.508-.707-.826-1.207-.691-.272.073-.481.267-.753.701a9.344 9.344 0 0 1-.524.74l-.275.342-.02-6.54c-.022-7.33.008-6.677-.321-6.997-.267-.259-.625-.337-1.004-.22m-14.002 7C3.31 11.175 3 11.606 3 12c0 .405.309.826.69.939.178.053.803.061 4.81.061s4.632-.008 4.81-.061c.378-.112.69-.537.69-.939 0-.402-.312-.827-.69-.939-.299-.089-9.348-.087-9.637.002m0 7C3.31 18.175 3 18.606 3 19c0 .405.309.826.69.939.308.092 7.312.092 7.62 0 .378-.112.69-.537.69-.939 0-.402-.312-.827-.69-.939-.298-.089-7.349-.087-7.637.002" fill="#10161F" fill-rule="evenodd"/></svg>