<svg xmlns="http://www.w3.org/2000/svg" width="24" height="24" viewBox="0 0 24 24" fill="none"><path d="M17.669 3.281c-.206.052-.428.17-.832.441a7.807 7.807 0 0 0-2.195 2.238c-.464.705-.534.921-.424 1.3.151.518.704.84 1.21.703.272-.073.481-.267.753-.701.137-.219.373-.552.524-.74l.275-.342.02 6.54c.022 7.33-.008 6.677.321 6.997.169.163.456.283.679.283.223 0 .51-.12.679-.283.329-.32.299.333.321-6.997l.02-6.54.275.342c.151.188.387.521.524.74.364.58.665.777 1.108.725.542-.064.964-.59.889-1.107-.079-.537-1.055-1.866-1.896-2.579-.432-.366-1.048-.792-1.335-.924-.249-.114-.67-.158-.916-.096m-13.996.782C3.31 4.175 3 4.606 3 5c0 .405.309.826.69.939.308.092 7.312.092 7.62 0 .378-.112.69-.537.69-.939 0-.402-.312-.827-.69-.939-.298-.089-7.349-.087-7.637.002m0 7C3.31 11.175 3 11.606 3 12c0 .405.309.826.69.939.178.053.803.061 4.81.061s4.632-.008 4.81-.061c.378-.112.69-.537.69-.939 0-.402-.312-.827-.69-.939-.299-.089-9.348-.087-9.637.002m0 7C3.31 18.175 3 18.606 3 19c0 .405.309.826.69.939.178.053.803.061 4.81.061s4.632-.008 4.81-.061c.378-.112.69-.537.69-.939 0-.402-.312-.827-.69-.939-.299-.089-9.348-.087-9.637.002" fill="#10161F" fill-rule="evenodd"/></svg>