<svg xmlns="http://www.w3.org/2000/svg" width="24" height="24" viewBox="0 0 24 24" fill="none"><path d="M11.369 2.281c-.907.237-1.738.996-3.262 2.977-.683.888-.722.917-1.67 1.257-.913.327-1.817.692-2.337.943-1.433.693-2.072 1.579-2.008 2.782.046.866.493 1.775 1.887 3.84.573.85.575.855.624 2.172.097 2.603.315 3.546.984 4.268.271.294.638.528 1.042.666.416.143 1.076.172 1.729.076.524-.077 1.959-.428 2.734-.67.462-.144.575-.164.908-.164.333 0 .446.02.908.164.775.242 2.21.593 2.734.67.658.097 1.313.067 1.736-.078a2.545 2.545 0 0 0 1.458-1.28c.353-.724.477-1.533.564-3.704.021-.539.055-1.043.074-1.12.064-.259.152-.417.612-1.1 1.347-2.001 1.776-2.883 1.822-3.74.064-1.203-.575-2.089-2.008-2.782-.52-.251-1.424-.616-2.337-.943-.926-.332-1.011-.393-1.574-1.135-.824-1.087-1.715-2.091-2.198-2.478-.785-.628-1.6-.837-2.422-.621" fill="#10161F" fill-rule="evenodd"/></svg>