<svg xmlns="http://www.w3.org/2000/svg" width="24" height="24" viewBox="0 0 24 24" fill="none"><path d="M11.42 2.264c-.356.086-.84.342-1.215.642-.4.32-.899.868-1.834 2.014-1.039 1.274-.946 1.193-1.75 1.506-1.439.56-2.098.831-2.561 1.054-1.394.669-2.053 1.599-1.968 2.777.061.842.354 1.453 1.7 3.543.319.495.613.975.654 1.067.056.124.085.335.115.82.099 1.642.127 2.048.182 2.553.078.728.185 1.141.423 1.635.556 1.153 1.621 1.615 3.189 1.382.234-.035.992-.208 1.685-.385.693-.177 1.418-.359 1.61-.405l.35-.083.35.083c.193.046.917.228 1.61.405.693.177 1.451.35 1.685.385 1.203.178 2.058-.036 2.699-.678.239-.238.324-.361.488-.704.365-.762.439-1.246.587-3.844.068-1.197.016-1.037.66-2.031 1.565-2.414 1.818-2.959 1.82-3.92.001-.38-.016-.511-.096-.755-.185-.567-.614-1.087-1.237-1.501-.454-.302-1.104-.587-3.187-1.398-.804-.313-.711-.232-1.75-1.506-.935-1.146-1.434-1.694-1.834-2.014-.384-.307-.863-.557-1.235-.644a2.897 2.897 0 0 0-1.14.002m.86 2.016c.329.168.886.768 2.08 2.24.801.988 1.021 1.192 1.568 1.455.249.119.677.301.952.405 1.438.54 2.416.97 2.713 1.193.21.158.327.342.327.516 0 .361-.389 1.092-1.441 2.711-.25.385-.55.881-.665 1.102-.268.509-.313.761-.394 2.178-.13 2.283-.215 2.814-.501 3.1-.112.111-.145.121-.458.134-.416.017-.902-.079-2.504-.497-1.269-.331-1.672-.417-1.956-.417-.288 0-.741.096-1.911.405-1.565.413-2.116.524-2.537.508-.305-.011-.36-.025-.455-.113-.294-.273-.393-.863-.519-3.094-.034-.613-.089-1.266-.121-1.452-.07-.401-.262-.805-.72-1.514-1.819-2.814-1.937-3.132-1.33-3.567.355-.254.711-.409 3.032-1.321 1.06-.417 1.264-.577 2.2-1.732 1.768-2.181 2.139-2.495 2.64-2.24" fill="#10161F" fill-rule="evenodd"/></svg>