<svg xmlns="http://www.w3.org/2000/svg" width="24" height="24" viewBox="0 0 24 24" fill="none"><path d="M11.08 2.045c-1.874.165-3.723.904-5.28 2.109-.437.339-1.307 1.209-1.646 1.646-1.8 2.326-2.505 5.195-1.976 8.046.29 1.566.959 3.04 1.976 4.354.339.437 1.209 1.307 1.646 1.646 2.441 1.889 5.453 2.566 8.44 1.895 2.487-.559 4.752-2.144 6.145-4.301.806-1.247 1.283-2.527 1.521-4.08.098-.641.098-2.079 0-2.72-.285-1.858-.936-3.388-2.06-4.84-.339-.437-1.209-1.307-1.646-1.646-2.067-1.599-4.554-2.336-7.12-2.109m1.752 1.997a8.182 8.182 0 0 1 4.208 1.747c.354.286 1.027.972 1.286 1.311A8.123 8.123 0 0 1 20 12a8.1 8.1 0 0 1-1.789 5.04c-.286.354-.972 1.027-1.311 1.286A8.123 8.123 0 0 1 12 20a8.123 8.123 0 0 1-4.9-1.674c-.339-.259-1.025-.932-1.311-1.286A7.99 7.99 0 0 1 4.8 8.529a7.375 7.375 0 0 1 1.459-2.083 7.632 7.632 0 0 1 2.267-1.645 8.025 8.025 0 0 1 4.306-.759m-1.159 2.021a.93.93 0 0 0-.369.24c-.305.305-.304.292-.304 2.634.001 2.587.029 2.813.464 3.663.257.502.564.856 1.842 2.126 1.084 1.076 1.167 1.149 1.371 1.21.27.08.374.08.633.003.279-.083.546-.35.629-.629.077-.259.077-.363-.003-.632-.061-.204-.14-.293-1.332-1.498-.882-.892-1.299-1.342-1.374-1.483-.219-.413-.229-.535-.229-2.76-.001-2.341 0-2.329-.304-2.634-.279-.279-.63-.361-1.024-.24" fill="#10161F" fill-rule="evenodd"/></svg>