<svg width="24" height="24" viewBox="0 0 24 24" fill="none" xmlns="http://www.w3.org/2000/svg"><path d="M18.74 5.589c-.736.029-1.871.322-2.31.598-.395.248-.538.823-.313 1.259.122.234.21.323.431.434.317.158.501.152 1.039-.034.474-.163 1.129-.302 1.317-.278.087.01-.192.303-2.112 2.216-1.643 1.637-2.259 2.226-2.395 2.29a.951.951 0 0 1-.79-.001c-.116-.056-.511-.41-1.123-1.007-1.253-1.223-1.59-1.466-2.287-1.653-.347-.093-1.047-.093-1.397 0a3.41 3.41 0 0 0-1.08.529c-.143.106-1.459 1.391-2.925 2.855-2.429 2.427-2.671 2.68-2.73 2.86A1.353 1.353 0 0 0 2 16c0 .405.309.826.69.939.259.077.363.077.633-.003.21-.062.309-.156 2.917-2.753 1.782-1.774 2.754-2.715 2.86-2.766.215-.103.587-.103.798.001.087.043.555.467 1.04.941 1.27 1.241 1.539 1.449 2.162 1.667.293.102.368.112.9.112s.607-.01.9-.112a3.328 3.328 0 0 0 1.035-.598c.135-.111 1.204-1.156 2.375-2.323 1.949-1.942 2.13-2.112 2.13-1.999 0 .254-.126.831-.28 1.285-.175.513-.191.664-.099.934.124.364.466.628.862.666.33.032.723-.154.89-.421.198-.317.424-1.03.526-1.657.071-.436.08-1.294.018-1.738-.106-.76-.371-1.493-.653-1.805-.43-.476-1.764-.827-2.964-.781" fill="#10161F" fill-rule="evenodd"/></svg>