<svg xmlns="http://www.w3.org/2000/svg" width="24" height="24" viewBox="0 0 24 24" fill="none"><path d="M15.192 3.603c-.828.102-1.775.455-2.389.889-.35.247-.843.745-1.083 1.092-.491.71-.857 1.696-.979 2.638-.04.309-.031.305-.474.238A7.133 7.133 0 0 1 8.1 7.776c-.62-.307-1.1-.642-1.687-1.178-.651-.596-1.097-.798-1.751-.798-.568.001-1.006.177-1.383.555-.331.331-.467.64-.581 1.313-.146.859-.191 1.553-.167 2.544.047 1.866.456 3.268 1.342 4.592.638.955 1.379 1.644 2.476 2.302l.414.249-.292.17c-.421.247-.995.491-1.775.755-.377.128-.737.259-.8.293-.178.093-.402.346-.503.567-.128.28-.129.727-.003.982.169.344.47.567.91.675 2.908.717 5.786.829 8.302.323 1.649-.331 3.089-.964 4.147-1.824a12.847 12.847 0 0 0 1.43-1.436c1.279-1.571 2.024-3.513 2.284-5.96a23.92 23.92 0 0 0 .079-1.7l.016-1.1.178-.36c.098-.198.37-.636.604-.973.58-.832.638-.965.639-1.447.001-.329-.013-.41-.106-.609-.325-.693-1.02-1.025-1.798-.858-.298.064-.466.084-.618.073-.046-.003-.24-.129-.432-.28a4.877 4.877 0 0 0-2.045-.972c-.426-.09-1.341-.126-1.788-.071" fill="#10161F" fill-rule="evenodd"/></svg>