<svg xmlns="http://www.w3.org/2000/svg" width="24" height="24" viewBox="0 0 24 24" fill="none"><path d="M10.34 2.046c-.698.089-1.527.406-2.148.822a5.725 5.725 0 0 0-1.198 1.148c-.311.417-.685 1.18-.814 1.664a4.974 4.974 0 0 0 .337 3.5c.521 1.063 1.297 1.827 2.379 2.344 1.566.747 3.437.594 4.928-.405.405-.271 1.024-.89 1.295-1.295 1.164-1.739 1.164-3.909 0-5.648-.271-.405-.89-1.024-1.295-1.295a5.07 5.07 0 0 0-3.484-.835m-.12 10.982c-3.507.23-6.835 1.982-7.88 4.149-.214.444-.295.739-.325 1.183-.081 1.204.718 2.217 2.208 2.799 1.385.542 3.43.806 6.317.816 1.364.005 1.404.003 1.56-.081.191-.104.384-.301.483-.494.123-.24.095-.599-.077-.992-.364-.834-.484-1.436-.482-2.428 0-.689.011-.805.112-1.237a6.178 6.178 0 0 1 .83-2.008c.227-.371.282-.641.194-.954-.063-.226-.307-.508-.53-.615-.269-.129-1.49-.199-2.41-.138m5.78.969a1.034 1.034 0 0 0-.74.847c-.036.242.02.427.256.846l.197.35-.167.25a3.904 3.904 0 0 0-.267.476l-.099.226-.48.015c-.546.018-.71.077-.939.338-.18.205-.241.37-.241.655 0 .285.061.45.241.655.229.261.393.32.939.338l.48.015.099.226c.055.124.175.338.267.476l.167.25-.197.35c-.236.419-.292.604-.256.846.09.596.645.982 1.216.845.316-.076.492-.231.738-.65l.219-.371.568.002.568.002.218.369c.246.417.422.572.737.648.677.162 1.322-.431 1.212-1.116-.014-.09-.121-.335-.237-.545l-.211-.382.167-.249c.092-.137.211-.351.266-.475l.099-.226.48-.015c.546-.018.71-.077.939-.338.18-.205.241-.37.241-.655 0-.285-.061-.45-.241-.655-.229-.261-.393-.32-.939-.338l-.48-.015-.099-.226a3.616 3.616 0 0 0-.267-.473l-.169-.246.213-.385c.117-.211.224-.457.238-.547.11-.685-.535-1.278-1.212-1.116-.315.076-.491.231-.737.648l-.218.369-.568.002-.568.002-.217-.368c-.119-.203-.278-.416-.354-.473-.237-.181-.608-.259-.862-.182" fill="#10161F" fill-rule="evenodd"/></svg>