<svg xmlns="http://www.w3.org/2000/svg" width="24" height="24" viewBox="0 0 24 24" fill="none"><path d="M11.34 2.046c-.698.089-1.527.406-2.148.822a5.725 5.725 0 0 0-1.198 1.148c-.311.417-.685 1.18-.814 1.664a4.974 4.974 0 0 0 .337 3.5c.521 1.063 1.297 1.827 2.379 2.344 1.566.747 3.437.594 4.928-.405.405-.271 1.024-.89 1.295-1.295 1.164-1.739 1.164-3.909 0-5.648-.271-.405-.89-1.024-1.295-1.295a5.07 5.07 0 0 0-3.484-.835m-.12 10.979c-2.103.168-3.911.732-5.486 1.708-1.361.843-2.353 1.992-2.633 3.047-.385 1.456.399 2.706 2.122 3.379.98.383 2.334.629 4.237.768.399.029 1.45.049 2.54.049s2.141-.02 2.54-.049c3.047-.223 4.717-.713 5.683-1.667.551-.545.748-1.002.752-1.74.003-.547-.06-.815-.315-1.343-.964-2-3.884-3.667-7.14-4.077-.486-.062-1.897-.108-2.3-.075" fill="#10161F" fill-rule="evenodd"/></svg>