<svg xmlns="http://www.w3.org/2000/svg" width="24" height="24" viewBox="0 0 24 24" fill="none"><path d="M11.4 2.044c-2.009.227-3.728 1.734-4.239 3.716-.241.933-.178 2.115.159 2.992a5.115 5.115 0 0 0 2.887 2.911c1.091.43 2.495.43 3.586 0 1.342-.528 2.43-1.641 2.906-2.975.397-1.112.383-2.416-.036-3.481-.59-1.501-1.885-2.653-3.423-3.045a5.223 5.223 0 0 0-1.84-.118m1.46 2.077a3.086 3.086 0 0 1 2.026 2.039c.135.434.135 1.246 0 1.68a3.086 3.086 0 0 1-2.046 2.046c-.434.135-1.246.135-1.68 0-.59-.184-1.053-.495-1.481-.995a3.006 3.006 0 0 1-.565-1.051c-.135-.434-.135-1.246 0-1.68.341-1.094 1.259-1.921 2.357-2.121.326-.06 1.075-.016 1.389.082m-1.5 8.903c-2.882.194-5.391 1.198-7.032 2.813-1.233 1.213-1.627 2.585-1.074 3.742.571 1.196 2.227 1.936 5.006 2.237 1.177.127 1.949.16 3.74.16 1.791 0 2.563-.033 3.74-.16 2.779-.301 4.435-1.041 5.006-2.237.356-.745.329-1.548-.081-2.399-.975-2.025-4.039-3.743-7.305-4.096-.423-.046-1.66-.083-2-.06m1.7 2.033c.87.103 1.31.194 2.08.432 1.575.485 2.999 1.415 3.618 2.362.304.466.311.758.024 1.023-.563.519-1.968.871-4.202 1.053-.864.071-4.296.071-5.16 0-2.234-.182-3.639-.534-4.202-1.053-.287-.265-.28-.557.024-1.023.821-1.256 2.921-2.376 5.078-2.709.99-.153 1.917-.182 2.74-.085" fill="#10161F" fill-rule="evenodd"/></svg>