<svg xmlns="http://www.w3.org/2000/svg" width="24" height="24" viewBox="0 0 24 24" fill="none"><path d="M10.4 2.044c-2.009.227-3.728 1.734-4.239 3.716-.241.933-.178 2.115.159 2.992a5.115 5.115 0 0 0 2.887 2.911c1.091.43 2.495.43 3.586 0 1.342-.528 2.43-1.641 2.906-2.975.397-1.112.383-2.416-.036-3.481-.59-1.501-1.885-2.653-3.423-3.045a5.223 5.223 0 0 0-1.84-.118m1.46 2.077a3.086 3.086 0 0 1 2.026 2.039c.135.434.135 1.246 0 1.68a3.086 3.086 0 0 1-2.046 2.046c-.434.135-1.246.135-1.68 0-.59-.184-1.053-.495-1.481-.995a3.006 3.006 0 0 1-.565-1.051c-.135-.434-.135-1.246 0-1.68.341-1.094 1.259-1.921 2.357-2.121.326-.06 1.075-.016 1.389.082m-1.5 8.906c-2.77.15-5.396 1.2-7.032 2.81-1.233 1.213-1.627 2.585-1.074 3.742.769 1.61 3.435 2.38 8.306 2.396 1.343.005 1.384.003 1.54-.081.361-.196.552-.505.552-.895 0-.304-.08-.504-.28-.704-.276-.276-.237-.27-1.892-.3-2.059-.038-3.292-.143-4.389-.374-1.199-.253-2.002-.659-2.075-1.047-.14-.747 1.31-2.08 3.039-2.794 1.389-.574 2.68-.798 4.466-.774l1.024.014.196-.121a.998.998 0 0 0 .417-1.127c-.071-.253-.392-.587-.622-.648-.355-.094-1.384-.14-2.176-.097m5.74.96c-.326.073-.601.262-.722.496-.088.17-.145.48-.117.64.013.081.121.321.239.534l.214.388-.178.254a3.821 3.821 0 0 0-.278.473l-.1.22-.469.015c-.522.018-.681.073-.917.319-.176.184-.252.388-.252.674 0 .286.076.49.252.674.236.246.395.301.916.319l.467.015.136.286c.075.157.202.37.281.473l.144.188-.199.352c-.235.418-.292.604-.255.828.101.614.616.988 1.194.865.324-.069.495-.215.75-.638l.226-.375.567-.003.568-.004.212.36c.117.198.246.39.287.426.374.333.975.334 1.342.002.183-.166.254-.289.311-.545.061-.272.015-.458-.221-.884l-.212-.384.178-.254c.097-.139.222-.352.278-.473l.1-.22.469-.015c.534-.018.701-.079.928-.338.18-.205.241-.37.241-.655 0-.285-.061-.45-.241-.655-.227-.259-.394-.32-.927-.338l-.467-.015-.136-.286a3.248 3.248 0 0 0-.28-.473l-.144-.187.213-.384c.236-.427.282-.613.221-.885-.054-.242-.123-.369-.286-.525a1.01 1.01 0 0 0-1.293-.075c-.075.058-.235.269-.356.47l-.219.366-.566.003-.566.004-.217-.368c-.119-.203-.278-.416-.354-.473-.217-.165-.529-.244-.762-.192m2.322 3.108a.984.984 0 0 1 .475 1.336.997.997 0 0 1-1.319.474.984.984 0 0 1-.475-1.336.997.997 0 0 1 1.319-.474" fill="#10161F" fill-rule="evenodd"/></svg>