<svg xmlns="http://www.w3.org/2000/svg" width="24" height="24" viewBox="0 0 24 24" fill="none"><path d="M10.34 2.046c-.698.089-1.527.406-2.148.822a5.725 5.725 0 0 0-1.198 1.148c-.311.417-.685 1.18-.814 1.664a4.974 4.974 0 0 0 .337 3.5c.521 1.063 1.297 1.827 2.379 2.344 1.566.747 3.437.594 4.928-.405.405-.271 1.024-.89 1.295-1.295 1.164-1.739 1.164-3.909 0-5.648-.271-.405-.89-1.024-1.295-1.295a5.07 5.07 0 0 0-3.484-.835m-.12 10.982c-2.288.15-4.501.926-6.133 2.151-1.806 1.356-2.497 3.034-1.82 4.416.201.41.691.902 1.189 1.194 1.354.796 3.613 1.174 7.084 1.186 1.364.005 1.404.003 1.56-.081.191-.104.384-.301.483-.494.124-.241.095-.599-.079-.999a6.047 6.047 0 0 1-.046-4.699c.133-.32.295-.625.565-1.062.256-.414.229-.879-.069-1.217-.236-.269-.407-.332-1.032-.381-.5-.039-1.231-.045-1.702-.014m7.423 1.041a1.066 1.066 0 0 0-.577.591c-.055.162-.066.373-.066 1.267V17h-1.073c-1.235 0-1.35.021-1.628.299a.984.984 0 0 0 0 1.402c.278.278.393.299 1.628.299H17v1.073c0 1.235.021 1.35.299 1.628a.984.984 0 0 0 1.402 0c.278-.278.299-.393.299-1.628V19h1.073c1.235 0 1.35-.021 1.628-.299a.984.984 0 0 0 0-1.402c-.278-.278-.393-.299-1.628-.299H19v-1.073c0-1.235-.021-1.35-.299-1.628a.998.998 0 0 0-1.058-.23" fill="#10161F" fill-rule="evenodd"/></svg>