<svg xmlns="http://www.w3.org/2000/svg" width="24" height="24" viewBox="0 0 24 24" fill="none"><path d="M11.08 2.045c-1.874.165-3.723.904-5.28 2.109-.437.339-1.307 1.209-1.646 1.646-1.8 2.326-2.505 5.195-1.976 8.046.29 1.566.959 3.04 1.976 4.354.339.437 1.209 1.307 1.646 1.646 2.441 1.889 5.453 2.566 8.44 1.895 2.487-.559 4.752-2.144 6.145-4.301.806-1.247 1.283-2.527 1.521-4.08.098-.641.098-2.079 0-2.72-.285-1.858-.936-3.388-2.06-4.84-.339-.437-1.209-1.307-1.646-1.646-2.067-1.599-4.554-2.336-7.12-2.109m1.752 1.997a8.182 8.182 0 0 1 4.208 1.747c.354.286 1.027.972 1.286 1.311.327.429.632.927.874 1.429a7.944 7.944 0 0 1-.003 6.951c-.229.473-.758 1.324-.893 1.437-.053.044-.116.016-.413-.18-1.244-.821-2.835-1.406-4.471-1.643-.667-.096-2.173-.096-2.84 0-1.636.237-3.227.822-4.471 1.643-.297.196-.36.224-.413.18-.135-.113-.664-.964-.893-1.437-1.323-2.742-.991-5.942.871-8.38.259-.339.932-1.025 1.286-1.311a8.254 8.254 0 0 1 4.16-1.745 10.09 10.09 0 0 1 1.712-.002m-1.474 2.019A4.013 4.013 0 0 0 8.464 8.16a3.63 3.63 0 0 0-.406 1.235 3.416 3.416 0 0 0 0 1.21c.222 1.469 1.266 2.705 2.697 3.192.295.1.925.203 1.245.203.32 0 .95-.103 1.245-.203.984-.335 1.831-1.058 2.291-1.957a3.63 3.63 0 0 0 .406-1.235 3.416 3.416 0 0 0 0-1.21 3.986 3.986 0 0 0-2.102-2.931 3.63 3.63 0 0 0-1.235-.406 3.728 3.728 0 0 0-1.247.003m1.134 1.999c.36.093.626.25.912.536.296.295.448.561.536.933.166.707-.02 1.36-.536 1.875-.403.403-.858.596-1.404.596-.546 0-1.001-.193-1.404-.596C10.193 11.001 10 10.546 10 10c0-.546.193-1.001.596-1.404.404-.405.833-.588 1.386-.593a2.32 2.32 0 0 1 .51.057m.808 9.033c.963.157 1.82.429 2.68.855.395.195.78.423.78.461 0 .064-.8.555-1.286.79a7.94 7.94 0 0 1-6.948 0c-.481-.232-1.286-.726-1.286-.788 0-.038.059-.076.486-.312.905-.5 2.11-.896 3.094-1.016.198-.024.405-.051.46-.06.212-.036 1.677.015 2.02.07" fill="#10161F" fill-rule="evenodd"/></svg>