<svg xmlns="http://www.w3.org/2000/svg" width="24" height="24" viewBox="0 0 24 24" fill="none"><path d="M11.28 2.024c-2.109.185-3.979.926-5.561 2.201-1.675 1.351-2.908 3.28-3.416 5.346-.216.881-.277 1.41-.277 2.429s.061 1.548.277 2.429c.886 3.607 3.839 6.502 7.457 7.311.844.189 1.287.236 2.24.236.953 0 1.396-.047 2.24-.236 3.618-.809 6.571-3.704 7.457-7.311.213-.869.276-1.413.278-2.409.001-.976-.043-1.404-.235-2.26-.458-2.049-1.658-4.025-3.26-5.369-1.824-1.531-3.915-2.321-6.26-2.368a15.89 15.89 0 0 0-.94.001m1.362 4.039c2.268.43 3.506 2.886 2.5 4.959a3.48 3.48 0 0 1-3.784 1.915c-2.268-.43-3.506-2.886-2.5-4.959a3.479 3.479 0 0 1 3.784-1.915m.298 8.978a10.93 10.93 0 0 1 4.124 1.216c.509.265 1.176.685 1.176.741 0 .062-.889.963-1.193 1.208a7.988 7.988 0 0 1-4.767 1.782 8.01 8.01 0 0 1-5.324-1.779C6.645 17.958 5.76 17.063 5.76 17c0-.102 1.276-.831 1.98-1.132a11.666 11.666 0 0 1 3.26-.825 13.364 13.364 0 0 1 1.94-.002" fill="#10161F" fill-rule="evenodd"/></svg>