<svg xmlns="http://www.w3.org/2000/svg" width="24" height="24" viewBox="0 0 24 24" fill="none"><path d="M7.24 2.546c-2.11.108-3.311.502-4.229 1.387-.813.783-1.204 1.745-1.401 3.439-.062.542-.07 1.047-.07 4.628 0 3.581.008 4.086.07 4.628.197 1.694.588 2.656 1.401 3.439.804.775 1.708 1.131 3.361 1.323.549.063 1.092.07 5.628.07s5.079-.007 5.628-.07c1.653-.192 2.557-.548 3.361-1.323.813-.783 1.204-1.745 1.401-3.439.062-.542.07-1.047.07-4.628 0-3.581-.008-4.086-.07-4.628-.197-1.694-.588-2.656-1.401-3.439-.796-.768-1.698-1.126-3.32-1.319-.502-.06-1.134-.069-5.369-.075-2.64-.003-4.917 0-5.06.007m3.702 5.436c.356.092.908.351 1.778.835 1.359.757 2.276 1.349 2.642 1.704.611.596.769 1.434.412 2.188-.224.474-.708.875-1.963 1.627-2.307 1.383-3.073 1.68-3.83 1.483-.72-.188-1.242-.758-1.403-1.534-.175-.842-.175-3.929 0-4.766.201-.967.913-1.59 1.824-1.597.165-.001.408.026.54.06" fill="#10161F" fill-rule="evenodd"/></svg>