<svg xmlns="http://www.w3.org/2000/svg" width="24" height="24" viewBox="0 0 24 24" fill="none"><path d="M11.477 2.073c-1.254.328-1.866 1.834-1.196 2.944.134.222.433.535.639.669l.1.065-.134.274c-.432.884-1.307 2.263-1.838 2.897-.535.638-.966.94-1.568 1.097-.557.145-1.866.125-3.026-.045l-.445-.066-.065-.264A1.454 1.454 0 0 0 2.5 8.52c-.52 0-.941.22-1.229.642a1.484 1.484 0 0 0 .73 2.242l.229.083.731 1.887c1.636 4.228 1.929 4.897 2.475 5.665.714 1.005 1.657 1.574 2.985 1.801 1.243.213 5.906.214 7.144.003 1.815-.311 2.853-1.18 3.737-3.129.116-.256.355-.823.531-1.26.268-.665 1.77-4.521 1.893-4.859.029-.081.096-.127.276-.192a1.495 1.495 0 0 0 .696-2.293c-.28-.383-.701-.59-1.198-.59-.662 0-1.228.403-1.404 1a3.05 3.05 0 0 1-.094.28c-.045.09-.793.16-1.802.167-1.842.013-2.496-.267-3.474-1.485-.514-.64-1.254-1.784-1.609-2.487l-.127-.252.095-.059c.052-.032.204-.168.338-.302.303-.304.479-.651.544-1.072A1.995 1.995 0 0 0 12 2.005c-.143 0-.378.031-.523.068m.912 6.587c.498.748.972 1.331 1.483 1.826.693.671 1.224.995 1.988 1.214.726.208 1.022.238 2.35.239.677.001 1.23.006 1.23.012 0 .025-1.188 3.082-1.488 3.829-.833 2.075-1.257 2.654-2.169 2.96-.653.22-.924.236-3.783.236-2.845 0-3.095-.015-3.772-.23-.701-.222-1.14-.676-1.63-1.686-.301-.622-2.035-4.999-1.994-5.036a5.91 5.91 0 0 1 .596.044c1.031.103 2.278.027 3.006-.183 1.181-.341 2.189-1.248 3.329-2.994.184-.281.365-.572.403-.646.038-.074.083-.119.1-.1.017.019.175.251.351.515" fill="#10161F" fill-rule="evenodd"/></svg>