<svg xmlns="http://www.w3.org/2000/svg" width="24" height="24" viewBox="0 0 24 24" fill="none"><path d="M11.68 2.028a2.027 2.027 0 0 0-1.56 1.312 1.963 1.963 0 0 0 .456 2.041c.134.134.287.271.339.303l.095.059-.127.252c-.326.644-1.142 1.93-1.567 2.468-.98 1.241-1.884 1.622-3.716 1.565-.624-.02-1.538-.113-1.587-.162a1.954 1.954 0 0 1-.075-.25A1.46 1.46 0 0 0 2.5 8.52c-1.012 0-1.722.949-1.425 1.905.148.479.46.809.926.979l.23.083.931 2.407c1.067 2.757 1.351 3.455 1.679 4.126.846 1.733 1.932 2.569 3.68 2.836.708.109 1.543.143 3.479.143 1.936 0 2.771-.034 3.479-.143 1.705-.26 2.769-1.055 3.61-2.696.322-.63.643-1.41 1.71-4.166l.971-2.507.234-.085a1.495 1.495 0 0 0 .694-2.292c-.479-.655-1.456-.792-2.109-.295-.23.175-.455.516-.527.801-.034.13-.067.242-.075.25-.049.049-.963.142-1.587.162-1.832.057-2.736-.324-3.716-1.565-.425-.538-1.241-1.824-1.567-2.468l-.127-.252.095-.061c.349-.226.676-.658.819-1.082.107-.316.098-.935-.019-1.257-.329-.908-1.273-1.471-2.205-1.315" fill="#10161F" fill-rule="evenodd"/></svg>