<svg xmlns="http://www.w3.org/2000/svg" width="24" height="24" viewBox="0 0 24 24" fill="none"><path d="M12.18 2.86c-.708.133-1.246.45-2.737 1.613-.409.319-1.019.804-1.357 1.078l-.614.499-1.326-1.323C4.695 3.28 4.646 3.242 4.22 3.242c-.4 0-.742.218-.905.577-.1.22-.097.589.008.821.118.263 15.725 15.876 16.015 16.021a1 1 0 0 0 1.347-.48c.1-.221.097-.589-.008-.821-.058-.127-.331-.43-.925-1.027l-.843-.846.195-.029c.388-.057.687-.286 1.249-.958a7.017 7.017 0 0 0 1.288-6.71c-.169-.513-.63-1.42-.939-1.85-.374-.519-.965-1.136-1.226-1.278-.552-.301-1.249-.022-1.421.569-.072.247-.051.543.051.741.034.066.237.304.451.529.716.753 1.137 1.545 1.35 2.539.053.246.073.512.073.96 0 .448-.02.714-.073.96-.213.994-.632 1.779-1.36 2.548-.435.46-.468.511-.525.822l-.043.23-.699-.702c-.556-.558-.675-.696-.58-.67.425.113.838-.039 1.209-.447 1.475-1.62 1.435-4.04-.093-5.569-.241-.241-.325-.298-.518-.354a.99.99 0 0 0-1.238.623c-.139.393-.039.727.339 1.135.421.454.601.881.601 1.424 0 .542-.171.947-.597 1.417-.222.244-.297.36-.348.533a1.07 1.07 0 0 0 .006.63c.016.044-.147-.094-.363-.307l-.392-.387.009-1.533a54.466 54.466 0 0 0-.257-5.713c-.152-1.495-.255-1.993-.527-2.56-.309-.643-.847-1.087-1.48-1.221-.325-.069-.5-.069-.871.001m.486 1.971c.073.047.167.311.232.649.177.935.373 3.437.407 5.2l.024 1.22-2.205-2.2C9.912 8.49 8.92 7.487 8.92 7.47c0-.017.437-.378.97-.803 2.029-1.615 2.568-1.971 2.776-1.836M3.49 7.716c-.483.168-.9.422-1.28.782-.399.376-.629.686-.848 1.145-.319.667-.338.798-.34 2.317-.002 1.26.003 1.361.088 1.692a3.768 3.768 0 0 0 2.164 2.543c.432.183.702.242 1.316.288.302.022.658.066.79.099.484.118.741.292 2.48 1.682 3.08 2.463 3.495 2.735 4.398 2.887 1.103.187 2.037-.439 2.444-1.638.215-.631.054-1.144-.438-1.404-.23-.122-.659-.121-.89.001-.239.126-.437.379-.538.686a1.376 1.376 0 0 1-.15.337c-.192.22-.695-.122-3.672-2.496-1.773-1.414-2.103-1.641-2.702-1.857-.423-.153-.747-.216-1.343-.261-.814-.061-1.069-.153-1.433-.511a1.608 1.608 0 0 1-.473-.795c-.085-.329-.09-2.087-.007-2.4a1.704 1.704 0 0 1 1.013-1.171c.593-.241.721-.347.864-.713.196-.501-.102-1.114-.617-1.266-.296-.088-.448-.079-.826.053" fill="#10161F" fill-rule="evenodd"/></svg>