<svg xmlns="http://www.w3.org/2000/svg" width="24" height="24" viewBox="0 0 24 24" fill="none"><path d="M11.06 2.044c-.817.066-1.693.256-2.283.494-.488.197-.884.456-1.188.779-.634.671-.756 1.506-.344 2.359.143.296.226.404.597.772l.431.429-.38.203c-2.406 1.285-4.183 3.624-4.711 6.2a8.83 8.83 0 0 0-.025 3.32c.572 2.943 2.852 4.764 6.583 5.259 1.699.225 3.934.158 5.48-.164 3.16-.659 5.102-2.418 5.623-5.095a8.832 8.832 0 0 0-.025-3.32c-.524-2.573-2.305-4.915-4.72-6.205l-.39-.209.116-.096c.25-.209.63-.598.744-.763a2.55 2.55 0 0 0 .402-1.011c.151-1.037-.502-1.956-1.747-2.458-1.056-.426-2.66-.617-4.163-.494m2.38 2.069c.789.142 1.516.43 1.552.616.019.098-.322.426-.631.607a5.326 5.326 0 0 1-1.35.533c-.37.093-.514.108-1.011.108-.498 0-.641-.015-1.014-.108-.545-.137-1.108-.371-1.467-.61-.297-.197-.528-.441-.509-.539.006-.033.11-.119.231-.191.358-.215 1.046-.399 1.824-.488.502-.057 1.887-.015 2.375.072m-2.632 6.414c.301.09.464.288.832 1.007.187.365.349.665.36.665.011 0 .17-.297.354-.66.26-.513.373-.693.508-.812a.988.988 0 0 1 1.604.469c.092.315.053.478-.282 1.179l-.298.625h.13c.511 0 .984.48.984 1 0 .242-.119.521-.299.701-.247.247-.442.299-1.128.299H13v.471l.61.017c.676.018.827.059 1.065.284.189.179.324.483.324.728s-.135.549-.324.728c-.238.225-.389.266-1.065.284l-.61.017v.308c0 .402-.087.652-.3.865a1 1 0 0 1-1.488-.095c-.163-.214-.211-.39-.212-.773v-.305l-.61-.017c-.676-.018-.827-.059-1.065-.284a1.098 1.098 0 0 1-.324-.728c0-.245.135-.549.324-.728.238-.225.389-.266 1.065-.284l.61-.017V15h-.575c-.788 0-1.055-.104-1.287-.499a.999.999 0 0 1 .756-1.489l.217-.022-.296-.607c-.337-.689-.384-.894-.28-1.209a1.011 1.011 0 0 1 1.273-.647" fill="#10161F" fill-rule="evenodd"/></svg>