<svg xmlns="http://www.w3.org/2000/svg" width="24" height="24" viewBox="0 0 24 24" fill="none"><path d="M11.358 3.061c-1.436.224-2.674 1.281-3.155 2.694C8.103 6.05 8 6.68 8 7c0 .49.129 1.078.362 1.661.046.115.035.14-.291.62a27.709 27.709 0 0 0-1.786 3.002l-.365.703-.45.063a3.625 3.625 0 0 0-1.31.415 3.978 3.978 0 0 0-1.696 1.696 3.63 3.63 0 0 0-.406 1.235 3.416 3.416 0 0 0 0 1.21c.222 1.469 1.266 2.705 2.697 3.192.295.1.925.203 1.245.203.322 0 .951-.103 1.245-.204a4.473 4.473 0 0 0 1.555-.94l.184-.172.698.064c.974.091 3.662.091 4.636 0l.698-.064.184.172a4.1 4.1 0 0 0 2.195 1.086c.484.072.726.072 1.21 0a3.986 3.986 0 0 0 2.931-2.102 3.63 3.63 0 0 0 .406-1.235 3.416 3.416 0 0 0 0-1.21 3.986 3.986 0 0 0-2.102-2.931 3.625 3.625 0 0 0-1.31-.415l-.45-.063-.375-.723a26.71 26.71 0 0 0-1.593-2.703c-.5-.751-.518-.784-.473-.9C15.878 8.047 16 7.489 16 7c0-.32-.103-.95-.203-1.245-.241-.707-.734-1.418-1.287-1.856a4.012 4.012 0 0 0-1.905-.841 3.728 3.728 0 0 0-1.247.003m1.134 1.999c.36.093.626.25.912.536.296.295.448.561.536.933a2.05 2.05 0 0 1-.169 1.408c-.133.263-.575.703-.841.838a2.047 2.047 0 0 1-1.86 0c-.269-.136-.709-.576-.845-.845a2.047 2.047 0 0 1 0-1.86c.137-.27.576-.709.846-.845a2.078 2.078 0 0 1 1.421-.165m-1.773 5.722c.319.112.942.218 1.281.218.339 0 .962-.106 1.281-.218.158-.055.438-.18.622-.278l.333-.177.361.553c.659 1.009 1.537 2.602 1.451 2.631-.076.025-.585.396-.777.566-.406.361-.86 1.075-1.067 1.679a4.216 4.216 0 0 0-.14 1.911c.022.079.004.089-.21.12-.304.043-3.404.043-3.708 0-.214-.031-.232-.041-.21-.12a4.216 4.216 0 0 0-.14-1.911c-.207-.604-.661-1.318-1.067-1.679-.192-.17-.701-.541-.777-.566-.096-.032.731-1.519 1.535-2.758l.277-.426.333.177c.184.098.464.223.622.278M6.492 15.06c.36.093.626.25.912.536.296.295.448.561.536.933a2.05 2.05 0 0 1-.169 1.408c-.133.263-.575.703-.841.838a2.047 2.047 0 0 1-1.86 0c-.269-.136-.709-.576-.845-.845a2.047 2.047 0 0 1 0-1.86c.137-.27.576-.709.846-.845a2.078 2.078 0 0 1 1.421-.165m12 0c.36.093.626.25.912.536.296.295.448.561.536.933.166.707-.02 1.36-.536 1.875-.403.403-.858.596-1.404.596-.546 0-1.001-.193-1.404-.596C16.193 18.001 16 17.546 16 17c0-.546.193-1.001.596-1.404.404-.405.833-.588 1.386-.593a2.32 2.32 0 0 1 .51.057" fill="#10161F" fill-rule="evenodd"/></svg>