<svg xmlns="http://www.w3.org/2000/svg" width="24" height="24" viewBox="0 0 24 24" fill="none"><path d="M4.487 3.064a.984.984 0 0 0-.428 1.318c.078.155 1.654 1.752 7.27 7.363 7.934 7.928 7.284 7.321 7.805 7.288a.925.925 0 0 0 .899-.899c.032-.508.219-.292-3.267-3.784-1.73-1.733-3.122-3.15-3.095-3.15.151 0 1.097.362 1.529.584a7.052 7.052 0 0 1 1.544 1.071c.411.369.592.463.896.464a.985.985 0 0 0 .99-1.073c-.028-.305-.11-.455-.406-.74a9.177 9.177 0 0 0-4.064-2.239c-.653-.159-1.196-.228-2.006-.254l-.747-.025-.869-.87-.869-.87.215-.043a11.245 11.245 0 0 1 4.651.091 11.004 11.004 0 0 1 4.94 2.643c.228.211.483.419.566.462a.99.99 0 0 0 1.306-.389c.097-.165.113-.234.112-.492-.001-.406-.081-.543-.588-1.015-3.333-3.104-7.96-4.232-12.385-3.018l-.453.124-1.247-1.243c-.915-.914-1.294-1.265-1.426-1.325a1.06 1.06 0 0 0-.873.021m-.011 4.338C3.537 8.074 2.737 8.811 2.6 9.13a.995.995 0 0 0 .684 1.351c.412.099.67-.01 1.203-.508.427-.398.814-.712 1.251-1.014l.304-.21-.069-.105c-.038-.057-.265-.41-.506-.784-.24-.374-.458-.703-.485-.732-.04-.042-.136.01-.506.274m3.103 2.763a8.924 8.924 0 0 0-1.703 1.242c-.388.349-.526.591-.527.928-.003.689.608 1.16 1.26.97.176-.051.289-.126.556-.37a7.81 7.81 0 0 1 1.345-.999c.181-.102.33-.193.33-.201 0-.025-.879-1.775-.892-1.775-.006 0-.172.092-.369.205m2.822 3.099c-.851.29-1.879 1.001-2.133 1.476-.12.223-.12.656 0 .88.19.357.492.54.892.54.32 0 .455-.062.826-.379.363-.309.64-.476 1.008-.605.197-.069.265-.112.263-.165a19.13 19.13 0 0 0-.217-.961c-.167-.691-.229-.89-.277-.889a2.48 2.48 0 0 0-.362.103m1.242 3.802c-.355.131-.643.549-.643.934 0 .407.292.811.679.94a.99.99 0 0 0 1.226-.518c.232-.499.028-1.067-.478-1.329-.178-.092-.57-.105-.784-.027" fill="#10161F" fill-rule="evenodd"/></svg>