<svg xmlns="http://www.w3.org/2000/svg" width="24" height="24" viewBox="0 0 24 24" fill="none"><path d="M11.08 2.045c-1.874.165-3.723.904-5.28 2.109-.437.339-1.307 1.209-1.646 1.646-1.8 2.326-2.505 5.195-1.976 8.046.29 1.566.959 3.04 1.976 4.354.339.437 1.209 1.307 1.646 1.646 2.441 1.889 5.468 2.569 8.44 1.894a9.98 9.98 0 0 0 5.584-3.523c1.121-1.409 1.794-2.979 2.082-4.857.098-.641.098-2.079 0-2.72-.285-1.858-.936-3.388-2.06-4.84-.339-.437-1.209-1.307-1.646-1.646-2.067-1.599-4.554-2.336-7.12-2.109m1.868 2.01c.031.03-.134.885-.215 1.122a.977.977 0 0 1-.391.502c-.076.047-.396.149-.71.226a5.74 5.74 0 0 0-.821.259c-.534.255-1.01.746-1.287 1.329-.239.502-.288.829-.247 1.668.017.355-.034.481-.281.693-.2.171-.423.216-.717.146-.298-.072-.556-.262-.677-.499L7.5 9.302l-.012-1.951-.012-1.95.284-.184c.895-.579 2.197-1.034 3.36-1.176.328-.039 1.786-.028 1.828.014m2.552.76a7.523 7.523 0 0 1 2.241 1.631A7.375 7.375 0 0 1 19.2 8.529c1.094 2.263 1.066 4.834-.077 7.089-.167.328-.322.603-.346.611-.026.008-.062-.138-.093-.378-.107-.826-.244-1.256-.544-1.708-.337-.509-.702-.784-1.7-1.284-.757-.378-.954-.448-1.418-.503a2.967 2.967 0 0 0-1.31.162c-.611.231-1.193.769-1.495 1.38-.234.475-.31.839-.286 1.382.032.731.283 1.307.821 1.884.152.163.308.358.347.433.126.246.66 2.179.61 2.21-.131.081-1.112.192-1.701.193A8.123 8.123 0 0 1 7.1 18.326c-.339-.259-1.025-.932-1.311-1.286-1.328-1.643-1.972-3.807-1.747-5.872.134-1.224.592-2.525 1.226-3.479L5.5 7.34l.021 1.2.021 1.2.124.324c.435 1.137 1.37 1.826 2.658 1.957.317.032.753-.029 1.128-.16.768-.267 1.374-.87 1.679-1.67.123-.324.126-.347.13-1.035.004-.685.007-.709.11-.885a.904.904 0 0 1 .217-.252c.061-.041.354-.133.652-.205.797-.195 1.193-.402 1.661-.87.512-.513.697-.878.882-1.744.138-.648.135-.64.168-.64.016 0 .263.115.549.255m.132 9.869c.706.355.872.493.964.8.027.09.128.742.225 1.449.165 1.212.171 1.29.107 1.361-.09.099-.845.603-1.09.727l-.193.098-.06-.21-.287-1.009c-.324-1.14-.475-1.446-.987-2a2.794 2.794 0 0 1-.325-.408c-.08-.156-.086-.489-.011-.663a.992.992 0 0 1 .49-.452c.266-.099.461-.048 1.167.307" fill="#10161F" fill-rule="evenodd"/></svg>