<svg xmlns="http://www.w3.org/2000/svg" width="24" height="24" viewBox="0 0 24 24" fill="none"><path d="M11.28 2.024c-2.109.185-3.979.926-5.561 2.201-1.675 1.351-2.908 3.28-3.416 5.346-.216.881-.277 1.41-.277 2.429s.061 1.548.277 2.429c.886 3.607 3.839 6.502 7.457 7.311.844.189 1.287.236 2.24.236.953 0 1.396-.047 2.24-.236 3.618-.809 6.571-3.704 7.457-7.311.213-.869.276-1.413.278-2.409.001-.976-.043-1.404-.235-2.26-.458-2.049-1.658-4.025-3.26-5.369-1.824-1.531-3.915-2.321-6.26-2.368a15.89 15.89 0 0 0-.94.001m1.54 2.017c.636.072.604.058.74.333.317.645.216 1.353-.267 1.87-.291.31-.508.414-1.213.58-.74.174-1.076.331-1.348.632-.364.403-.519.912-.453 1.494.101.902-.348 1.67-1.152 1.971-.802.3-1.852-.061-2.327-.801-.277-.431-.294-.547-.311-2.08-.009-.759-.004-1.493.011-1.632l.027-.251.306-.263c1.15-.984 2.756-1.677 4.287-1.85a10.16 10.16 0 0 1 1.7-.003m2.56 9.418c.463.174 1.353.654 1.578.85.248.218.488.569.583.854.036.109.126.662.198 1.228l.133 1.029-.266.273a7.78 7.78 0 0 1-1.939 1.413l-.354.178-.192-.123c-.254-.164-.564-.497-.675-.727a5.1 5.1 0 0 1-.206-.595c-.176-.616-.306-.858-.676-1.262a3.067 3.067 0 0 1-.474-.652c-.131-.262-.148-.335-.163-.67-.014-.313-.001-.424.075-.66a1.807 1.807 0 0 1 2.378-1.136" fill="#10161F" fill-rule="evenodd"/></svg>